<svg width="256" height="256" version="1.1" xmlns="http://www.w3.org/2000/svg" desc="Created with imagetracer.js version 1.2.6" ><path fill="rgb(0,0,0)" stroke="rgb(0,0,0)" stroke-width="1" opacity="0" d="M 0 0 L 256 0 L 256 256 L 0 256 L 0 0 Z M 216 26 L 208 28 Q 206 31 205 29 L 203 30 L 201 30 L 197 32 L 186 34 L 181 37 L 180 36 L 176 38 Q 171 38 172 44 L 169 46 L 166 50 L 163 52 L 145 70 L 145 72 L 144 71 L 139 76 L 140 77 L 137 79 L 134 83 L 129 87 L 125 93 Q 121 92 123 96 L 121 96 Q 120 102 115 106 L 107 113 Q 108 115 106 114 L 103 118 L 101 119 L 86 134 L 86 136 L 78 142 L 68 131 Q 65 132 66 130 L 62 128 L 55 145 L 52 148 L 52 150 L 54 153 L 57 155 L 60 161 L 63 162 L 67 168 L 66 172 Q 67 174 64 173 L 64 175 L 62 175 L 61 178 Q 62 180 59 179 L 57 184 L 55 185 L 53 189 L 50 191 L 46 198 L 43 200 L 39 198 L 37 199 L 35 199 L 30 201 L 29 205 L 29 207 L 28 212 L 28 214 Q 27 216 30 215 L 29 217 L 35 227 L 38 227 L 38 229 L 41 229 Q 40 232 44 231 Q 45 234 47 232 L 48 233 L 58 233 L 64 226 L 63 221 L 64 219 L 64 215 L 67 213 L 68 211 L 74 206 L 76 203 L 91 190 L 91 192 L 98 197 Q 100 196 99 199 L 106 203 L 109 203 Q 110 199 112 202 L 116 200 Q 118 196 120 198 Q 119 195 122 196 Q 123 192 125 195 L 130 192 L 128 190 L 126 188 L 117 181 Q 118 178 115 179 L 114 177 L 119 171 Q 121 172 120 170 L 123 168 L 128 161 L 134 156 L 136 152 L 142 147 Q 141 143 144 144 L 143 141 L 153 133 L 164 120 L 191 94 L 197 87 L 200 85 L 203 79 L 206 78 Q 205 75 208 76 L 214 68 L 215 64 L 214 62 L 216 58 Q 213 56 217 55 L 216 52 Q 219 50 218 45 L 218 43 L 219 40 L 219 38 L 221 34 L 220 32 L 222 28 Q 221 25 216 26 Z M 183 113 L 181 115 L 181 117 L 179 117 Q 180 121 178 120 Q 175 121 177 123 L 174 124 L 172 128 Q 173 131 171 130 Q 168 131 170 133 L 167 135 Q 168 138 166 137 L 162 142 L 162 144 L 160 144 L 160 147 L 158 147 Q 159 151 157 150 L 153 155 Q 154 158 151 157 L 151 160 L 149 160 L 149 163 L 147 163 L 147 166 L 145 166 L 143 172 L 150 171 L 155 172 Q 160 174 162 171 L 164 172 L 164 186 L 165 187 L 164 190 L 165 195 L 164 200 Q 163 204 165 206 L 164 208 Q 162 214 166 216 L 190 216 L 191 215 L 201 215 L 202 213 L 202 172 L 202 170 L 205 171 L 222 171 L 222 169 L 218 164 Q 219 161 216 162 L 216 160 L 210 153 Q 211 150 208 151 L 208 148 L 207 148 L 205 144 Q 202 145 203 141 L 201 141 L 201 138 L 199 138 L 199 135 L 197 135 L 197 132 L 195 132 Q 196 128 192 127 Q 193 124 190 125 Q 191 122 188 121 Q 189 118 186 119 Q 187 116 184 115 Q 185 112 183 113 Z M 145 140 L 146 142 Q 147 139 145 140 Z " /><path fill="rgb(118,50,50)" stroke="rgb(118,50,50)" stroke-width="1" opacity="0.984313725490196" d="M 175.5 39 L 173.5 42 L 175.5 39 Z " /><path fill="rgb(118,50,50)" stroke="rgb(118,50,50)" stroke-width="1" opacity="0.984313725490196" d="M 179.5 45 L 177.5 48 L 179.5 45 Z " /><path fill="rgb(118,50,50)" stroke="rgb(118,50,50)" stroke-width="1" opacity="0.984313725490196" d="M 168.5 46 L 167.5 48 L 168.5 46 Z " /><path fill="rgb(118,50,50)" stroke="rgb(118,50,50)" stroke-width="1" opacity="0.984313725490196" d="M 171.5 54 L 158.5 68 L 171.5 54 Z " /><path fill="rgb(118,50,50)" stroke="rgb(118,50,50)" stroke-width="1" opacity="0.984313725490196" d="M 206.5 56 L 207 58.5 L 206 58.5 L 206.5 56 Z " /><path fill="rgb(118,50,50)" stroke="rgb(118,50,50)" stroke-width="1" opacity="0.984313725490196" d="M 186.5 62 L 186 63.5 L 184.5 66 L 185 64.5 L 186.5 62 Z " /><path fill="rgb(118,50,50)" stroke="rgb(118,50,50)" stroke-width="1" opacity="0.984313725490196" d="M 182.5 65 L 164.5 84 L 182.5 65 Z " /><path fill="rgb(118,50,50)" stroke="rgb(118,50,50)" stroke-width="1" opacity="0.984313725490196" d="M 147.5 68 L 146.5 70 L 147.5 68 Z " /><path fill="rgb(118,50,50)" stroke="rgb(118,50,50)" stroke-width="1" opacity="0.984313725490196" d="M 182.5 68 L 181.5 70 L 182.5 68 Z " /><path fill="rgb(118,50,50)" stroke="rgb(118,50,50)" stroke-width="1" opacity="0.984313725490196" d="M 155.5 71 L 145.5 82 L 155.5 71 Z " /><path fill="rgb(118,50,50)" stroke="rgb(118,50,50)" stroke-width="1" opacity="0.984313725490196" d="M 143.5 72 L 141.5 75 L 143.5 72 Z " /><path fill="rgb(118,50,50)" stroke="rgb(118,50,50)" stroke-width="1" opacity="0.984313725490196" d="M 179.5 72 L 176.5 76 L 179.5 72 Z " /><path fill="rgb(118,50,50)" stroke="rgb(118,50,50)" stroke-width="1" opacity="0.984313725490196" d="M 198.5 72 L 192.5 79 L 198.5 72 Z " /><path fill="rgb(118,50,50)" stroke="rgb(118,50,50)" stroke-width="1" opacity="0.984313725490196" d="M 136.5 79 L 135.5 81 L 136.5 79 Z " /><path fill="rgb(118,50,50)" stroke="rgb(118,50,50)" stroke-width="1" opacity="0.984313725490196" d="M 202.5 80 L 201.5 82 L 202.5 80 Z " /><path fill="rgb(118,50,50)" stroke="rgb(118,50,50)" stroke-width="1" opacity="0.984313725490196" d="M 170.5 82 L 164.5 89 L 170.5 82 Z " /><path fill="rgb(118,50,50)" stroke="rgb(118,50,50)" stroke-width="1" opacity="0.984313725490196" d="M 185.5 86 L 179.5 93 L 185.5 86 Z " /><path fill="rgb(118,50,50)" stroke="rgb(118,50,50)" stroke-width="1" opacity="0.984313725490196" d="M 136.5 91 L 129.5 99 L 136.5 91 Z " /><path fill="rgb(118,50,50)" stroke="rgb(118,50,50)" stroke-width="1" opacity="0.984313725490196" d="M 160.5 93 L 154.5 100 L 160.5 93 Z " /><path fill="rgb(118,50,50)" stroke="rgb(118,50,50)" stroke-width="1" opacity="0.984313725490196" d="M 153.5 95 L 138.5 111 L 153.5 95 Z " /><path fill="rgb(118,50,50)" stroke="rgb(118,50,50)" stroke-width="1" opacity="0.984313725490196" d="M 120.5 99 L 116.5 104 L 120.5 99 Z " /><path fill="rgb(118,50,50)" stroke="rgb(118,50,50)" stroke-width="1" opacity="0.984313725490196" d="M 173.5 99 L 165.5 108 L 173.5 99 Z " /><path fill="rgb(118,50,50)" stroke="rgb(118,50,50)" stroke-width="1" opacity="0.984313725490196" d="M 124.5 104 L 118.5 111 L 124.5 104 Z " /><path fill="rgb(118,50,50)" stroke="rgb(118,50,50)" stroke-width="1" opacity="0.984313725490196" d="M 150.5 104 L 145.5 110 L 150.5 104 Z " /><path fill="rgb(118,50,50)" stroke="rgb(118,50,50)" stroke-width="1" opacity="0.984313725490196" d="M 161.5 112 L 155.5 119 L 161.5 112 Z " /><path fill="rgb(118,50,50)" stroke="rgb(118,50,50)" stroke-width="1" opacity="0.984313725490196" d="M 141.5 114 L 137.5 119 L 141.5 114 Z " /><path fill="rgb(118,50,50)" stroke="rgb(118,50,50)" stroke-width="1" opacity="0.984313725490196" d="M 104.5 116 L 103.5 118 L 104.5 116 Z " /><path fill="rgb(118,50,50)" stroke="rgb(118,50,50)" stroke-width="1" opacity="0.984313725490196" d="M 112.5 116 L 109.5 120 L 112.5 116 Z " /><path fill="rgb(118,50,50)" stroke="rgb(118,50,50)" stroke-width="1" opacity="0.984313725490196" d="M 101.5 119 L 100.5 121 L 101.5 119 Z " /><path fill="rgb(118,50,50)" stroke="rgb(118,50,50)" stroke-width="1" opacity="0.984313725490196" d="M 163.5 120 L 159.5 125 L 163.5 120 Z " /><path fill="rgb(118,50,50)" stroke="rgb(118,50,50)" stroke-width="1" opacity="0.984313725490196" d="M 132.5 124 L 126.5 131 L 132.5 124 Z " /><path fill="rgb(118,50,50)" stroke="rgb(118,50,50)" stroke-width="1" opacity="0.984313725490196" d="M 104.5 125 L 101.5 129 L 104.5 125 Z " /><path fill="rgb(118,50,50)" stroke="rgb(118,50,50)" stroke-width="1" opacity="0.984313725490196" d="M 147.5 127 L 136.5 139 L 147.5 127 Z " /><path fill="rgb(118,50,50)" stroke="rgb(118,50,50)" stroke-width="1" opacity="0.984313725490196" d="M 181.5 127 L 180.5 129 L 181.5 127 Z " /><path fill="rgb(118,50,50)" stroke="rgb(118,50,50)" stroke-width="1" opacity="0.984313725490196" d="M 63.5 128 L 62.5 130 L 63.5 128 Z " /><path fill="rgb(118,50,50)" stroke="rgb(118,50,50)" stroke-width="1" opacity="0.984313725490196" d="M 184.5 128 L 185.5 130 L 184.5 128 Z " /><path fill="rgb(118,50,50)" stroke="rgb(118,50,50)" stroke-width="1" opacity="0.984313725490196" d="M 179.5 130 L 178.5 132 L 179.5 130 Z " /><path fill="rgb(118,50,50)" stroke="rgb(118,50,50)" stroke-width="1" opacity="0.984313725490196" d="M 186.5 131 L 187.5 133 L 186.5 131 Z " /><path fill="rgb(118,50,50)" stroke="rgb(118,50,50)" stroke-width="1" opacity="0.984313725490196" d="M 97.5 133 L 92.5 139 L 97.5 133 Z " /><path fill="rgb(118,50,50)" stroke="rgb(118,50,50)" stroke-width="1" opacity="0.984313725490196" d="M 177.5 133 L 176.5 135 L 177.5 133 Z " /><path fill="rgb(118,50,50)" stroke="rgb(118,50,50)" stroke-width="1" opacity="0.984313725490196" d="M 123.5 134 L 120.5 138 L 123.5 134 Z " /><path fill="rgb(118,50,50)" stroke="rgb(118,50,50)" stroke-width="1" opacity="0.984313725490196" d="M 189.5 135 L 190.5 137 L 189.5 135 Z " /><path fill="rgb(118,50,50)" stroke="rgb(118,50,50)" stroke-width="1" opacity="0.984313725490196" d="M 175.5 136 L 174.5 138 L 175.5 136 Z " /><path fill="rgb(118,50,50)" stroke="rgb(118,50,50)" stroke-width="1" opacity="0.984313725490196" d="M 191.5 138 L 192.5 140 L 191.5 138 Z " /><path fill="rgb(118,50,50)" stroke="rgb(118,50,50)" stroke-width="1" opacity="0.984313725490196" d="M 173.5 139 L 172.5 141 L 173.5 139 Z " /><path fill="rgb(118,50,50)" stroke="rgb(118,50,50)" stroke-width="1" opacity="0.984313725490196" d="M 66.5 140 L 68 140.5 L 66 141 L 65.5 143 L 65 141.5 L 66.5 140 Z " /><path fill="rgb(118,50,50)" stroke="rgb(118,50,50)" stroke-width="1" opacity="0.984313725490196" d="M 80.5 140 L 78.5 143 L 80.5 140 Z " /><path fill="rgb(118,50,50)" stroke="rgb(118,50,50)" stroke-width="1" opacity="0.984313725490196" d="M 109.5 140 L 98.5 152 L 109.5 140 Z " /><path fill="rgb(118,50,50)" stroke="rgb(118,50,50)" stroke-width="1" opacity="0.984313725490196" d="M 118.5 140 L 114.5 145 L 118.5 140 Z " /><path fill="rgb(118,50,50)" stroke="rgb(118,50,50)" stroke-width="1" opacity="0.984313725490196" d="M 89.5 142 L 84 148.5 L 83.5 150 L 83 148.5 L 89.5 142 Z " /><path fill="rgb(118,50,50)" stroke="rgb(118,50,50)" stroke-width="1" opacity="0.984313725490196" d="M 194.5 142 L 195.5 144 L 194.5 142 Z " /><path fill="rgb(118,50,50)" stroke="rgb(118,50,50)" stroke-width="1" opacity="0.984313725490196" d="M 69.5 143 L 72.5 147 L 69.5 143 Z " /><path fill="rgb(118,50,50)" stroke="rgb(118,50,50)" stroke-width="1" opacity="0.984313725490196" d="M 138.5 144 L 137.5 146 L 138.5 144 Z " /><path fill="rgb(118,50,50)" stroke="rgb(118,50,50)" stroke-width="1" opacity="0.984313725490196" d="M 196.5 145 L 197.5 147 L 196.5 145 Z " /><path fill="rgb(118,50,50)" stroke="rgb(118,50,50)" stroke-width="1" opacity="0.984313725490196" d="M 168.5 146 L 167.5 148 L 168.5 146 Z " /><path fill="rgb(118,50,50)" stroke="rgb(118,50,50)" stroke-width="1" opacity="0.984313725490196" d="M 111.5 148 L 107.5 153 L 111.5 148 Z " /><path fill="rgb(118,50,50)" stroke="rgb(118,50,50)" stroke-width="1" opacity="0.984313725490196" d="M 127.5 148 L 124.5 152 L 127.5 148 Z " /><path fill="rgb(118,50,50)" stroke="rgb(118,50,50)" stroke-width="1" opacity="0.984313725490196" d="M 198.5 148 L 199.5 150 L 198.5 148 Z " /><path fill="rgb(118,50,50)" stroke="rgb(118,50,50)" stroke-width="1" opacity="0.984313725490196" d="M 166.5 149 L 165.5 151 L 166.5 149 Z " /><path fill="rgb(118,50,50)" stroke="rgb(118,50,50)" stroke-width="1" opacity="0.984313725490196" d="M 64.5 151 L 74.5 162 L 64.5 151 Z " /><path fill="rgb(118,50,50)" stroke="rgb(118,50,50)" stroke-width="1" opacity="0.984313725490196" d="M 201.5 152 L 202.5 154 L 201.5 152 Z " /><path fill="rgb(118,50,50)" stroke="rgb(118,50,50)" stroke-width="1" opacity="0.984313725490196" d="M 78.5 153 L 99.5 175 L 78.5 153 Z " /><path fill="rgb(118,50,50)" stroke="rgb(118,50,50)" stroke-width="1" opacity="0.984313725490196" d="M 163.5 153 L 162.5 155 L 163.5 153 Z " /><path fill="rgb(118,50,50)" stroke="rgb(118,50,50)" stroke-width="1" opacity="0.984313725490196" d="M 88.5 154 L 91.5 158 L 88.5 154 Z " /><path fill="rgb(118,50,50)" stroke="rgb(118,50,50)" stroke-width="1" opacity="0.984313725490196" d="M 120.5 154 L 117.5 158 L 120.5 154 Z " /><path fill="rgb(118,50,50)" stroke="rgb(118,50,50)" stroke-width="1" opacity="0.984313725490196" d="M 203.5 155 L 204.5 157 L 203.5 155 Z " /><path fill="rgb(118,50,50)" stroke="rgb(118,50,50)" stroke-width="1" opacity="0.984313725490196" d="M 104.5 156 L 99 162.5 L 102 166.5 L 98 163.5 L 104.5 156 Z " /><path fill="rgb(118,50,50)" stroke="rgb(118,50,50)" stroke-width="1" opacity="0.984313725490196" d="M 161.5 156 L 160.5 158 L 161.5 156 Z " /><path fill="rgb(118,50,50)" stroke="rgb(118,50,50)" stroke-width="1" opacity="0.984313725490196" d="M 205.5 158 L 206.5 160 L 205.5 158 Z " /><path fill="rgb(118,50,50)" stroke="rgb(118,50,50)" stroke-width="1" opacity="0.984313725490196" d="M 159.5 159 L 158.5 161 L 159.5 159 Z " /><path fill="rgb(118,50,50)" stroke="rgb(118,50,50)" stroke-width="1" opacity="0.984313725490196" d="M 113.5 162 L 109.5 167 L 113.5 162 Z " /><path fill="rgb(118,50,50)" stroke="rgb(118,50,50)" stroke-width="1" opacity="0.984313725490196" d="M 157.5 162 L 156.5 164 L 157.5 162 Z " /><path fill="rgb(118,50,50)" stroke="rgb(118,50,50)" stroke-width="1" opacity="0.984313725490196" d="M 208.5 162 L 209 164 L 194.5 164 L 193.5 165 L 194.5 163 L 207.5 163 L 208.5 162 Z " /><path fill="rgb(118,50,50)" stroke="rgb(118,50,50)" stroke-width="1" opacity="0.984313725490196" d="M 170.5 163 L 172 164.5 L 172 174.5 L 171 174.5 L 171 164.5 L 170.5 163 Z " /><path fill="rgb(118,50,50)" stroke="rgb(118,50,50)" stroke-width="1" opacity="0.984313725490196" d="M 204.5 170 L 210 170.5 L 204.5 171 L 204.5 170 Z " /><path fill="rgb(118,50,50)" stroke="rgb(118,50,50)" stroke-width="1" opacity="0.984313725490196" d="M 85.5 171 L 102.5 189 L 85.5 171 Z " /><path fill="rgb(118,50,50)" stroke="rgb(118,50,50)" stroke-width="1" opacity="0.984313725490196" d="M 144.5 171 L 147 171.5 L 144.5 172 L 144.5 171 Z " /><path fill="rgb(118,50,50)" stroke="rgb(118,50,50)" stroke-width="1" opacity="0.984313725490196" d="M 164.5 171 L 165 174.5 L 164 174.5 L 164.5 171 Z " /><path fill="rgb(118,50,50)" stroke="rgb(118,50,50)" stroke-width="1" opacity="0.984313725490196" d="M 171.5 176 L 172 189.5 L 171 189.5 L 171.5 176 Z " /><path fill="rgb(118,50,50)" stroke="rgb(118,50,50)" stroke-width="1" opacity="0.984313725490196" d="M 78.5 178 L 80.5 181 L 78.5 178 Z " /><path fill="rgb(118,50,50)" stroke="rgb(118,50,50)" stroke-width="1" opacity="0.984313725490196" d="M 104.5 178 L 107.5 182 L 104.5 178 Z " /><path fill="rgb(118,50,50)" stroke="rgb(118,50,50)" stroke-width="1" opacity="0.984313725490196" d="M 70.5 180 L 65 186.5 L 64.5 192 L 64 186.5 L 70.5 180 Z " /><path fill="rgb(118,50,50)" stroke="rgb(118,50,50)" stroke-width="1" opacity="0.984313725490196" d="M 81.5 182 L 82 184.5 L 81 184.5 L 81.5 182 Z " /><path fill="rgb(118,50,50)" stroke="rgb(118,50,50)" stroke-width="1" opacity="0.984313725490196" d="M 71.5 183 L 72 191.5 L 71 191.5 L 71.5 183 Z " /><path fill="rgb(118,50,50)" stroke="rgb(118,50,50)" stroke-width="1" opacity="0.984313725490196" d="M 110.5 183 L 115 188.5 L 114 188.5 L 110.5 183 Z " /><path fill="rgb(118,50,50)" stroke="rgb(118,50,50)" stroke-width="1" opacity="0.984313725490196" d="M 76.5 185 L 77.5 188 L 79 187.5 L 76 189.5 L 76.5 185 Z " /><path fill="rgb(118,50,50)" stroke="rgb(118,50,50)" stroke-width="1" opacity="0.984313725490196" d="M 105.5 190 L 108 191.5 L 106.5 192 L 105.5 190 Z " /><path fill="rgb(118,50,50)" stroke="rgb(118,50,50)" stroke-width="1" opacity="0.984313725490196" d="M 87.5 191 L 82.5 197 L 87.5 191 Z " /><path fill="rgb(118,50,50)" stroke="rgb(118,50,50)" stroke-width="1" opacity="0.984313725490196" d="M 58.5 194 L 55.5 198 L 58.5 194 Z " /><path fill="rgb(118,50,50)" stroke="rgb(118,50,50)" stroke-width="1" opacity="0.984313725490196" d="M 71.5 194 L 68.5 198 L 71.5 194 Z " /><path fill="rgb(118,50,50)" stroke="rgb(118,50,50)" stroke-width="1" opacity="0.984313725490196" d="M 65.5 195 L 66 198.5 L 65 198.5 L 65.5 195 Z " /><path fill="rgb(118,50,50)" stroke="rgb(118,50,50)" stroke-width="1" opacity="0.984313725490196" d="M 45.5 208 L 46.5 210 L 45.5 208 Z " /><path fill="rgb(118,50,50)" stroke="rgb(118,50,50)" stroke-width="1" opacity="0.984313725490196" d="M 178.5 208 L 194 208.5 L 178.5 209 L 178.5 208 Z " /><path fill="rgb(118,50,50)" stroke="rgb(118,50,50)" stroke-width="1" opacity="0.984313725490196" d="M 36.5 209 L 37 211.5 L 36 211.5 L 36.5 209 Z " /><path fill="rgb(118,50,50)" stroke="rgb(118,50,50)" stroke-width="1" opacity="0.984313725490196" d="M 56.5 209 L 55.5 211 L 56.5 209 Z " /><path fill="rgb(118,50,50)" stroke="rgb(118,50,50)" stroke-width="1" opacity="0.984313725490196" d="M 38.5 215 L 39.5 217 L 38.5 215 Z " /><path fill="rgb(118,50,50)" stroke="rgb(118,50,50)" stroke-width="1" opacity="0.984313725490196" d="M 52.5 215 L 54 217.5 L 53 217.5 L 52.5 215 Z " /><path fill="rgb(118,50,50)" stroke="rgb(118,50,50)" stroke-width="1" opacity="0.984313725490196" d="M 178.5 215 L 183 215.5 L 178.5 216 L 178.5 215 Z " /><path fill="rgb(118,50,50)" stroke="rgb(118,50,50)" stroke-width="1" opacity="0.984313725490196" d="M 54.5 219 L 55 221.5 L 54 221.5 L 54.5 219 Z " /><path fill="rgb(118,50,50)" stroke="rgb(118,50,50)" stroke-width="1" opacity="0.984313725490196" d="M 44.5 221 L 45.5 223 L 44.5 221 Z " /><path fill="rgb(187,55,48)" stroke="rgb(187,55,48)" stroke-width="1" opacity="1" d="M 210.5 36 L 211 38.5 L 206 56.5 L 205 65.5 L 121.5 154 L 117 157.5 L 105.5 171 L 99 162.5 L 180 72.5 L 186 63.5 L 183.5 65 L 164 83.5 L 92.5 158 L 84 148.5 L 105 124.5 L 180.5 45 L 210.5 36 Z " /><path fill="rgb(187,55,48)" stroke="rgb(187,55,48)" stroke-width="1" opacity="1" d="M 182.5 126 L 208 163 L 194.5 163 L 193 164.5 L 194 165.5 L 194 208 L 178.5 208 L 177.5 209 L 171 209 L 172 164.5 Q 170.8 161.8 169.5 164 L 157 163.5 L 182.5 126 Z " /><path fill="rgb(187,55,48)" stroke="rgb(187,55,48)" stroke-width="1" opacity="1" d="M 66 141 L 69 142.5 L 99.5 175 L 114 187.5 Q 114.8 189.8 112.5 189 L 106.5 191 L 64 150.5 L 63 147.5 L 66 141 Z " /><path fill="rgb(187,55,48)" stroke="rgb(187,55,48)" stroke-width="1" opacity="1" d="M 76 177 Q 78.7 175.9 78 178.5 Q 82 179.5 81 185.5 L 77.5 188 Q 74.8 184 76 177 Z " /><path fill="rgb(187,55,48)" stroke="rgb(187,55,48)" stroke-width="1" opacity="1" d="M 70.5 181 L 72 193.5 L 66.5 200 L 65 194.5 L 65 186.5 L 70.5 181 Z " /><path fill="rgb(187,55,48)" stroke="rgb(187,55,48)" stroke-width="1" opacity="1" d="M 59.5 193 L 62 202 L 55 200 L 59.5 193 Z " /><path fill="rgb(187,55,48)" stroke="rgb(187,55,48)" stroke-width="1" opacity="1" d="M 51 204 L 59 206.5 L 58 209 L 54.5 210 Q 50.2 208.7 51 204 Z " /><path fill="rgb(187,55,48)" stroke="rgb(187,55,48)" stroke-width="1" opacity="1" d="M 39.5 207 L 44.5 208 L 52 214.5 Q 54.7 216.8 54 222.5 Q 53 225 48.5 224 L 40 217.5 Q 36.1 214.5 37 208 L 39.5 207 Z " /><path fill="rgb(18,13,14)" stroke="rgb(18,13,14)" stroke-width="1" opacity="0.9372549019607843" d="M 217.5 26 Q 223.2 24.2 221 30.5 L 220 30.5 Q 221.7 25.7 217.5 27 L 214.5 28 L 214.5 27 L 217.5 26 Z " /><path fill="rgb(18,13,14)" stroke="rgb(18,13,14)" stroke-width="1" opacity="0.9372549019607843" d="M 209.5 28 L 213 28.5 L 206.5 30 L 206.5 29 L 209.5 28 Z " /><path fill="rgb(18,13,14)" stroke="rgb(18,13,14)" stroke-width="1" opacity="0.9372549019607843" d="M 202.5 30 L 205 30.5 L 199.5 32 L 199.5 31 L 202.5 30 Z " /><path fill="rgb(18,13,14)" stroke="rgb(18,13,14)" stroke-width="1" opacity="0.9372549019607843" d="M 195.5 32 L 198 32.5 L 192.5 34 L 192.5 33 L 195.5 32 Z " /><path fill="rgb(18,13,14)" stroke="rgb(18,13,14)" stroke-width="1" opacity="0.9372549019607843" d="M 219.5 32 L 220 35.5 L 219 35.5 L 219.5 32 Z " /><path fill="rgb(18,13,14)" stroke="rgb(18,13,14)" stroke-width="1" opacity="0.9372549019607843" d="M 188.5 34 L 191 34.5 L 188.5 35 L 188.5 34 Z " /><path fill="rgb(18,13,14)" stroke="rgb(18,13,14)" stroke-width="1" opacity="0.9372549019607843" d="M 184.5 35 L 187 35.5 L 184.5 36 L 184.5 35 Z " /><path fill="rgb(18,13,14)" stroke="rgb(18,13,14)" stroke-width="1" opacity="0.9372549019607843" d="M 210.5 35 Q 213.1 34.2 212 37.5 L 211 37.5 L 210.5 35 Z " /><path fill="rgb(18,13,14)" stroke="rgb(18,13,14)" stroke-width="1" opacity="0.9372549019607843" d="M 176 38 L 178 38.5 L 175 40.5 L 176 38 Z " /><path fill="rgb(18,13,14)" stroke="rgb(18,13,14)" stroke-width="1" opacity="0.9372549019607843" d="M 218.5 38 L 219 40.5 L 218 40.5 L 218.5 38 Z " /><path fill="rgb(18,13,14)" stroke="rgb(18,13,14)" stroke-width="1" opacity="0.9372549019607843" d="M 171.5 44 L 148.5 68 L 171.5 44 Z " /><path fill="rgb(18,13,14)" stroke="rgb(18,13,14)" stroke-width="1" opacity="0.9372549019607843" d="M 216.5 46 L 217 50.5 L 216 50.5 L 216.5 46 Z " /><path fill="rgb(18,13,14)" stroke="rgb(18,13,14)" stroke-width="1" opacity="0.9372549019607843" d="M 176.5 48 L 167.5 58 L 176.5 48 Z " /><path fill="rgb(18,13,14)" stroke="rgb(18,13,14)" stroke-width="1" opacity="0.9372549019607843" d="M 215.5 52 L 216 55.5 L 215 55.5 L 215.5 52 Z " /><path fill="rgb(18,13,14)" stroke="rgb(18,13,14)" stroke-width="1" opacity="0.9372549019607843" d="M 214.5 57 L 215 60.5 L 214 60.5 L 214.5 57 Z " /><path fill="rgb(18,13,14)" stroke="rgb(18,13,14)" stroke-width="1" opacity="0.9372549019607843" d="M 213.5 62 L 214 64.5 L 213 64.5 L 213.5 62 Z " /><path fill="rgb(18,13,14)" stroke="rgb(18,13,14)" stroke-width="1" opacity="0.9372549019607843" d="M 183.5 66 L 182.5 68 L 183.5 66 Z " /><path fill="rgb(18,13,14)" stroke="rgb(18,13,14)" stroke-width="1" opacity="0.9372549019607843" d="M 212.5 66 L 213 68.5 L 173.5 110 L 200 82.5 L 211 70.5 L 212.5 66 Z " /><path fill="rgb(18,13,14)" stroke="rgb(18,13,14)" stroke-width="1" opacity="0.9372549019607843" d="M 203.5 67 L 199.5 72 L 203.5 67 Z " /><path fill="rgb(18,13,14)" stroke="rgb(18,13,14)" stroke-width="1" opacity="0.9372549019607843" d="M 157.5 68 L 151.5 75 L 157.5 68 Z " /><path fill="rgb(18,13,14)" stroke="rgb(18,13,14)" stroke-width="1" opacity="0.9372549019607843" d="M 180.5 70 L 178.5 73 L 180.5 70 Z " /><path fill="rgb(18,13,14)" stroke="rgb(18,13,14)" stroke-width="1" opacity="0.9372549019607843" d="M 144.5 72 L 126.5 91 L 140 76.5 Q 139.3 74.3 141.5 75 L 144.5 72 Z " /><path fill="rgb(18,13,14)" stroke="rgb(18,13,14)" stroke-width="1" opacity="0.9372549019607843" d="M 175.5 76 L 171.5 81 L 175.5 76 Z " /><path fill="rgb(18,13,14)" stroke="rgb(18,13,14)" stroke-width="1" opacity="0.9372549019607843" d="M 192.5 79 L 186.5 86 L 192.5 79 Z " /><path fill="rgb(18,13,14)" stroke="rgb(18,13,14)" stroke-width="1" opacity="0.9372549019607843" d="M 144.5 82 L 136.5 91 L 144.5 82 Z " /><path fill="rgb(18,13,14)" stroke="rgb(18,13,14)" stroke-width="1" opacity="0.9372549019607843" d="M 164.5 84 L 154.5 95 L 164.5 84 Z " /><path fill="rgb(18,13,14)" stroke="rgb(18,13,14)" stroke-width="1" opacity="0.9372549019607843" d="M 163.5 89 L 160.5 93 L 163.5 89 Z " /><path fill="rgb(18,13,14)" stroke="rgb(18,13,14)" stroke-width="1" opacity="0.9372549019607843" d="M 125.5 92 L 123.5 95 L 125.5 92 Z " /><path fill="rgb(18,13,14)" stroke="rgb(18,13,14)" stroke-width="1" opacity="0.9372549019607843" d="M 178.5 94 L 174.5 99 L 178.5 94 Z " /><path fill="rgb(18,13,14)" stroke="rgb(18,13,14)" stroke-width="1" opacity="0.9372549019607843" d="M 122.5 96 L 123 97.5 L 115.5 106 L 121 99.5 L 122.5 96 Z " /><path fill="rgb(18,13,14)" stroke="rgb(18,13,14)" stroke-width="1" opacity="0.9372549019607843" d="M 128.5 99 L 122.5 106 L 128.5 99 Z " /><path fill="rgb(18,13,14)" stroke="rgb(18,13,14)" stroke-width="1" opacity="0.9372549019607843" d="M 153.5 100 L 150.5 104 L 153.5 100 Z " /><path fill="rgb(18,13,14)" stroke="rgb(18,13,14)" stroke-width="1" opacity="0.9372549019607843" d="M 113.5 107 L 107 114.5 L 100.5 122 L 92 129.5 L 85.5 137 L 86 135.5 L 88 132.5 L 102 119.5 Q 101.3 117.3 103.5 118 L 113.5 107 Z " /><path fill="rgb(18,13,14)" stroke="rgb(18,13,14)" stroke-width="1" opacity="0.9372549019607843" d="M 141.5 108 L 140.5 110 L 141.5 108 Z " /><path fill="rgb(18,13,14)" stroke="rgb(18,13,14)" stroke-width="1" opacity="0.9372549019607843" d="M 165.5 108 L 162.5 112 L 165.5 108 Z " /><path fill="rgb(18,13,14)" stroke="rgb(18,13,14)" stroke-width="1" opacity="0.9372549019607843" d="M 144.5 110 L 141.5 114 L 144.5 110 Z " /><path fill="rgb(18,13,14)" stroke="rgb(18,13,14)" stroke-width="1" opacity="0.9372549019607843" d="M 117.5 111 L 115.5 114 L 117.5 111 Z " /><path fill="rgb(18,13,14)" stroke="rgb(18,13,14)" stroke-width="1" opacity="0.9372549019607843" d="M 138.5 111 L 110.5 140 L 138.5 111 Z " /><path fill="rgb(18,13,14)" stroke="rgb(18,13,14)" stroke-width="1" opacity="0.9372549019607843" d="M 171.5 111 L 167.5 116 L 171.5 111 Z " /><path fill="rgb(18,13,14)" stroke="rgb(18,13,14)" stroke-width="1" opacity="0.9372549019607843" d="M 182.5 114 Q 184.8 113.3 184 115.5 L 188 120.5 L 185 118.5 L 182.5 115 L 177.5 122 L 179 119.5 L 182.5 114 Z " /><path fill="rgb(18,13,14)" stroke="rgb(18,13,14)" stroke-width="1" opacity="0.9372549019607843" d="M 157.5 117 L 148.5 127 L 157.5 117 Z " /><path fill="rgb(18,13,14)" stroke="rgb(18,13,14)" stroke-width="1" opacity="0.9372549019607843" d="M 136.5 119 L 131.5 125 L 136.5 119 Z " /><path fill="rgb(18,13,14)" stroke="rgb(18,13,14)" stroke-width="1" opacity="0.9372549019607843" d="M 163.5 119 L 159 124.5 L 148.5 136 L 143 140.5 L 144 142.5 L 116.5 173 L 123 165.5 L 125 162.5 L 139 146.5 L 136 145.5 L 140 143 Q 138.9 140.3 141.5 141 L 156 127.5 L 163.5 119 Z " /><path fill="rgb(18,13,14)" stroke="rgb(18,13,14)" stroke-width="1" opacity="0.9372549019607843" d="M 108.5 120 L 103.5 126 L 108.5 120 Z " /><path fill="rgb(18,13,14)" stroke="rgb(18,13,14)" stroke-width="1" opacity="0.9372549019607843" d="M 188.5 122 L 192 126.5 L 189 124.5 L 188.5 122 Z " /><path fill="rgb(18,13,14)" stroke="rgb(18,13,14)" stroke-width="1" opacity="0.9372549019607843" d="M 176.5 123 L 176 124.5 L 162.5 143 L 164 140.5 L 176.5 123 Z " /><path fill="rgb(18,13,14)" stroke="rgb(18,13,14)" stroke-width="1" opacity="0.9372549019607843" d="M 182.5 125 L 184 125.5 L 181.5 127 L 182.5 125 Z " /><path fill="rgb(18,13,14)" stroke="rgb(18,13,14)" stroke-width="1" opacity="0.9372549019607843" d="M 192.5 128 L 222 171 L 210 170.5 L 221 169.5 Q 204.8 149.5 192.5 128 Z " /><path fill="rgb(18,13,14)" stroke="rgb(18,13,14)" stroke-width="1" opacity="0.9372549019607843" d="M 63.5 129 L 78 142.5 L 64.5 130 L 62 131.5 L 61.5 133 L 61 131.5 L 63.5 129 Z " /><path fill="rgb(18,13,14)" stroke="rgb(18,13,14)" stroke-width="1" opacity="0.9372549019607843" d="M 100.5 129 L 95.5 135 L 100.5 129 Z " /><path fill="rgb(18,13,14)" stroke="rgb(18,13,14)" stroke-width="1" opacity="0.9372549019607843" d="M 125.5 131 L 123.5 134 L 125.5 131 Z " /><path fill="rgb(18,13,14)" stroke="rgb(18,13,14)" stroke-width="1" opacity="0.9372549019607843" d="M 177.5 132 L 176.5 134 L 177.5 132 Z " /><path fill="rgb(18,13,14)" stroke="rgb(18,13,14)" stroke-width="1" opacity="0.9372549019607843" d="M 188.5 133 L 189.5 135 L 188.5 133 Z " /><path fill="rgb(18,13,14)" stroke="rgb(18,13,14)" stroke-width="1" opacity="0.9372549019607843" d="M 60.5 134 L 60 135.5 L 53.5 148 L 54 146.5 L 60.5 134 Z " /><path fill="rgb(18,13,14)" stroke="rgb(18,13,14)" stroke-width="1" opacity="0.9372549019607843" d="M 138.5 137 L 128.5 148 L 138.5 137 Z " /><path fill="rgb(18,13,14)" stroke="rgb(18,13,14)" stroke-width="1" opacity="0.9372549019607843" d="M 119.5 138 L 118.5 140 L 119.5 138 Z " /><path fill="rgb(18,13,14)" stroke="rgb(18,13,14)" stroke-width="1" opacity="0.9372549019607843" d="M 66.5 139 L 65.5 141 L 66.5 139 Z " /><path fill="rgb(18,13,14)" stroke="rgb(18,13,14)" stroke-width="1" opacity="0.9372549019607843" d="M 82.5 139 L 79.5 143 L 82.5 139 Z " /><path fill="rgb(18,13,14)" stroke="rgb(18,13,14)" stroke-width="1" opacity="0.9372549019607843" d="M 91.5 139 L 88.5 143 L 91.5 139 Z " /><path fill="rgb(18,13,14)" stroke="rgb(18,13,14)" stroke-width="1" opacity="0.9372549019607843" d="M 193.5 140 L 194.5 142 L 193.5 140 Z " /><path fill="rgb(18,13,14)" stroke="rgb(18,13,14)" stroke-width="1" opacity="0.9372549019607843" d="M 68.5 141 L 69.5 143 L 68.5 141 Z " /><path fill="rgb(18,13,14)" stroke="rgb(18,13,14)" stroke-width="1" opacity="0.9372549019607843" d="M 171.5 141 L 170.5 143 L 171.5 141 Z " /><path fill="rgb(18,13,14)" stroke="rgb(18,13,14)" stroke-width="1" opacity="0.9372549019607843" d="M 161.5 144 L 160.5 146 L 161.5 144 Z " /><path fill="rgb(18,13,14)" stroke="rgb(18,13,14)" stroke-width="1" opacity="0.9372549019607843" d="M 169.5 144 L 168.5 146 L 169.5 144 Z " /><path fill="rgb(18,13,14)" stroke="rgb(18,13,14)" stroke-width="1" opacity="0.9372549019607843" d="M 113.5 145 L 111.5 148 L 113.5 145 Z " /><path fill="rgb(18,13,14)" stroke="rgb(18,13,14)" stroke-width="1" opacity="0.9372549019607843" d="M 73.5 147 L 79.5 154 L 73.5 147 Z " /><path fill="rgb(18,13,14)" stroke="rgb(18,13,14)" stroke-width="1" opacity="0.9372549019607843" d="M 159.5 147 L 159 148.5 L 149.5 162 L 151 159.5 L 159.5 147 Z " /><path fill="rgb(18,13,14)" stroke="rgb(18,13,14)" stroke-width="1" opacity="0.9372549019607843" d="M 52.5 149 L 59 156.5 L 52 150.5 L 52.5 149 Z " /><path fill="rgb(18,13,14)" stroke="rgb(18,13,14)" stroke-width="1" opacity="0.9372549019607843" d="M 84.5 150 L 87.5 154 L 84.5 150 Z " /><path fill="rgb(18,13,14)" stroke="rgb(18,13,14)" stroke-width="1" opacity="0.9372549019607843" d="M 200.5 150 L 201.5 152 L 200.5 150 Z " /><path fill="rgb(18,13,14)" stroke="rgb(18,13,14)" stroke-width="1" opacity="0.9372549019607843" d="M 99.5 151 L 92.5 159 L 91 158.5 L 99.5 151 Z " /><path fill="rgb(18,13,14)" stroke="rgb(18,13,14)" stroke-width="1" opacity="0.9372549019607843" d="M 123.5 152 L 114.5 162 L 123.5 152 Z " /><path fill="rgb(18,13,14)" stroke="rgb(18,13,14)" stroke-width="1" opacity="0.9372549019607843" d="M 106.5 153 L 104.5 156 L 106.5 153 Z " /><path fill="rgb(18,13,14)" stroke="rgb(18,13,14)" stroke-width="1" opacity="0.9372549019607843" d="M 68.5 156 L 70.5 159 L 68.5 156 Z " /><path fill="rgb(18,13,14)" stroke="rgb(18,13,14)" stroke-width="1" opacity="0.9372549019607843" d="M 59.5 158 Q 66 162 69 169.5 L 55.5 186 L 58 182.5 L 68 168.5 L 59.5 158 Z " /><path fill="rgb(18,13,14)" stroke="rgb(18,13,14)" stroke-width="1" opacity="0.9372549019607843" d="M 207.5 160 L 208.5 162 L 207.5 160 Z " /><path fill="rgb(18,13,14)" stroke="rgb(18,13,14)" stroke-width="1" opacity="0.9372549019607843" d="M 75.5 162 L 93.5 181 L 75.5 162 Z " /><path fill="rgb(18,13,14)" stroke="rgb(18,13,14)" stroke-width="1" opacity="0.9372549019607843" d="M 148.5 163 L 148 164.5 L 146.5 167 L 147 165.5 L 148.5 163 Z " /><path fill="rgb(18,13,14)" stroke="rgb(18,13,14)" stroke-width="1" opacity="0.9372549019607843" d="M 98.5 164 L 105.5 172 L 98.5 164 Z " /><path fill="rgb(18,13,14)" stroke="rgb(18,13,14)" stroke-width="1" opacity="0.9372549019607843" d="M 156.5 164 L 166 164.5 L 156.5 165 L 156.5 164 Z " /><path fill="rgb(18,13,14)" stroke="rgb(18,13,14)" stroke-width="1" opacity="0.9372549019607843" d="M 93.5 167 L 103.5 178 L 93.5 167 Z " /><path fill="rgb(18,13,14)" stroke="rgb(18,13,14)" stroke-width="1" opacity="0.9372549019607843" d="M 109.5 167 L 107.5 170 L 109.5 167 Z " /><path fill="rgb(18,13,14)" stroke="rgb(18,13,14)" stroke-width="1" opacity="0.9372549019607843" d="M 194.5 167 L 195 170.5 L 194 170.5 L 194.5 167 Z " /><path fill="rgb(18,13,14)" stroke="rgb(18,13,14)" stroke-width="1" opacity="0.9372549019607843" d="M 145.5 168 L 144 170.5 L 143.5 172 L 143 170.5 L 145.5 168 Z " /><path fill="rgb(18,13,14)" stroke="rgb(18,13,14)" stroke-width="1" opacity="0.9372549019607843" d="M 154.5 170 L 165 170.5 L 154.5 171 L 154.5 170 Z " /><path fill="rgb(18,13,14)" stroke="rgb(18,13,14)" stroke-width="1" opacity="0.9372549019607843" d="M 200.5 170 L 201 214.5 L 200 214.5 L 200.5 170 Z " /><path fill="rgb(18,13,14)" stroke="rgb(18,13,14)" stroke-width="1" opacity="0.9372549019607843" d="M 194.5 173 L 195 178.5 L 194 178.5 L 194.5 173 Z " /><path fill="rgb(18,13,14)" stroke="rgb(18,13,14)" stroke-width="1" opacity="0.9372549019607843" d="M 114.5 175 L 114 176.5 L 121 184.5 L 113 177.5 L 114.5 175 Z " /><path fill="rgb(18,13,14)" stroke="rgb(18,13,14)" stroke-width="1" opacity="0.9372549019607843" d="M 165.5 175 L 166 177.5 L 165 177.5 L 165.5 175 Z " /><path fill="rgb(18,13,14)" stroke="rgb(18,13,14)" stroke-width="1" opacity="0.9372549019607843" d="M 77.5 176 L 78.5 178 L 77.5 176 Z " /><path fill="rgb(18,13,14)" stroke="rgb(18,13,14)" stroke-width="1" opacity="0.9372549019607843" d="M 75.5 177 L 76 181.5 L 75 181.5 L 75.5 177 Z " /><path fill="rgb(18,13,14)" stroke="rgb(18,13,14)" stroke-width="1" opacity="0.9372549019607843" d="M 71.5 180 L 72 182.5 L 71 182.5 L 71.5 180 Z " /><path fill="rgb(18,13,14)" stroke="rgb(18,13,14)" stroke-width="1" opacity="0.9372549019607843" d="M 194.5 180 L 195 184.5 L 194 184.5 L 194.5 180 Z " /><path fill="rgb(18,13,14)" stroke="rgb(18,13,14)" stroke-width="1" opacity="0.9372549019607843" d="M 108.5 181 L 109.5 183 L 108.5 181 Z " /><path fill="rgb(18,13,14)" stroke="rgb(18,13,14)" stroke-width="1" opacity="0.9372549019607843" d="M 95.5 182 L 98.5 186 L 95.5 182 Z " /><path fill="rgb(18,13,14)" stroke="rgb(18,13,14)" stroke-width="1" opacity="0.9372549019607843" d="M 81.5 185 L 79.5 188 L 81.5 185 Z " /><path fill="rgb(18,13,14)" stroke="rgb(18,13,14)" stroke-width="1" opacity="0.9372549019607843" d="M 123.5 186 L 128.5 192 L 119.5 197 L 120.5 195 L 127 192 L 123.5 186 Z " /><path fill="rgb(18,13,14)" stroke="rgb(18,13,14)" stroke-width="1" opacity="0.9372549019607843" d="M 194.5 186 L 195 208.5 L 194 208.5 L 194.5 186 Z " /><path fill="rgb(18,13,14)" stroke="rgb(18,13,14)" stroke-width="1" opacity="0.9372549019607843" d="M 165.5 188 L 166 208.5 L 165 208.5 L 165.5 188 Z " /><path fill="rgb(18,13,14)" stroke="rgb(18,13,14)" stroke-width="1" opacity="0.9372549019607843" d="M 77.5 189 L 76.5 191 L 77.5 189 Z " /><path fill="rgb(18,13,14)" stroke="rgb(18,13,14)" stroke-width="1" opacity="0.9372549019607843" d="M 89.5 189 L 97 195.5 L 90.5 190 L 88.5 191 L 89.5 189 Z " /><path fill="rgb(18,13,14)" stroke="rgb(18,13,14)" stroke-width="1" opacity="0.9372549019607843" d="M 103.5 189 L 105.5 192 L 103.5 189 Z " /><path fill="rgb(18,13,14)" stroke="rgb(18,13,14)" stroke-width="1" opacity="0.9372549019607843" d="M 51.5 190 L 49 193.5 L 44.5 200 L 46 197.5 L 51.5 190 Z " /><path fill="rgb(18,13,14)" stroke="rgb(18,13,14)" stroke-width="1" opacity="0.9372549019607843" d="M 86.5 191 L 82 196.5 Q 82.8 198.8 80.5 198 L 63 215.5 L 62.5 219 L 62 215.5 L 86.5 191 Z " /><path fill="rgb(18,13,14)" stroke="rgb(18,13,14)" stroke-width="1" opacity="0.9372549019607843" d="M 59.5 192 L 60.5 194 L 59.5 193 L 57 194.5 L 59.5 192 Z " /><path fill="rgb(18,13,14)" stroke="rgb(18,13,14)" stroke-width="1" opacity="0.9372549019607843" d="M 64.5 192 L 65 194.5 L 64 194.5 L 64.5 192 Z " /><path fill="rgb(18,13,14)" stroke="rgb(18,13,14)" stroke-width="1" opacity="0.9372549019607843" d="M 170.5 193 L 171 209 L 175 209.5 L 170 210 L 170.5 193 Z " /><path fill="rgb(18,13,14)" stroke="rgb(18,13,14)" stroke-width="1" opacity="0.9372549019607843" d="M 98.5 196 L 100.5 199 L 98.5 196 Z " /><path fill="rgb(18,13,14)" stroke="rgb(18,13,14)" stroke-width="1" opacity="0.9372549019607843" d="M 68.5 198 L 66.5 201 Q 64.3 201.8 65 199.5 Q 66.8 201.1 68.5 198 Z " /><path fill="rgb(18,13,14)" stroke="rgb(18,13,14)" stroke-width="1" opacity="0.9372549019607843" d="M 36.5 199 L 42 199.5 L 31.5 202 L 32.5 200 L 36.5 199 Z " /><path fill="rgb(18,13,14)" stroke="rgb(18,13,14)" stroke-width="1" opacity="0.9372549019607843" d="M 113.5 199 L 112.5 201 L 111 200.5 L 113.5 199 Z " /><path fill="rgb(18,13,14)" stroke="rgb(18,13,14)" stroke-width="1" opacity="0.9372549019607843" d="M 102.5 200 L 106 202.5 L 103.5 201 L 102.5 200 Z " /><path fill="rgb(18,13,14)" stroke="rgb(18,13,14)" stroke-width="1" opacity="0.9372549019607843" d="M 108.5 201 L 110 201.5 L 107.5 203 L 108.5 201 Z " /><path fill="rgb(18,13,14)" stroke="rgb(18,13,14)" stroke-width="1" opacity="0.9372549019607843" d="M 51.5 203 L 50.5 205 L 51.5 203 Z " /><path fill="rgb(18,13,14)" stroke="rgb(18,13,14)" stroke-width="1" opacity="0.9372549019607843" d="M 29.5 205 L 30 206.5 L 28.5 209 L 28 207.5 L 29.5 205 Z " /><path fill="rgb(18,13,14)" stroke="rgb(18,13,14)" stroke-width="1" opacity="0.9372549019607843" d="M 58.5 205 L 59.5 207 L 58.5 205 Z " /><path fill="rgb(18,13,14)" stroke="rgb(18,13,14)" stroke-width="1" opacity="0.9372549019607843" d="M 39.5 206 L 43 206.5 L 39.5 207 L 39.5 206 Z " /><path fill="rgb(18,13,14)" stroke="rgb(18,13,14)" stroke-width="1" opacity="0.9372549019607843" d="M 50.5 206 L 54.5 211 L 50.5 206 Z " /><path fill="rgb(18,13,14)" stroke="rgb(18,13,14)" stroke-width="1" opacity="0.9372549019607843" d="M 37.5 207 L 36.5 209 L 37.5 207 Z " /><path fill="rgb(18,13,14)" stroke="rgb(18,13,14)" stroke-width="1" opacity="0.9372549019607843" d="M 58.5 208 L 57.5 210 L 58.5 208 Z " /><path fill="rgb(18,13,14)" stroke="rgb(18,13,14)" stroke-width="1" opacity="0.9372549019607843" d="M 47.5 209 L 52.5 215 L 47.5 209 Z " /><path fill="rgb(18,13,14)" stroke="rgb(18,13,14)" stroke-width="1" opacity="0.9372549019607843" d="M 164.5 212 L 165 215 L 178 215.5 L 165.5 216 Q 163 215 164.5 212 Z " /><path fill="rgb(18,13,14)" stroke="rgb(18,13,14)" stroke-width="1" opacity="0.9372549019607843" d="M 29.5 213 L 34 223.5 L 36.5 226 L 46 231.5 L 44.5 232 L 34 226 L 30 217.5 L 29.5 213 Z " /><path fill="rgb(18,13,14)" stroke="rgb(18,13,14)" stroke-width="1" opacity="0.9372549019607843" d="M 184.5 214 L 192 214.5 L 184.5 215 L 184.5 214 Z " /><path fill="rgb(18,13,14)" stroke="rgb(18,13,14)" stroke-width="1" opacity="0.9372549019607843" d="M 39.5 217 L 44.5 223 L 39.5 217 Z " /><path fill="rgb(18,13,14)" stroke="rgb(18,13,14)" stroke-width="1" opacity="0.9372549019607843" d="M 62.5 221 L 63 226.5 L 56.5 233 L 47.5 233 L 47.5 232 Q 58.8 234.3 61 227.5 L 62.5 221 Z " /><path fill="rgb(1,2,2)" stroke="rgb(1,2,2)" stroke-width="1" opacity="0.996078431372549" d="M 217.5 27 Q 222.1 25.6 220 31.5 L 218 42.5 L 216 46.5 L 214 61.5 L 211 70.5 L 173 109.5 L 173 111 L 167 115.5 L 164.5 119 L 156 126.5 L 148.5 135 L 140 141 Q 141.1 143.7 138.5 143 Q 134 145 137.5 147 L 140 145.5 L 125 164 Q 122.3 162.9 123 165.5 L 113 177.5 L 127 190.5 Q 127.8 192.8 125.5 192 L 106.5 203 L 89.5 189 L 62 215.5 L 63 220.5 L 61 227.5 L 56.5 232 L 46.5 232 L 34 223.5 L 28 209.5 L 32.5 201 L 44.5 200 L 47 197.5 L 53.5 188 Q 55.8 188.8 55 186.5 L 69 168.5 L 53 150.5 L 53 148.5 L 63.5 130 L 77.5 143 L 79.5 143 L 84.5 137 L 92 130.5 L 99.5 122 L 107 115.5 L 114 106 L 122 99.5 L 126 91.5 L 145 72.5 L 145 71 Q 147.7 72.1 147 69.5 L 172 44.5 L 172 43 L 174 43 Q 172.9 40.3 175.5 41 L 180.5 37 L 217.5 27 Z M 211 35 L 181 44 L 115 114 Q 116 117 112 115 L 112 117 L 83 149 L 91 158 Q 90 160 93 159 L 139 112 Q 138 109 141 110 L 165 84 L 184 66 L 98 163 L 98 165 L 106 172 L 205 67 L 212 38 Q 213 34 211 35 Z M 67 139 L 62 148 L 68 157 L 94 181 Q 96 180 95 183 L 106 192 L 109 192 L 116 189 L 93 167 L 67 139 Z M 76 175 L 77 191 L 78 188 L 82 186 L 82 182 L 79 178 L 76 175 Z M 71 180 L 64 187 L 64 195 L 65 196 Q 64 202 67 201 L 72 195 L 72 181 L 71 180 Z M 60 192 L 54 200 Q 57 203 63 203 L 62 197 L 60 192 Z M 52 203 L 50 205 L 50 207 L 55 211 L 58 210 L 60 207 Q 57 203 52 203 Z M 40 206 L 36 209 Q 35 215 39 218 L 49 225 Q 54 226 55 223 Q 56 217 53 215 L 45 207 L 40 206 Z " /><path fill="rgb(1,2,2)" stroke="rgb(1,2,2)" stroke-width="1" opacity="0.996078431372549" d="M 182.5 115 L 221 169.5 L 200 170 L 200 214.5 L 199.5 215 L 192.5 215 Q 190.8 212.3 184.5 214 L 183.5 215 L 165 215 L 166 208.5 L 166 188.5 L 165 186.5 L 165 184.5 L 166 179.5 L 166 177.5 L 165 174.5 L 166 172.5 L 165 170 L 144.5 171 L 146 168.5 L 182.5 115 Z M 183 125 L 157 162 L 156 165 L 171 164 L 170 210 L 176 209 L 195 209 L 195 187 L 194 186 L 195 181 L 195 179 Q 196 174 194 173 L 195 171 L 194 164 L 210 164 L 184 127 Q 185 124 183 125 Z " /><path fill="rgb(149,139,138)" stroke="rgb(149,139,138)" stroke-width="1" opacity="0.1803921568627451" d="M 175.5 38 L 172.5 42 L 175.5 38 Z " /><path fill="rgb(149,139,138)" stroke="rgb(149,139,138)" stroke-width="1" opacity="0.1803921568627451" d="M 162.5 52 L 145.5 70 L 162.5 52 Z " /><path fill="rgb(149,139,138)" stroke="rgb(149,139,138)" stroke-width="1" opacity="0.1803921568627451" d="M 216.5 52 L 217 54.5 L 216 54.5 L 216.5 52 Z " /><path fill="rgb(149,139,138)" stroke="rgb(149,139,138)" stroke-width="1" opacity="0.1803921568627451" d="M 143.5 71 L 139.5 76 L 143.5 71 Z " /><path fill="rgb(149,139,138)" stroke="rgb(149,139,138)" stroke-width="1" opacity="0.1803921568627451" d="M 210.5 72 L 207.5 76 L 210.5 72 Z " /><path fill="rgb(149,139,138)" stroke="rgb(149,139,138)" stroke-width="1" opacity="0.1803921568627451" d="M 205.5 77 L 204.5 79 L 205.5 77 Z " /><path fill="rgb(149,139,138)" stroke="rgb(149,139,138)" stroke-width="1" opacity="0.1803921568627451" d="M 128.5 87 L 127.5 89 L 128.5 87 Z " /><path fill="rgb(149,139,138)" stroke="rgb(149,139,138)" stroke-width="1" opacity="0.1803921568627451" d="M 196.5 87 L 190.5 94 L 196.5 87 Z " /><path fill="rgb(149,139,138)" stroke="rgb(149,139,138)" stroke-width="1" opacity="0.1803921568627451" d="M 121.5 96 L 122 97.5 L 120 98.5 L 121.5 96 Z " /><path fill="rgb(149,139,138)" stroke="rgb(149,139,138)" stroke-width="1" opacity="0.1803921568627451" d="M 109.5 110 L 107.5 113 L 109.5 110 Z " /><path fill="rgb(149,139,138)" stroke="rgb(149,139,138)" stroke-width="1" opacity="0.1803921568627451" d="M 182.5 113 L 184 113.5 L 181.5 115 L 182.5 113 Z " /><path fill="rgb(149,139,138)" stroke="rgb(149,139,138)" stroke-width="1" opacity="0.1803921568627451" d="M 105.5 114 L 103.5 117 L 105.5 114 Z " /><path fill="rgb(149,139,138)" stroke="rgb(149,139,138)" stroke-width="1" opacity="0.1803921568627451" d="M 184.5 115 L 185.5 117 L 184.5 115 Z " /><path fill="rgb(149,139,138)" stroke="rgb(149,139,138)" stroke-width="1" opacity="0.1803921568627451" d="M 100.5 119 L 86.5 134 L 100.5 119 Z " /><path fill="rgb(149,139,138)" stroke="rgb(149,139,138)" stroke-width="1" opacity="0.1803921568627451" d="M 177.5 120 L 176.5 122 L 177.5 120 Z " /><path fill="rgb(149,139,138)" stroke="rgb(149,139,138)" stroke-width="1" opacity="0.1803921568627451" d="M 173.5 126 L 172.5 128 L 173.5 126 Z " /><path fill="rgb(149,139,138)" stroke="rgb(149,139,138)" stroke-width="1" opacity="0.1803921568627451" d="M 64.5 128 L 65.5 130 L 64.5 128 Z " /><path fill="rgb(149,139,138)" stroke="rgb(149,139,138)" stroke-width="1" opacity="0.1803921568627451" d="M 156.5 128 L 152.5 133 L 156.5 128 Z " /><path fill="rgb(149,139,138)" stroke="rgb(149,139,138)" stroke-width="1" opacity="0.1803921568627451" d="M 193.5 128 L 194.5 130 L 193.5 128 Z " /><path fill="rgb(149,139,138)" stroke="rgb(149,139,138)" stroke-width="1" opacity="0.1803921568627451" d="M 170.5 130 L 169.5 132 L 170.5 130 Z " /><path fill="rgb(149,139,138)" stroke="rgb(149,139,138)" stroke-width="1" opacity="0.1803921568627451" d="M 67.5 131 L 74.5 139 L 67.5 131 Z " /><path fill="rgb(149,139,138)" stroke="rgb(149,139,138)" stroke-width="1" opacity="0.1803921568627451" d="M 168.5 133 L 167.5 135 L 168.5 133 Z " /><path fill="rgb(149,139,138)" stroke="rgb(149,139,138)" stroke-width="1" opacity="0.1803921568627451" d="M 165.5 137 L 164.5 139 L 165.5 137 Z " /><path fill="rgb(149,139,138)" stroke="rgb(149,139,138)" stroke-width="1" opacity="0.1803921568627451" d="M 144.5 140 Q 146.8 139.3 146 141.5 L 144.5 140 Z " /><path fill="rgb(149,139,138)" stroke="rgb(149,139,138)" stroke-width="1" opacity="0.1803921568627451" d="M 163.5 140 L 162.5 142 L 163.5 140 Z " /><path fill="rgb(149,139,138)" stroke="rgb(149,139,138)" stroke-width="1" opacity="0.1803921568627451" d="M 142.5 141 L 141.5 143 L 142.5 141 Z " /><path fill="rgb(149,139,138)" stroke="rgb(149,139,138)" stroke-width="1" opacity="0.1803921568627451" d="M 204.5 144 L 205.5 146 L 204.5 144 Z " /><path fill="rgb(149,139,138)" stroke="rgb(149,139,138)" stroke-width="1" opacity="0.1803921568627451" d="M 53.5 146 L 52.5 148 L 53.5 146 Z " /><path fill="rgb(149,139,138)" stroke="rgb(149,139,138)" stroke-width="1" opacity="0.1803921568627451" d="M 141.5 146 L 138.5 150 L 141.5 146 Z " /><path fill="rgb(149,139,138)" stroke="rgb(149,139,138)" stroke-width="1" opacity="0.1803921568627451" d="M 156.5 150 L 155.5 152 L 156.5 150 Z " /><path fill="rgb(149,139,138)" stroke="rgb(149,139,138)" stroke-width="1" opacity="0.1803921568627451" d="M 52.5 151 L 53.5 153 L 52.5 151 Z " /><path fill="rgb(149,139,138)" stroke="rgb(149,139,138)" stroke-width="1" opacity="0.1803921568627451" d="M 154.5 153 L 153.5 155 L 154.5 153 Z " /><path fill="rgb(149,139,138)" stroke="rgb(149,139,138)" stroke-width="1" opacity="0.1803921568627451" d="M 211.5 154 L 212.5 156 L 211.5 154 Z " /><path fill="rgb(149,139,138)" stroke="rgb(149,139,138)" stroke-width="1" opacity="0.1803921568627451" d="M 214.5 158 L 215.5 160 L 214.5 158 Z " /><path fill="rgb(149,139,138)" stroke="rgb(149,139,138)" stroke-width="1" opacity="0.1803921568627451" d="M 60.5 160 L 61.5 162 L 60.5 160 Z " /><path fill="rgb(149,139,138)" stroke="rgb(149,139,138)" stroke-width="1" opacity="0.1803921568627451" d="M 218.5 164 L 219.5 166 L 218.5 164 Z " /><path fill="rgb(149,139,138)" stroke="rgb(149,139,138)" stroke-width="1" opacity="0.1803921568627451" d="M 124.5 165 L 122.5 168 L 124.5 165 Z " /><path fill="rgb(149,139,138)" stroke="rgb(149,139,138)" stroke-width="1" opacity="0.1803921568627451" d="M 144.5 168 L 143.5 170 L 144.5 168 Z " /><path fill="rgb(149,139,138)" stroke="rgb(149,139,138)" stroke-width="1" opacity="0.1803921568627451" d="M 154.5 171 L 161 171.5 L 154.5 172 L 154.5 171 Z " /><path fill="rgb(149,139,138)" stroke="rgb(149,139,138)" stroke-width="1" opacity="0.1803921568627451" d="M 201.5 171 L 202 212.5 L 201 212.5 L 201.5 171 Z " /><path fill="rgb(149,139,138)" stroke="rgb(149,139,138)" stroke-width="1" opacity="0.1803921568627451" d="M 164.5 175 L 165 185.5 L 164 185.5 L 164.5 175 Z " /><path fill="rgb(149,139,138)" stroke="rgb(149,139,138)" stroke-width="1" opacity="0.1803921568627451" d="M 54.5 185 L 53.5 187 L 54.5 185 Z " /><path fill="rgb(149,139,138)" stroke="rgb(149,139,138)" stroke-width="1" opacity="0.1803921568627451" d="M 123.5 185 L 125.5 188 L 123.5 185 Z " /><path fill="rgb(149,139,138)" stroke="rgb(149,139,138)" stroke-width="1" opacity="0.1803921568627451" d="M 164.5 189 L 165 193.5 L 164 193.5 L 164.5 189 Z " /><path fill="rgb(149,139,138)" stroke="rgb(149,139,138)" stroke-width="1" opacity="0.1803921568627451" d="M 49.5 191 L 48.5 193 L 49.5 191 Z " /><path fill="rgb(149,139,138)" stroke="rgb(149,139,138)" stroke-width="1" opacity="0.1803921568627451" d="M 91.5 191 L 94.5 195 L 91.5 191 Z " /><path fill="rgb(149,139,138)" stroke="rgb(149,139,138)" stroke-width="1" opacity="0.1803921568627451" d="M 125.5 193 L 124.5 195 L 125.5 193 Z " /><path fill="rgb(149,139,138)" stroke="rgb(149,139,138)" stroke-width="1" opacity="0.1803921568627451" d="M 47.5 194 L 46.5 196 L 47.5 194 Z " /><path fill="rgb(149,139,138)" stroke="rgb(149,139,138)" stroke-width="1" opacity="0.1803921568627451" d="M 99.5 198 L 100.5 200 L 99.5 198 Z " /><path fill="rgb(149,139,138)" stroke="rgb(149,139,138)" stroke-width="1" opacity="0.1803921568627451" d="M 164.5 199 L 165 204.5 L 164 204.5 L 164.5 199 Z " /><path fill="rgb(149,139,138)" stroke="rgb(149,139,138)" stroke-width="1" opacity="0.1803921568627451" d="M 75.5 203 L 73.5 206 L 75.5 203 Z " /><path fill="rgb(149,139,138)" stroke="rgb(149,139,138)" stroke-width="1" opacity="0.1803921568627451" d="M 164.5 207 L 165 210.5 L 164 210.5 L 164.5 207 Z " /><path fill="rgb(149,139,138)" stroke="rgb(149,139,138)" stroke-width="1" opacity="0.1803921568627451" d="M 67.5 211 L 66.5 213 L 67.5 211 Z " /><path fill="rgb(149,139,138)" stroke="rgb(149,139,138)" stroke-width="1" opacity="0.1803921568627451" d="M 183.5 215 L 190 215.5 L 183.5 216 L 183.5 215 Z " /><path fill="rgb(149,139,138)" stroke="rgb(149,139,138)" stroke-width="1" opacity="0.1803921568627451" d="M 63.5 222 L 64 225.5 L 63 225.5 L 63.5 222 Z " /><path fill="rgb(149,139,138)" stroke="rgb(149,139,138)" stroke-width="1" opacity="0.1803921568627451" d="M 33.5 224 L 35 226.5 L 33 225.5 L 33.5 224 Z " /><path fill="rgb(149,139,138)" stroke="rgb(149,139,138)" stroke-width="1" opacity="0.1803921568627451" d="M 59.5 230 L 57.5 233 L 59.5 230 Z " /></svg>