<svg width="256" height="256" version="1.1" xmlns="http://www.w3.org/2000/svg" desc="Created with imagetracer.js version 1.2.6" ><path fill="rgb(77,76,77)" stroke="rgb(77,76,77)" stroke-width="1" opacity="0.13333333333333333" d="M 118.5 27 L 128 27.5 L 119.5 28 L 118 29.5 L 112.5 42 L 112 40.5 L 118.5 27 Z " /><path fill="rgb(77,76,77)" stroke="rgb(77,76,77)" stroke-width="1" opacity="0.13333333333333333" d="M 131.5 27 L 134 27.5 L 131.5 28 L 131.5 27 Z " /><path fill="rgb(77,76,77)" stroke="rgb(77,76,77)" stroke-width="1" opacity="0.13333333333333333" d="M 146.5 27 L 150 27.5 L 146.5 28 L 146.5 27 Z " /><path fill="rgb(77,76,77)" stroke="rgb(77,76,77)" stroke-width="1" opacity="0.13333333333333333" d="M 189.5 27 L 192 27.5 L 189.5 28 L 189.5 27 Z " /><path fill="rgb(77,76,77)" stroke="rgb(77,76,77)" stroke-width="1" opacity="0.13333333333333333" d="M 195.5 27 L 201 27 L 201 29.5 L 198 31.5 L 200 28 L 195.5 28 L 195.5 27 Z " /><path fill="rgb(77,76,77)" stroke="rgb(77,76,77)" stroke-width="1" opacity="0.13333333333333333" d="M 151.5 28 L 156 28.5 L 151.5 29 L 151.5 28 Z " /><path fill="rgb(77,76,77)" stroke="rgb(77,76,77)" stroke-width="1" opacity="0.13333333333333333" d="M 169.5 28 L 173 28.5 L 169.5 29 L 169.5 28 Z " /><path fill="rgb(77,76,77)" stroke="rgb(77,76,77)" stroke-width="1" opacity="0.13333333333333333" d="M 180.5 28 L 187 28.5 L 179.5 30 L 180.5 28 Z " /><path fill="rgb(77,76,77)" stroke="rgb(77,76,77)" stroke-width="1" opacity="0.13333333333333333" d="M 197.5 33 L 198 35 L 195.5 36 L 197.5 33 Z " /><path fill="rgb(77,76,77)" stroke="rgb(77,76,77)" stroke-width="1" opacity="0.13333333333333333" d="M 192.5 40 L 191.5 42 L 192.5 40 Z " /><path fill="rgb(77,76,77)" stroke="rgb(77,76,77)" stroke-width="1" opacity="0.13333333333333333" d="M 190.5 43 L 190 44.5 L 169 76.5 L 152.5 98 L 153 96.5 L 190.5 43 Z " /><path fill="rgb(77,76,77)" stroke="rgb(77,76,77)" stroke-width="1" opacity="0.13333333333333333" d="M 110.5 45 L 111 46.5 L 108.5 50 L 109 48.5 L 110.5 45 Z " /><path fill="rgb(77,76,77)" stroke="rgb(77,76,77)" stroke-width="1" opacity="0.13333333333333333" d="M 104.5 57 L 105 58.5 L 103 59.5 L 104.5 57 Z " /><path fill="rgb(77,76,77)" stroke="rgb(77,76,77)" stroke-width="1" opacity="0.13333333333333333" d="M 102.5 61 L 103 62.5 L 101.5 65 L 101 63.5 L 102.5 61 Z " /><path fill="rgb(77,76,77)" stroke="rgb(77,76,77)" stroke-width="1" opacity="0.13333333333333333" d="M 100.5 66 L 101 67.5 L 98.5 72 L 98 70.5 L 100.5 66 Z " /><path fill="rgb(77,76,77)" stroke="rgb(77,76,77)" stroke-width="1" opacity="0.13333333333333333" d="M 97.5 73 L 98 74.5 L 89 99.5 L 82.5 108 L 82 106.5 L 88 98.5 L 96 78.5 L 96 76.5 L 97.5 73 Z " /><path fill="rgb(77,76,77)" stroke="rgb(77,76,77)" stroke-width="1" opacity="0.13333333333333333" d="M 170.5 98 L 173.5 99 L 199 99.5 L 168 100 Q 169.3 103.7 163.5 102 L 163.5 101 L 167 101 Q 165.8 98 169.5 99 L 170.5 98 Z " /><path fill="rgb(77,76,77)" stroke="rgb(77,76,77)" stroke-width="1" opacity="0.13333333333333333" d="M 151.5 99 L 154 100.5 L 150.5 101 L 151.5 99 Z " /><path fill="rgb(77,76,77)" stroke="rgb(77,76,77)" stroke-width="1" opacity="0.13333333333333333" d="M 202.5 99 L 203 102.5 L 196 108.5 Q 200.8 105.3 202.5 99 Z " /><path fill="rgb(77,76,77)" stroke="rgb(77,76,77)" stroke-width="1" opacity="0.13333333333333333" d="M 156.5 100 L 161 101.5 L 158.5 102 L 156.5 100 Z " /><path fill="rgb(77,76,77)" stroke="rgb(77,76,77)" stroke-width="1" opacity="0.13333333333333333" d="M 194.5 110 L 195 111.5 L 181.5 126 L 185 121.5 L 194.5 110 Z " /><path fill="rgb(77,76,77)" stroke="rgb(77,76,77)" stroke-width="1" opacity="0.13333333333333333" d="M 78.5 115 L 78 116.5 L 77.5 118 L 77 116.5 L 78.5 115 Z " /><path fill="rgb(77,76,77)" stroke="rgb(77,76,77)" stroke-width="1" opacity="0.13333333333333333" d="M 74.5 123 L 75 124.5 L 73.5 127 L 73 125.5 L 74.5 123 Z " /><path fill="rgb(77,76,77)" stroke="rgb(77,76,77)" stroke-width="1" opacity="0.13333333333333333" d="M 179.5 127 L 180 128.5 L 176 131.5 L 179.5 127 Z " /><path fill="rgb(77,76,77)" stroke="rgb(77,76,77)" stroke-width="1" opacity="0.13333333333333333" d="M 71.5 130 L 72 131.5 L 70.5 135 L 70 132.5 L 71.5 130 Z " /><path fill="rgb(77,76,77)" stroke="rgb(77,76,77)" stroke-width="1" opacity="0.13333333333333333" d="M 182.5 132 L 184 132.5 L 181.5 134 L 182.5 132 Z " /><path fill="rgb(77,76,77)" stroke="rgb(77,76,77)" stroke-width="1" opacity="0.13333333333333333" d="M 174.5 133 L 175 134.5 L 172.5 136 L 174.5 133 Z " /><path fill="rgb(77,76,77)" stroke="rgb(77,76,77)" stroke-width="1" opacity="0.13333333333333333" d="M 184.5 134 L 185.5 136 L 184.5 134 Z " /><path fill="rgb(77,76,77)" stroke="rgb(77,76,77)" stroke-width="1" opacity="0.13333333333333333" d="M 180.5 135 L 179.5 137 L 180.5 135 Z " /><path fill="rgb(77,76,77)" stroke="rgb(77,76,77)" stroke-width="1" opacity="0.13333333333333333" d="M 69.5 136 L 70 137.5 L 68.5 140 L 68 138.5 L 69.5 136 Z " /><path fill="rgb(77,76,77)" stroke="rgb(77,76,77)" stroke-width="1" opacity="0.13333333333333333" d="M 171.5 137 L 160.5 149 Q 158.3 148.3 159 150.5 L 154 154.5 L 163.5 144 L 171.5 137 Z " /><path fill="rgb(77,76,77)" stroke="rgb(77,76,77)" stroke-width="1" opacity="0.13333333333333333" d="M 186.5 137 L 187.5 139 L 186.5 137 Z " /><path fill="rgb(77,76,77)" stroke="rgb(77,76,77)" stroke-width="1" opacity="0.13333333333333333" d="M 178.5 138 L 176.5 141 L 178.5 138 Z " /><path fill="rgb(77,76,77)" stroke="rgb(77,76,77)" stroke-width="1" opacity="0.13333333333333333" d="M 188.5 140 L 189.5 142 L 188.5 140 Z " /><path fill="rgb(77,76,77)" stroke="rgb(77,76,77)" stroke-width="1" opacity="0.13333333333333333" d="M 67.5 141 L 68 142.5 L 66.5 145 L 66 143.5 L 67.5 141 Z " /><path fill="rgb(77,76,77)" stroke="rgb(77,76,77)" stroke-width="1" opacity="0.13333333333333333" d="M 175.5 142 L 174.5 144 L 175.5 142 Z " /><path fill="rgb(77,76,77)" stroke="rgb(77,76,77)" stroke-width="1" opacity="0.13333333333333333" d="M 190.5 143 L 191.5 145 L 190.5 143 Z " /><path fill="rgb(77,76,77)" stroke="rgb(77,76,77)" stroke-width="1" opacity="0.13333333333333333" d="M 173.5 145 L 172.5 147 L 173.5 145 Z " /><path fill="rgb(77,76,77)" stroke="rgb(77,76,77)" stroke-width="1" opacity="0.13333333333333333" d="M 192.5 146 L 194.5 149 L 192.5 146 Z " /><path fill="rgb(77,76,77)" stroke="rgb(77,76,77)" stroke-width="1" opacity="0.13333333333333333" d="M 108.5 147 L 109 150.5 L 108 150.5 L 107.5 149 L 100.5 149 L 100.5 148 Q 106.7 149.8 108.5 147 Z " /><path fill="rgb(77,76,77)" stroke="rgb(77,76,77)" stroke-width="1" opacity="0.13333333333333333" d="M 90.5 148 L 99 148.5 Q 94.9 150.9 87.5 150 L 87.5 149 L 90.5 148 Z " /><path fill="rgb(77,76,77)" stroke="rgb(77,76,77)" stroke-width="1" opacity="0.13333333333333333" d="M 171.5 148 L 169.5 151 L 171.5 148 Z " /><path fill="rgb(77,76,77)" stroke="rgb(77,76,77)" stroke-width="1" opacity="0.13333333333333333" d="M 79.5 149 L 86 149.5 L 82.5 151 L 64.5 152 L 64.5 151 L 78.5 150 L 79.5 149 Z " /><path fill="rgb(77,76,77)" stroke="rgb(77,76,77)" stroke-width="1" opacity="0.13333333333333333" d="M 195.5 150 L 196.5 152 L 195.5 150 Z " /><path fill="rgb(77,76,77)" stroke="rgb(77,76,77)" stroke-width="1" opacity="0.13333333333333333" d="M 168.5 152 L 167.5 154 L 168.5 152 Z " /><path fill="rgb(77,76,77)" stroke="rgb(77,76,77)" stroke-width="1" opacity="0.13333333333333333" d="M 197.5 153 L 198.5 155 L 197.5 153 Z " /><path fill="rgb(77,76,77)" stroke="rgb(77,76,77)" stroke-width="1" opacity="0.13333333333333333" d="M 153.5 156 L 151.5 159 L 153.5 156 Z " /><path fill="rgb(77,76,77)" stroke="rgb(77,76,77)" stroke-width="1" opacity="0.13333333333333333" d="M 199.5 156 L 200.5 158 L 199.5 156 Z " /><path fill="rgb(77,76,77)" stroke="rgb(77,76,77)" stroke-width="1" opacity="0.13333333333333333" d="M 163.5 159 L 162.5 161 L 163.5 159 Z " /><path fill="rgb(77,76,77)" stroke="rgb(77,76,77)" stroke-width="1" opacity="0.13333333333333333" d="M 201.5 159 L 202.5 161 L 201.5 159 Z " /><path fill="rgb(77,76,77)" stroke="rgb(77,76,77)" stroke-width="1" opacity="0.13333333333333333" d="M 149.5 162 L 145.5 167 L 149.5 162 Z " /><path fill="rgb(77,76,77)" stroke="rgb(77,76,77)" stroke-width="1" opacity="0.13333333333333333" d="M 161.5 162 L 160.5 164 L 161.5 162 Z " /><path fill="rgb(77,76,77)" stroke="rgb(77,76,77)" stroke-width="1" opacity="0.13333333333333333" d="M 203.5 162 L 205.5 165 L 203.5 162 Z " /><path fill="rgb(77,76,77)" stroke="rgb(77,76,77)" stroke-width="1" opacity="0.13333333333333333" d="M 206.5 166 L 207.5 168 L 206.5 166 Z " /><path fill="rgb(77,76,77)" stroke="rgb(77,76,77)" stroke-width="1" opacity="0.13333333333333333" d="M 102.5 168 L 103 170.5 L 101.5 174 L 101 171.5 L 102.5 168 Z " /><path fill="rgb(77,76,77)" stroke="rgb(77,76,77)" stroke-width="1" opacity="0.13333333333333333" d="M 142.5 169 L 144 169.5 L 122.5 195 L 125 191.5 L 142.5 169 Z " /><path fill="rgb(77,76,77)" stroke="rgb(77,76,77)" stroke-width="1" opacity="0.13333333333333333" d="M 156.5 169 L 156 170.5 L 153.5 174 L 155 171.5 L 156.5 169 Z " /><path fill="rgb(77,76,77)" stroke="rgb(77,76,77)" stroke-width="1" opacity="0.13333333333333333" d="M 208.5 169 L 209.5 171 L 208.5 169 Z " /><path fill="rgb(77,76,77)" stroke="rgb(77,76,77)" stroke-width="1" opacity="0.13333333333333333" d="M 210.5 172 L 212.5 175 L 210.5 172 Z " /><path fill="rgb(77,76,77)" stroke="rgb(77,76,77)" stroke-width="1" opacity="0.13333333333333333" d="M 152.5 175 L 151.5 177 L 152.5 175 Z " /><path fill="rgb(77,76,77)" stroke="rgb(77,76,77)" stroke-width="1" opacity="0.13333333333333333" d="M 213.5 176 L 215.5 179 L 213.5 176 Z " /><path fill="rgb(77,76,77)" stroke="rgb(77,76,77)" stroke-width="1" opacity="0.13333333333333333" d="M 150.5 178 L 149.5 180 L 150.5 178 Z " /><path fill="rgb(77,76,77)" stroke="rgb(77,76,77)" stroke-width="1" opacity="0.13333333333333333" d="M 216.5 180 L 217.5 182 L 216.5 180 Z " /><path fill="rgb(77,76,77)" stroke="rgb(77,76,77)" stroke-width="1" opacity="0.13333333333333333" d="M 148.5 181 L 147.5 183 L 148.5 181 Z " /><path fill="rgb(77,76,77)" stroke="rgb(77,76,77)" stroke-width="1" opacity="0.13333333333333333" d="M 97.5 183 L 98 184.5 L 95 185.5 L 80.5 228 L 80 225.5 L 93 186.5 L 95.5 184 L 97 184.5 L 97.5 183 Z " /><path fill="rgb(77,76,77)" stroke="rgb(77,76,77)" stroke-width="1" opacity="0.13333333333333333" d="M 218.5 183 L 219.5 185 L 218.5 183 Z " /><path fill="rgb(77,76,77)" stroke="rgb(77,76,77)" stroke-width="1" opacity="0.13333333333333333" d="M 146.5 184 L 145.5 186 L 146.5 184 Z " /><path fill="rgb(77,76,77)" stroke="rgb(77,76,77)" stroke-width="1" opacity="0.13333333333333333" d="M 220.5 186 L 221.5 188 L 220.5 186 Z " /><path fill="rgb(77,76,77)" stroke="rgb(77,76,77)" stroke-width="1" opacity="0.13333333333333333" d="M 144.5 187 L 143.5 189 L 144.5 187 Z " /><path fill="rgb(77,76,77)" stroke="rgb(77,76,77)" stroke-width="1" opacity="0.13333333333333333" d="M 152.5 190 L 165 190 L 165 205.5 L 164 205.5 L 164 191 L 152.5 191 L 152.5 190 Z " /><path fill="rgb(77,76,77)" stroke="rgb(77,76,77)" stroke-width="1" opacity="0.13333333333333333" d="M 201.5 190 L 202 232.5 L 201 232.5 L 201.5 190 Z " /><path fill="rgb(77,76,77)" stroke="rgb(77,76,77)" stroke-width="1" opacity="0.13333333333333333" d="M 121.5 196 L 119.5 199 L 121.5 196 Z " /><path fill="rgb(77,76,77)" stroke="rgb(77,76,77)" stroke-width="1" opacity="0.13333333333333333" d="M 116.5 201 L 108 210.5 L 106.5 213 L 106 211.5 L 116.5 201 Z " /><path fill="rgb(77,76,77)" stroke="rgb(77,76,77)" stroke-width="1" opacity="0.13333333333333333" d="M 164.5 207 L 165 212.5 L 164 212.5 L 164.5 207 Z " /><path fill="rgb(77,76,77)" stroke="rgb(77,76,77)" stroke-width="1" opacity="0.13333333333333333" d="M 104.5 214 L 103.5 216 L 104.5 214 Z " /><path fill="rgb(77,76,77)" stroke="rgb(77,76,77)" stroke-width="1" opacity="0.13333333333333333" d="M 101.5 217 L 98.5 221 L 101.5 217 Z " /><path fill="rgb(77,76,77)" stroke="rgb(77,76,77)" stroke-width="1" opacity="0.13333333333333333" d="M 164.5 218 L 165 230.5 L 164 230.5 L 164.5 218 Z " /><path fill="rgb(77,76,77)" stroke="rgb(77,76,77)" stroke-width="1" opacity="0.13333333333333333" d="M 95.5 223 L 89.5 230 L 95.5 223 Z " /><path fill="rgb(77,76,77)" stroke="rgb(77,76,77)" stroke-width="1" opacity="0.13333333333333333" d="M 79.5 229 L 80 231.5 L 78.5 234 L 78 232.5 L 79.5 229 Z " /><path fill="rgb(77,76,77)" stroke="rgb(77,76,77)" stroke-width="1" opacity="0.13333333333333333" d="M 87.5 232 L 82.5 238 L 87.5 232 Z " /><path fill="rgb(77,76,77)" stroke="rgb(77,76,77)" stroke-width="1" opacity="0.13333333333333333" d="M 180.5 234 L 192 234.5 L 180.5 235 L 180.5 234 Z " /><path fill="rgb(77,76,77)" stroke="rgb(77,76,77)" stroke-width="1" opacity="0.13333333333333333" d="M 195.5 234 L 198 234.5 L 195.5 235 L 195.5 234 Z " /><path fill="rgb(77,76,77)" stroke="rgb(77,76,77)" stroke-width="1" opacity="0.13333333333333333" d="M 77.5 235 L 78 237.5 L 77 237.5 L 77.5 235 Z " /><path fill="rgb(77,76,77)" stroke="rgb(77,76,77)" stroke-width="1" opacity="0.13333333333333333" d="M 80.5 238 L 79.5 240 L 80.5 238 Z " /><path fill="rgb(242,185,7)" stroke="rgb(242,185,7)" stroke-width="1" opacity="0.9803921568627451" d="M 128.5 27 L 131 27.5 L 128.5 28 L 128.5 27 Z " /><path fill="rgb(242,185,7)" stroke="rgb(242,185,7)" stroke-width="1" opacity="0.9803921568627451" d="M 125.5 39 L 152.5 39 L 153.5 40 L 162.5 40 L 163.5 39 L 178 39 L 159 71.5 L 139 97.5 L 132 111 L 139.5 111 L 140.5 112 L 153.5 112 L 161.5 110 L 178 110 L 161 133.5 L 97.5 208 L 97 206.5 Q 113.3 172.6 126 136 L 84.5 140 L 80 139 L 125.5 39 Z " /><path fill="rgb(242,185,7)" stroke="rgb(242,185,7)" stroke-width="1" opacity="0.9803921568627451" d="M 182.5 145 Q 184.8 144.3 184 146.5 L 209 183 L 194 183 L 194 228 L 171 228 L 172 183 L 157.5 183 L 157 181.5 L 182.5 145 Z " /><path fill="rgb(0,0,0)" stroke="rgb(0,0,0)" stroke-width="1" opacity="0" d="M 0 0 L 256 0 L 256 256 L 0 256 L 0 0 Z M 119 27 L 96 77 L 96 79 L 88 99 L 83 105 L 84 107 L 83 106 L 70 133 L 70 136 L 64 149 L 64 152 L 86 150 L 88 150 Q 96 151 100 148 L 101 149 L 108 149 L 97 185 L 96 184 L 93 187 L 85 210 L 77 236 L 77 240 L 83 238 L 96 223 L 99 221 L 102 218 L 101 217 L 105 215 Q 104 212 107 213 L 117 201 L 120 199 L 137 177 L 150 163 L 159 149 L 161 149 L 172 138 Q 171 135 174 136 L 175 132 L 180 129 Q 179 125 182 126 L 195 112 Q 194 108 197 109 L 203 103 L 203 100 L 202 100 L 199 99 L 174 99 L 173 98 L 170 99 Q 166 98 167 101 L 163 102 L 159 100 L 156 101 L 152 100 L 195 37 L 198 35 L 201 27 L 195 28 L 192 27 L 181 28 L 178 30 L 173 28 L 163 30 L 150 27 L 119 27 Z M 183 132 L 143 189 L 144 191 L 164 191 L 164 206 L 164 208 Q 163 212 165 214 L 164 219 L 164 234 L 166 235 L 192 235 L 193 234 L 196 235 L 201 234 L 202 233 L 203 189 L 204 190 L 222 190 L 222 188 L 216 179 L 184 134 Q 185 131 183 132 Z " /><path fill="rgb(49,44,25)" stroke="rgb(49,44,25)" stroke-width="1" opacity="0.7764705882352941" d="M 134.5 27 L 137 27.5 L 134.5 29 L 119 29 L 111.5 46 L 111 44.5 L 119.5 28 L 133.5 28 L 134.5 27 Z " /><path fill="rgb(49,44,25)" stroke="rgb(49,44,25)" stroke-width="1" opacity="0.7764705882352941" d="M 144.5 27 L 157 29.5 L 151.5 30 Q 150.3 27.8 145.5 29 L 144.5 27 Z " /><path fill="rgb(49,44,25)" stroke="rgb(49,44,25)" stroke-width="1" opacity="0.7764705882352941" d="M 187.5 28 L 192 28.5 L 180.5 30 L 180.5 29 Q 186 30.5 187.5 28 Z " /><path fill="rgb(49,44,25)" stroke="rgb(49,44,25)" stroke-width="1" opacity="0.7764705882352941" d="M 195.5 28 Q 200.9 26.1 200 29.5 L 198 30.5 L 198.5 29 Q 194.5 29.8 195.5 28 Z " /><path fill="rgb(49,44,25)" stroke="rgb(49,44,25)" stroke-width="1" opacity="0.7764705882352941" d="M 163.5 29 L 174 29.5 L 163.5 30 L 163.5 29 Z " /><path fill="rgb(49,44,25)" stroke="rgb(49,44,25)" stroke-width="1" opacity="0.7764705882352941" d="M 197.5 32 L 195.5 35 L 197.5 32 Z " /><path fill="rgb(49,44,25)" stroke="rgb(49,44,25)" stroke-width="1" opacity="0.7764705882352941" d="M 194.5 36 L 194 37.5 L 191.5 41 L 193 38.5 L 194.5 36 Z " /><path fill="rgb(49,44,25)" stroke="rgb(49,44,25)" stroke-width="1" opacity="0.7764705882352941" d="M 168.5 38 L 174 38.5 L 168.5 39 L 168.5 38 Z " /><path fill="rgb(49,44,25)" stroke="rgb(49,44,25)" stroke-width="1" opacity="0.7764705882352941" d="M 153.5 39 L 163 39.5 L 153.5 40 L 153.5 39 Z " /><path fill="rgb(49,44,25)" stroke="rgb(49,44,25)" stroke-width="1" opacity="0.7764705882352941" d="M 178.5 39 L 179 40.5 L 177 41.5 L 178.5 39 Z " /><path fill="rgb(49,44,25)" stroke="rgb(49,44,25)" stroke-width="1" opacity="0.7764705882352941" d="M 190.5 42 L 189.5 44 L 190.5 42 Z " /><path fill="rgb(49,44,25)" stroke="rgb(49,44,25)" stroke-width="1" opacity="0.7764705882352941" d="M 176.5 43 L 175.5 45 L 176.5 43 Z " /><path fill="rgb(49,44,25)" stroke="rgb(49,44,25)" stroke-width="1" opacity="0.7764705882352941" d="M 188.5 45 L 187.5 47 L 188.5 45 Z " /><path fill="rgb(49,44,25)" stroke="rgb(49,44,25)" stroke-width="1" opacity="0.7764705882352941" d="M 174.5 46 L 173.5 48 L 174.5 46 Z " /><path fill="rgb(49,44,25)" stroke="rgb(49,44,25)" stroke-width="1" opacity="0.7764705882352941" d="M 186.5 48 L 184.5 51 L 186.5 48 Z " /><path fill="rgb(49,44,25)" stroke="rgb(49,44,25)" stroke-width="1" opacity="0.7764705882352941" d="M 109.5 49 L 109 50.5 L 105.5 58 L 105 56.5 L 109.5 49 Z " /><path fill="rgb(49,44,25)" stroke="rgb(49,44,25)" stroke-width="1" opacity="0.7764705882352941" d="M 120.5 49 L 121 50.5 L 119 51.5 L 120.5 49 Z " /><path fill="rgb(49,44,25)" stroke="rgb(49,44,25)" stroke-width="1" opacity="0.7764705882352941" d="M 170.5 52 L 169.5 54 L 170.5 52 Z " /><path fill="rgb(49,44,25)" stroke="rgb(49,44,25)" stroke-width="1" opacity="0.7764705882352941" d="M 183.5 52 L 182.5 54 L 183.5 52 Z " /><path fill="rgb(49,44,25)" stroke="rgb(49,44,25)" stroke-width="1" opacity="0.7764705882352941" d="M 118.5 53 L 119 54.5 L 113.5 64 L 114 62.5 L 118.5 53 Z " /><path fill="rgb(49,44,25)" stroke="rgb(49,44,25)" stroke-width="1" opacity="0.7764705882352941" d="M 181.5 55 L 180.5 57 L 181.5 55 Z " /><path fill="rgb(49,44,25)" stroke="rgb(49,44,25)" stroke-width="1" opacity="0.7764705882352941" d="M 167.5 57 L 166.5 59 L 167.5 57 Z " /><path fill="rgb(49,44,25)" stroke="rgb(49,44,25)" stroke-width="1" opacity="0.7764705882352941" d="M 179.5 58 L 178 60.5 L 173.5 67 L 175 64.5 L 179.5 58 Z " /><path fill="rgb(49,44,25)" stroke="rgb(49,44,25)" stroke-width="1" opacity="0.7764705882352941" d="M 104.5 59 L 104 60.5 L 103.5 62 L 103 60.5 L 104.5 59 Z " /><path fill="rgb(49,44,25)" stroke="rgb(49,44,25)" stroke-width="1" opacity="0.7764705882352941" d="M 165.5 60 L 164.5 62 L 165.5 60 Z " /><path fill="rgb(49,44,25)" stroke="rgb(49,44,25)" stroke-width="1" opacity="0.7764705882352941" d="M 162.5 65 L 161.5 67 L 162.5 65 Z " /><path fill="rgb(49,44,25)" stroke="rgb(49,44,25)" stroke-width="1" opacity="0.7764705882352941" d="M 111.5 67 L 112 68.5 L 110.5 71 L 110 69.5 L 111.5 67 Z " /><path fill="rgb(49,44,25)" stroke="rgb(49,44,25)" stroke-width="1" opacity="0.7764705882352941" d="M 172.5 68 L 171.5 70 L 172.5 68 Z " /><path fill="rgb(49,44,25)" stroke="rgb(49,44,25)" stroke-width="1" opacity="0.7764705882352941" d="M 170.5 71 L 169.5 73 L 170.5 71 Z " /><path fill="rgb(49,44,25)" stroke="rgb(49,44,25)" stroke-width="1" opacity="0.7764705882352941" d="M 168.5 74 L 167.5 76 L 168.5 74 Z " /><path fill="rgb(49,44,25)" stroke="rgb(49,44,25)" stroke-width="1" opacity="0.7764705882352941" d="M 155.5 76 L 154.5 78 L 155.5 76 Z " /><path fill="rgb(49,44,25)" stroke="rgb(49,44,25)" stroke-width="1" opacity="0.7764705882352941" d="M 166.5 77 L 164.5 80 L 166.5 77 Z " /><path fill="rgb(49,44,25)" stroke="rgb(49,44,25)" stroke-width="1" opacity="0.7764705882352941" d="M 153.5 79 L 151.5 82 L 153.5 79 Z " /><path fill="rgb(49,44,25)" stroke="rgb(49,44,25)" stroke-width="1" opacity="0.7764705882352941" d="M 163.5 81 L 162.5 83 L 163.5 81 Z " /><path fill="rgb(49,44,25)" stroke="rgb(49,44,25)" stroke-width="1" opacity="0.7764705882352941" d="M 150.5 83 L 148.5 86 L 150.5 83 Z " /><path fill="rgb(49,44,25)" stroke="rgb(49,44,25)" stroke-width="1" opacity="0.7764705882352941" d="M 161.5 84 L 157.5 89 L 161.5 84 Z " /><path fill="rgb(49,44,25)" stroke="rgb(49,44,25)" stroke-width="1" opacity="0.7764705882352941" d="M 147.5 87 L 146.5 89 L 147.5 87 Z " /><path fill="rgb(49,44,25)" stroke="rgb(49,44,25)" stroke-width="1" opacity="0.7764705882352941" d="M 145.5 90 L 142.5 94 L 145.5 90 Z " /><path fill="rgb(49,44,25)" stroke="rgb(49,44,25)" stroke-width="1" opacity="0.7764705882352941" d="M 156.5 90 L 155.5 92 L 156.5 90 Z " /><path fill="rgb(49,44,25)" stroke="rgb(49,44,25)" stroke-width="1" opacity="0.7764705882352941" d="M 91.5 93 L 92 94.5 L 89.5 99 L 89 97.5 L 91.5 93 Z " /><path fill="rgb(49,44,25)" stroke="rgb(49,44,25)" stroke-width="1" opacity="0.7764705882352941" d="M 154.5 93 L 153.5 95 L 154.5 93 Z " /><path fill="rgb(49,44,25)" stroke="rgb(49,44,25)" stroke-width="1" opacity="0.7764705882352941" d="M 141.5 95 L 139.5 98 L 141.5 95 Z " /><path fill="rgb(49,44,25)" stroke="rgb(49,44,25)" stroke-width="1" opacity="0.7764705882352941" d="M 152.5 96 L 152 97.5 L 150 100.5 L 158 101.5 L 149 102 L 152.5 96 Z " /><path fill="rgb(49,44,25)" stroke="rgb(49,44,25)" stroke-width="1" opacity="0.7764705882352941" d="M 88.5 100 L 86.5 103 L 88.5 100 Z " /><path fill="rgb(49,44,25)" stroke="rgb(49,44,25)" stroke-width="1" opacity="0.7764705882352941" d="M 175.5 100 L 201.5 100 L 202 101.5 L 200 102.5 L 200.5 101 L 175.5 101 L 175.5 100 Z " /><path fill="rgb(49,44,25)" stroke="rgb(49,44,25)" stroke-width="1" opacity="0.7764705882352941" d="M 137.5 101 L 136.5 103 L 137.5 101 Z " /><path fill="rgb(49,44,25)" stroke="rgb(49,44,25)" stroke-width="1" opacity="0.7764705882352941" d="M 159.5 102 L 167 102.5 L 159.5 103 L 159.5 102 Z " /><path fill="rgb(49,44,25)" stroke="rgb(49,44,25)" stroke-width="1" opacity="0.7764705882352941" d="M 85.5 104 L 84.5 106 L 85.5 104 Z " /><path fill="rgb(49,44,25)" stroke="rgb(49,44,25)" stroke-width="1" opacity="0.7764705882352941" d="M 199.5 104 L 193.5 111 L 199.5 104 Z " /><path fill="rgb(49,44,25)" stroke="rgb(49,44,25)" stroke-width="1" opacity="0.7764705882352941" d="M 134.5 106 L 133.5 108 L 134.5 106 Z " /><path fill="rgb(49,44,25)" stroke="rgb(49,44,25)" stroke-width="1" opacity="0.7764705882352941" d="M 83.5 107 L 83 108.5 L 75.5 124 L 75 122.5 L 83.5 107 Z " /><path fill="rgb(49,44,25)" stroke="rgb(49,44,25)" stroke-width="1" opacity="0.7764705882352941" d="M 164.5 109 L 175 109.5 L 164.5 110 L 164.5 109 Z " /><path fill="rgb(49,44,25)" stroke="rgb(49,44,25)" stroke-width="1" opacity="0.7764705882352941" d="M 178.5 110 L 179 111.5 L 175 114.5 L 178.5 110 Z " /><path fill="rgb(49,44,25)" stroke="rgb(49,44,25)" stroke-width="1" opacity="0.7764705882352941" d="M 140.5 111 L 148 111.5 L 140.5 112 L 140.5 111 Z " /><path fill="rgb(49,44,25)" stroke="rgb(49,44,25)" stroke-width="1" opacity="0.7764705882352941" d="M 150.5 111 L 154 111.5 L 150.5 112 L 150.5 111 Z " /><path fill="rgb(49,44,25)" stroke="rgb(49,44,25)" stroke-width="1" opacity="0.7764705882352941" d="M 190.5 114 L 185.5 120 L 190.5 114 Z " /><path fill="rgb(49,44,25)" stroke="rgb(49,44,25)" stroke-width="1" opacity="0.7764705882352941" d="M 89.5 117 L 90 118.5 L 88 119.5 L 89.5 117 Z " /><path fill="rgb(49,44,25)" stroke="rgb(49,44,25)" stroke-width="1" opacity="0.7764705882352941" d="M 173.5 117 L 170.5 121 L 173.5 117 Z " /><path fill="rgb(49,44,25)" stroke="rgb(49,44,25)" stroke-width="1" opacity="0.7764705882352941" d="M 87.5 121 L 88 122.5 L 86.5 125 L 86 123.5 L 87.5 121 Z " /><path fill="rgb(49,44,25)" stroke="rgb(49,44,25)" stroke-width="1" opacity="0.7764705882352941" d="M 184.5 121 L 179 127.5 L 172.5 135 L 178 128.5 L 184.5 121 Z " /><path fill="rgb(49,44,25)" stroke="rgb(49,44,25)" stroke-width="1" opacity="0.7764705882352941" d="M 168.5 123 L 167.5 125 L 168.5 123 Z " /><path fill="rgb(49,44,25)" stroke="rgb(49,44,25)" stroke-width="1" opacity="0.7764705882352941" d="M 166.5 126 L 164.5 129 L 166.5 126 Z " /><path fill="rgb(49,44,25)" stroke="rgb(49,44,25)" stroke-width="1" opacity="0.7764705882352941" d="M 73.5 127 L 74 128.5 L 72.5 131 L 72 129.5 L 73.5 127 Z " /><path fill="rgb(49,44,25)" stroke="rgb(49,44,25)" stroke-width="1" opacity="0.7764705882352941" d="M 84.5 128 L 83.5 130 L 84.5 128 Z " /><path fill="rgb(49,44,25)" stroke="rgb(49,44,25)" stroke-width="1" opacity="0.7764705882352941" d="M 82.5 131 L 83 132.5 L 81.5 135 L 81 133.5 L 82.5 131 Z " /><path fill="rgb(49,44,25)" stroke="rgb(49,44,25)" stroke-width="1" opacity="0.7764705882352941" d="M 162.5 131 L 161.5 133 L 162.5 131 Z " /><path fill="rgb(49,44,25)" stroke="rgb(49,44,25)" stroke-width="1" opacity="0.7764705882352941" d="M 182.5 133 L 184 133.5 L 181.5 135 L 182.5 133 Z " /><path fill="rgb(49,44,25)" stroke="rgb(49,44,25)" stroke-width="1" opacity="0.7764705882352941" d="M 184.5 135 L 185.5 137 L 184.5 135 Z " /><path fill="rgb(49,44,25)" stroke="rgb(49,44,25)" stroke-width="1" opacity="0.7764705882352941" d="M 116.5 136 L 123 136.5 L 116.5 137 L 116.5 136 Z " /><path fill="rgb(49,44,25)" stroke="rgb(49,44,25)" stroke-width="1" opacity="0.7764705882352941" d="M 171.5 136 L 164.5 144 L 171.5 136 Z " /><path fill="rgb(49,44,25)" stroke="rgb(49,44,25)" stroke-width="1" opacity="0.7764705882352941" d="M 180.5 136 L 179.5 138 L 180.5 136 Z " /><path fill="rgb(49,44,25)" stroke="rgb(49,44,25)" stroke-width="1" opacity="0.7764705882352941" d="M 107.5 137 L 111 137.5 L 107.5 138 L 107.5 137 Z " /><path fill="rgb(49,44,25)" stroke="rgb(49,44,25)" stroke-width="1" opacity="0.7764705882352941" d="M 157.5 137 L 155.5 140 L 157.5 137 Z " /><path fill="rgb(49,44,25)" stroke="rgb(49,44,25)" stroke-width="1" opacity="0.7764705882352941" d="M 79.5 138 L 84 139.5 L 79 140 L 79.5 138 Z " /><path fill="rgb(49,44,25)" stroke="rgb(49,44,25)" stroke-width="1" opacity="0.7764705882352941" d="M 99.5 138 L 103 138.5 L 99.5 139 L 99.5 138 Z " /><path fill="rgb(49,44,25)" stroke="rgb(49,44,25)" stroke-width="1" opacity="0.7764705882352941" d="M 186.5 138 L 187.5 140 L 186.5 138 Z " /><path fill="rgb(49,44,25)" stroke="rgb(49,44,25)" stroke-width="1" opacity="0.7764705882352941" d="M 88.5 139 L 97 139.5 L 88.5 140 L 88.5 139 Z " /><path fill="rgb(49,44,25)" stroke="rgb(49,44,25)" stroke-width="1" opacity="0.7764705882352941" d="M 178.5 139 L 176.5 142 L 178.5 139 Z " /><path fill="rgb(49,44,25)" stroke="rgb(49,44,25)" stroke-width="1" opacity="0.7764705882352941" d="M 188.5 141 L 189.5 143 L 188.5 141 Z " /><path fill="rgb(49,44,25)" stroke="rgb(49,44,25)" stroke-width="1" opacity="0.7764705882352941" d="M 152.5 143 L 150.5 146 L 152.5 143 Z " /><path fill="rgb(49,44,25)" stroke="rgb(49,44,25)" stroke-width="1" opacity="0.7764705882352941" d="M 175.5 143 L 174.5 145 L 175.5 143 Z " /><path fill="rgb(49,44,25)" stroke="rgb(49,44,25)" stroke-width="1" opacity="0.7764705882352941" d="M 190.5 144 L 191.5 146 L 190.5 144 Z " /><path fill="rgb(49,44,25)" stroke="rgb(49,44,25)" stroke-width="1" opacity="0.7764705882352941" d="M 161.5 145 L 156.5 151 L 161.5 145 Z " /><path fill="rgb(49,44,25)" stroke="rgb(49,44,25)" stroke-width="1" opacity="0.7764705882352941" d="M 173.5 146 L 172.5 148 L 173.5 146 Z " /><path fill="rgb(49,44,25)" stroke="rgb(49,44,25)" stroke-width="1" opacity="0.7764705882352941" d="M 65.5 147 L 66 148.5 L 65.5 150 L 71 150.5 L 64 151 L 65.5 147 Z " /><path fill="rgb(49,44,25)" stroke="rgb(49,44,25)" stroke-width="1" opacity="0.7764705882352941" d="M 94.5 147 L 97 147.5 L 94.5 148 L 94.5 147 Z " /><path fill="rgb(49,44,25)" stroke="rgb(49,44,25)" stroke-width="1" opacity="0.7764705882352941" d="M 102.5 147 L 108 147.5 L 102.5 148 L 102.5 147 Z " /><path fill="rgb(49,44,25)" stroke="rgb(49,44,25)" stroke-width="1" opacity="0.7764705882352941" d="M 109.5 147 L 110 149.5 L 109 149.5 L 109.5 147 Z " /><path fill="rgb(49,44,25)" stroke="rgb(49,44,25)" stroke-width="1" opacity="0.7764705882352941" d="M 84.5 148 L 90 148.5 L 84.5 149 L 84.5 148 Z " /><path fill="rgb(49,44,25)" stroke="rgb(49,44,25)" stroke-width="1" opacity="0.7764705882352941" d="M 193.5 148 L 194.5 150 L 193.5 148 Z " /><path fill="rgb(49,44,25)" stroke="rgb(49,44,25)" stroke-width="1" opacity="0.7764705882352941" d="M 74.5 149 L 79 149.5 L 74.5 150 L 74.5 149 Z " /><path fill="rgb(49,44,25)" stroke="rgb(49,44,25)" stroke-width="1" opacity="0.7764705882352941" d="M 147.5 149 L 144.5 153 L 147.5 149 Z " /><path fill="rgb(49,44,25)" stroke="rgb(49,44,25)" stroke-width="1" opacity="0.7764705882352941" d="M 171.5 149 L 169.5 152 L 171.5 149 Z " /><path fill="rgb(49,44,25)" stroke="rgb(49,44,25)" stroke-width="1" opacity="0.7764705882352941" d="M 178.5 150 L 177.5 152 L 178.5 150 Z " /><path fill="rgb(49,44,25)" stroke="rgb(49,44,25)" stroke-width="1" opacity="0.7764705882352941" d="M 195.5 151 L 196.5 153 L 195.5 151 Z " /><path fill="rgb(49,44,25)" stroke="rgb(49,44,25)" stroke-width="1" opacity="0.7764705882352941" d="M 155.5 152 L 154 154.5 L 143.5 169 L 144 167.5 L 155.5 152 Z " /><path fill="rgb(49,44,25)" stroke="rgb(49,44,25)" stroke-width="1" opacity="0.7764705882352941" d="M 168.5 153 L 166.5 156 L 168.5 153 Z " /><path fill="rgb(49,44,25)" stroke="rgb(49,44,25)" stroke-width="1" opacity="0.7764705882352941" d="M 107.5 154 L 108 155.5 L 104.5 165 L 104 162.5 L 107.5 154 Z " /><path fill="rgb(49,44,25)" stroke="rgb(49,44,25)" stroke-width="1" opacity="0.7764705882352941" d="M 143.5 154 L 140.5 158 L 143.5 154 Z " /><path fill="rgb(49,44,25)" stroke="rgb(49,44,25)" stroke-width="1" opacity="0.7764705882352941" d="M 197.5 154 L 198.5 156 L 197.5 154 Z " /><path fill="rgb(49,44,25)" stroke="rgb(49,44,25)" stroke-width="1" opacity="0.7764705882352941" d="M 165.5 157 L 164.5 159 L 165.5 157 Z " /><path fill="rgb(49,44,25)" stroke="rgb(49,44,25)" stroke-width="1" opacity="0.7764705882352941" d="M 199.5 157 L 200.5 159 L 199.5 157 Z " /><path fill="rgb(49,44,25)" stroke="rgb(49,44,25)" stroke-width="1" opacity="0.7764705882352941" d="M 192.5 158 L 193.5 160 L 192.5 158 Z " /><path fill="rgb(49,44,25)" stroke="rgb(49,44,25)" stroke-width="1" opacity="0.7764705882352941" d="M 116.5 159 L 117 160.5 L 115.5 163 L 115 161.5 L 116.5 159 Z " /><path fill="rgb(49,44,25)" stroke="rgb(49,44,25)" stroke-width="1" opacity="0.7764705882352941" d="M 138.5 160 L 135.5 164 L 138.5 160 Z " /><path fill="rgb(49,44,25)" stroke="rgb(49,44,25)" stroke-width="1" opacity="0.7764705882352941" d="M 163.5 160 L 162.5 162 L 163.5 160 Z " /><path fill="rgb(49,44,25)" stroke="rgb(49,44,25)" stroke-width="1" opacity="0.7764705882352941" d="M 201.5 160 L 202.5 162 L 201.5 160 Z " /><path fill="rgb(49,44,25)" stroke="rgb(49,44,25)" stroke-width="1" opacity="0.7764705882352941" d="M 203.5 163 L 205.5 166 L 203.5 163 Z " /><path fill="rgb(49,44,25)" stroke="rgb(49,44,25)" stroke-width="1" opacity="0.7764705882352941" d="M 114.5 164 L 115 165.5 L 113.5 168 L 113 166.5 L 114.5 164 Z " /><path fill="rgb(49,44,25)" stroke="rgb(49,44,25)" stroke-width="1" opacity="0.7764705882352941" d="M 160.5 164 L 160 165.5 L 156.5 171 L 157 169.5 L 160.5 164 Z " /><path fill="rgb(49,44,25)" stroke="rgb(49,44,25)" stroke-width="1" opacity="0.7764705882352941" d="M 103.5 166 L 104 168.5 L 103 168.5 L 103.5 166 Z " /><path fill="rgb(49,44,25)" stroke="rgb(49,44,25)" stroke-width="1" opacity="0.7764705882352941" d="M 133.5 166 L 131.5 169 L 133.5 166 Z " /><path fill="rgb(49,44,25)" stroke="rgb(49,44,25)" stroke-width="1" opacity="0.7764705882352941" d="M 206.5 167 L 207.5 169 L 206.5 167 Z " /><path fill="rgb(49,44,25)" stroke="rgb(49,44,25)" stroke-width="1" opacity="0.7764705882352941" d="M 141.5 169 L 140.5 171 L 141.5 169 Z " /><path fill="rgb(49,44,25)" stroke="rgb(49,44,25)" stroke-width="1" opacity="0.7764705882352941" d="M 208.5 170 L 209.5 172 L 208.5 170 Z " /><path fill="rgb(49,44,25)" stroke="rgb(49,44,25)" stroke-width="1" opacity="0.7764705882352941" d="M 128.5 172 L 123.5 178 L 128.5 172 Z " /><path fill="rgb(49,44,25)" stroke="rgb(49,44,25)" stroke-width="1" opacity="0.7764705882352941" d="M 139.5 172 L 135.5 177 L 139.5 172 Z " /><path fill="rgb(49,44,25)" stroke="rgb(49,44,25)" stroke-width="1" opacity="0.7764705882352941" d="M 155.5 172 L 153.5 175 L 155.5 172 Z " /><path fill="rgb(49,44,25)" stroke="rgb(49,44,25)" stroke-width="1" opacity="0.7764705882352941" d="M 211.5 174 L 212.5 176 L 211.5 174 Z " /><path fill="rgb(49,44,25)" stroke="rgb(49,44,25)" stroke-width="1" opacity="0.7764705882352941" d="M 152.5 176 L 151.5 178 L 152.5 176 Z " /><path fill="rgb(49,44,25)" stroke="rgb(49,44,25)" stroke-width="1" opacity="0.7764705882352941" d="M 134.5 178 L 132.5 181 L 134.5 178 Z " /><path fill="rgb(49,44,25)" stroke="rgb(49,44,25)" stroke-width="1" opacity="0.7764705882352941" d="M 214.5 178 L 215.5 180 L 214.5 178 Z " /><path fill="rgb(49,44,25)" stroke="rgb(49,44,25)" stroke-width="1" opacity="0.7764705882352941" d="M 150.5 179 L 149.5 181 L 150.5 179 Z " /><path fill="rgb(49,44,25)" stroke="rgb(49,44,25)" stroke-width="1" opacity="0.7764705882352941" d="M 158.5 179 L 157.5 181 L 158.5 179 Z " /><path fill="rgb(49,44,25)" stroke="rgb(49,44,25)" stroke-width="1" opacity="0.7764705882352941" d="M 120.5 181 L 117.5 185 L 120.5 181 Z " /><path fill="rgb(49,44,25)" stroke="rgb(49,44,25)" stroke-width="1" opacity="0.7764705882352941" d="M 216.5 181 L 217.5 183 L 216.5 181 Z " /><path fill="rgb(49,44,25)" stroke="rgb(49,44,25)" stroke-width="1" opacity="0.7764705882352941" d="M 131.5 182 L 129.5 185 L 131.5 182 Z " /><path fill="rgb(49,44,25)" stroke="rgb(49,44,25)" stroke-width="1" opacity="0.7764705882352941" d="M 148.5 182 L 147.5 184 L 148.5 182 Z " /><path fill="rgb(49,44,25)" stroke="rgb(49,44,25)" stroke-width="1" opacity="0.7764705882352941" d="M 171.5 183 L 172 200.5 L 171 200.5 L 171.5 183 Z " /><path fill="rgb(49,44,25)" stroke="rgb(49,44,25)" stroke-width="1" opacity="0.7764705882352941" d="M 218.5 184 L 219.5 186 L 218.5 184 Z " /><path fill="rgb(49,44,25)" stroke="rgb(49,44,25)" stroke-width="1" opacity="0.7764705882352941" d="M 95.5 185 L 98 185.5 Q 95.9 188.8 95.5 185 Z " /><path fill="rgb(49,44,25)" stroke="rgb(49,44,25)" stroke-width="1" opacity="0.7764705882352941" d="M 146.5 185 L 145.5 187 L 146.5 185 Z " /><path fill="rgb(49,44,25)" stroke="rgb(49,44,25)" stroke-width="1" opacity="0.7764705882352941" d="M 128.5 186 L 125.5 190 L 128.5 186 Z " /><path fill="rgb(49,44,25)" stroke="rgb(49,44,25)" stroke-width="1" opacity="0.7764705882352941" d="M 115.5 187 L 111.5 192 L 115.5 187 Z " /><path fill="rgb(49,44,25)" stroke="rgb(49,44,25)" stroke-width="1" opacity="0.7764705882352941" d="M 144.5 188 L 144.5 190 L 152 190.5 L 143 191 L 144.5 188 Z " /><path fill="rgb(49,44,25)" stroke="rgb(49,44,25)" stroke-width="1" opacity="0.7764705882352941" d="M 221.5 188 L 222 190 L 206 189.5 L 220.5 189 L 221.5 188 Z " /><path fill="rgb(49,44,25)" stroke="rgb(49,44,25)" stroke-width="1" opacity="0.7764705882352941" d="M 162.5 189 L 165 189.5 L 162.5 190 L 162.5 189 Z " /><path fill="rgb(49,44,25)" stroke="rgb(49,44,25)" stroke-width="1" opacity="0.7764705882352941" d="M 200 189 L 202 189.5 L 201 190.5 L 200.5 231 L 200 189 Z " /><path fill="rgb(49,44,25)" stroke="rgb(49,44,25)" stroke-width="1" opacity="0.7764705882352941" d="M 124.5 191 L 122.5 194 L 124.5 191 Z " /><path fill="rgb(49,44,25)" stroke="rgb(49,44,25)" stroke-width="1" opacity="0.7764705882352941" d="M 92.5 193 L 93 194.5 L 91.5 197 L 91 195.5 L 92.5 193 Z " /><path fill="rgb(49,44,25)" stroke="rgb(49,44,25)" stroke-width="1" opacity="0.7764705882352941" d="M 110.5 193 L 107 197.5 L 106.5 199 L 106 197.5 L 110.5 193 Z " /><path fill="rgb(49,44,25)" stroke="rgb(49,44,25)" stroke-width="1" opacity="0.7764705882352941" d="M 121.5 195 L 118.5 199 L 121.5 195 Z " /><path fill="rgb(49,44,25)" stroke="rgb(49,44,25)" stroke-width="1" opacity="0.7764705882352941" d="M 89.5 201 L 90 202.5 L 88.5 205 L 88 203.5 L 89.5 201 Z " /><path fill="rgb(49,44,25)" stroke="rgb(49,44,25)" stroke-width="1" opacity="0.7764705882352941" d="M 103.5 201 L 101.5 204 L 103.5 201 Z " /><path fill="rgb(49,44,25)" stroke="rgb(49,44,25)" stroke-width="1" opacity="0.7764705882352941" d="M 115.5 201 L 106.5 211 L 115.5 201 Z " /><path fill="rgb(49,44,25)" stroke="rgb(49,44,25)" stroke-width="1" opacity="0.7764705882352941" d="M 99.5 206 L 97.5 209 Q 95.3 209.8 96 207.5 Q 97.8 209.1 99.5 206 Z " /><path fill="rgb(49,44,25)" stroke="rgb(49,44,25)" stroke-width="1" opacity="0.7764705882352941" d="M 86.5 209 L 87 211.5 L 86 211.5 L 86.5 209 Z " /><path fill="rgb(49,44,25)" stroke="rgb(49,44,25)" stroke-width="1" opacity="0.7764705882352941" d="M 165.5 209 L 166 223.5 L 165 223.5 L 165.5 209 Z " /><path fill="rgb(49,44,25)" stroke="rgb(49,44,25)" stroke-width="1" opacity="0.7764705882352941" d="M 105.5 212 L 102.5 216 L 105.5 212 Z " /><path fill="rgb(49,44,25)" stroke="rgb(49,44,25)" stroke-width="1" opacity="0.7764705882352941" d="M 85.5 213 L 86 215.5 L 80.5 231 L 80 228.5 L 85.5 213 Z " /><path fill="rgb(49,44,25)" stroke="rgb(49,44,25)" stroke-width="1" opacity="0.7764705882352941" d="M 100.5 217 L 89 229.5 L 81.5 238 L 88 230.5 L 100.5 217 Z " /><path fill="rgb(49,44,25)" stroke="rgb(49,44,25)" stroke-width="1" opacity="0.7764705882352941" d="M 170.5 217 L 171 224.5 L 170 224.5 L 170.5 217 Z " /><path fill="rgb(49,44,25)" stroke="rgb(49,44,25)" stroke-width="1" opacity="0.7764705882352941" d="M 194.5 222 L 195 226.5 L 194 226.5 L 194.5 222 Z " /><path fill="rgb(49,44,25)" stroke="rgb(49,44,25)" stroke-width="1" opacity="0.7764705882352941" d="M 164.5 231 L 165 234 L 180 234.5 L 165.5 235 Q 163 234 164.5 231 Z " /><path fill="rgb(49,44,25)" stroke="rgb(49,44,25)" stroke-width="1" opacity="0.7764705882352941" d="M 79.5 232 L 80 233.5 L 79 237.5 Q 81.3 238.8 78.5 240 Q 76.3 240.8 77 238.5 L 79.5 232 Z " /><path fill="rgb(3,3,2)" stroke="rgb(3,3,2)" stroke-width="1" opacity="0.996078431372549" d="M 137.5 27 L 143.5 27 L 145.5 29 Q 150.3 27.8 151.5 30 L 186.5 30 L 194.5 28 L 199 29.5 L 167 76.5 L 157 88.5 L 149 102 L 166.5 103 Q 167.8 98.8 174.5 100 L 175.5 101 L 201 101.5 L 162.5 145 L 156 150.5 L 142.5 169 L 140 170.5 L 116.5 201 L 106 210.5 L 80.5 238 L 78.5 239 L 79 237.5 L 79 234.5 L 86 215.5 L 87 208.5 L 95.5 186 Q 96.8 188.3 98 185.5 L 110 147 L 97.5 148 L 94.5 147 L 93.5 148 L 65.5 150 L 66 148.5 L 74 126.5 L 84 106.5 L 92 94.5 L 97 80.5 L 98 73.5 L 119 29 L 134.5 29 L 137.5 27 Z M 136 38 L 135 39 L 124 39 L 122 47 L 110 70 L 95 107 L 79 140 L 97 140 L 104 138 L 123 137 L 124 136 L 126 138 L 96 208 Q 95 210 98 209 L 104 201 L 107 199 L 111 193 L 163 132 L 179 110 L 175 109 L 165 109 L 150 112 L 148 111 L 132 111 L 139 99 L 160 71 L 179 39 L 174 38 Q 169 37 168 39 L 143 39 L 142 38 L 140 39 L 138 39 L 136 38 Z " /><path fill="rgb(3,3,2)" stroke="rgb(3,3,2)" stroke-width="1" opacity="0.996078431372549" d="M 182.5 134 Q 184.8 133.3 184 135.5 L 221 189 L 200 189 L 200 230.5 L 201 234 L 165.5 234 L 165 233.5 L 165 224.5 L 166 223.5 L 166 209.5 L 165 208.5 L 165 189 L 161.5 190 L 144.5 190 L 145 188.5 Q 162.3 159.8 182.5 134 Z M 183 144 L 156 183 L 171 183 L 171 217 L 170 218 L 171 229 L 174 228 L 194 228 L 195 227 L 194 222 L 194 183 L 209 183 L 208 180 L 183 144 Z " /></svg>