<svg width="256" height="256" version="1.1" xmlns="http://www.w3.org/2000/svg" desc="Created with imagetracer.js version 1.2.6" ><path fill="rgb(0,0,0)" stroke="rgb(0,0,0)" stroke-width="1" opacity="0" d="M 0 0 L 256 0 L 256 256 L 0 256 L 0 0 Z M 215 28 L 202 32 L 200 32 Q 195 35 189 35 Q 187 38 186 36 Q 175 38 170 45 Q 171 48 169 47 L 164 53 L 157 59 Q 158 61 156 60 L 147 70 L 135 81 Q 136 84 134 83 L 125 95 L 126 100 L 125 107 L 138 105 L 139 105 L 137 116 Q 136 120 139 121 L 148 118 L 148 134 L 151 135 L 157 127 L 161 124 L 175 109 L 185 100 L 197 88 L 199 83 L 203 81 Q 202 77 205 78 L 212 70 L 219 36 L 219 28 L 215 28 Z M 116 102 L 115 104 L 112 106 Q 113 109 111 108 L 109 111 L 105 114 Q 106 116 103 115 L 103 118 L 101 118 Q 102 121 100 120 L 95 127 L 90 131 Q 91 133 88 132 L 86 137 L 84 138 L 81 142 L 76 140 L 70 132 Q 67 133 68 131 Q 67 127 63 128 L 58 139 Q 59 142 56 141 L 53 148 L 53 152 Q 56 151 55 154 L 61 158 L 63 163 L 69 169 L 68 170 Q 69 172 67 171 L 62 177 Q 63 179 60 178 L 54 187 Q 55 189 53 188 L 49 193 Q 50 195 47 194 L 46 198 L 41 197 L 34 199 Q 31 198 32 201 L 32 203 L 30 203 L 30 214 L 35 224 L 47 231 L 59 231 L 61 228 L 64 226 Q 66 222 65 214 L 68 212 L 70 209 L 75 205 L 79 200 L 83 197 Q 82 194 85 195 L 90 189 L 94 192 L 97 194 L 98 197 L 102 198 L 106 203 L 116 198 L 118 198 L 129 191 Q 130 188 127 189 L 127 187 L 121 183 L 115 177 L 118 172 L 121 170 L 123 165 L 128 162 Q 127 159 130 160 L 141 147 L 140 142 L 141 140 L 140 135 L 142 130 L 141 126 L 134 128 L 131 130 L 132 114 L 119 117 L 119 116 L 118 112 L 118 110 L 117 104 L 116 102 Z M 176 132 L 175 133 L 164 133 L 163 136 L 163 177 L 164 178 L 162 177 L 143 177 L 143 180 L 147 185 Q 146 187 149 186 Q 148 190 152 192 Q 151 194 154 193 L 155 196 Q 154 198 157 197 L 157 200 L 159 200 L 161 204 Q 164 203 162 207 L 164 207 L 164 210 L 166 210 L 166 213 L 168 213 L 168 216 L 170 216 L 170 219 L 177 228 Q 176 230 179 229 L 181 235 L 184 234 Q 183 230 186 231 L 186 228 L 189 227 Q 188 223 191 224 L 193 218 L 196 217 Q 195 213 198 214 L 201 210 Q 200 206 203 207 L 212 194 Q 211 190 214 191 L 214 188 L 216 188 L 216 185 L 218 185 L 218 182 L 220 182 L 222 176 L 214 176 L 213 177 L 211 176 Q 205 175 204 177 L 201 176 L 201 163 L 200 162 L 201 159 L 200 154 L 201 149 Q 202 144 200 143 L 201 134 L 200 132 L 176 132 Z " /><path fill="rgb(178,50,40)" stroke="rgb(178,50,40)" stroke-width="1" opacity="1" d="M 207.5 38 Q 210.9 37.1 209 42.5 L 203 67.5 L 154.5 119 L 153.5 109 L 144.5 113 L 144 111.5 L 178 74.5 L 184 65.5 L 156 92.5 L 146.5 103 L 145 102.5 L 146 96 L 134.5 99 L 133 96.5 L 136 91.5 L 173.5 52 Q 175.8 52.8 175 50.5 L 178.5 47 L 207.5 38 Z " /><path fill="rgb(178,50,40)" stroke="rgb(178,50,40)" stroke-width="1" opacity="1" d="M 111.5 118 L 114.5 125 L 126 122 Q 125.2 128.1 119.5 131 L 112 137.5 L 92.5 158 L 84 148.5 L 111.5 118 Z " /><path fill="rgb(178,50,40)" stroke="rgb(178,50,40)" stroke-width="1" opacity="1" d="M 123.5 135 L 124 137.5 L 123 139.5 L 124.5 139 L 132.5 135 L 133 142.5 L 106.5 170 L 99 163.5 L 99 161.5 L 123.5 135 Z " /><path fill="rgb(178,50,40)" stroke="rgb(178,50,40)" stroke-width="1" opacity="1" d="M 171 139 L 194 139 L 194 167.5 L 193 168.5 L 193 181.5 L 193.5 184 L 209 184.5 L 182.5 222 Q 180.3 222.8 181 220.5 L 156 184 L 171 184 L 171 139 Z " /><path fill="rgb(178,50,40)" stroke="rgb(178,50,40)" stroke-width="1" opacity="1" d="M 67.5 140 L 105.5 179 L 115 187.5 Q 112.1 190.6 105.5 190 L 65 151.5 L 64 146.5 L 67.5 140 Z " /><path fill="rgb(178,50,40)" stroke="rgb(178,50,40)" stroke-width="1" opacity="1" d="M 77.5 176 L 82 180.5 L 82 183.5 L 77 187.5 L 77.5 176 Z " /><path fill="rgb(178,50,40)" stroke="rgb(178,50,40)" stroke-width="1" opacity="1" d="M 71.5 180 L 72 193.5 L 67 197.5 L 65 187.5 L 71.5 180 Z " /><path fill="rgb(178,50,40)" stroke="rgb(178,50,40)" stroke-width="1" opacity="1" d="M 60.5 192 L 63 201 L 56 199 L 60.5 192 Z " /><path fill="rgb(178,50,40)" stroke="rgb(178,50,40)" stroke-width="1" opacity="1" d="M 53.5 202 L 60 205.5 L 56.5 209 L 52 204.5 L 53.5 202 Z " /><path fill="rgb(178,50,40)" stroke="rgb(178,50,40)" stroke-width="1" opacity="1" d="M 39.5 206 L 45.5 206 L 53 212.5 Q 56.4 215.3 55 222 L 51.5 223 Q 44.3 221.2 41 215.5 Q 37.4 213.6 38 207.5 L 39.5 206 Z " /><path fill="rgb(160,131,129)" stroke="rgb(160,131,129)" stroke-width="1" opacity="0.37254901960784315" d="M 214.5 28 L 217 28.5 L 214.5 29 L 214.5 28 Z " /><path fill="rgb(160,131,129)" stroke="rgb(160,131,129)" stroke-width="1" opacity="0.37254901960784315" d="M 218.5 33 L 219 35.5 L 218 35.5 L 218.5 33 Z " /><path fill="rgb(160,131,129)" stroke="rgb(160,131,129)" stroke-width="1" opacity="0.37254901960784315" d="M 217.5 38 L 218 40.5 L 217 40.5 L 217.5 38 Z " /><path fill="rgb(160,131,129)" stroke="rgb(160,131,129)" stroke-width="1" opacity="0.37254901960784315" d="M 173.5 41 L 170.5 45 L 173.5 41 Z " /><path fill="rgb(160,131,129)" stroke="rgb(160,131,129)" stroke-width="1" opacity="0.37254901960784315" d="M 216.5 43 L 217 45.5 L 216 45.5 L 216.5 43 Z " /><path fill="rgb(160,131,129)" stroke="rgb(160,131,129)" stroke-width="1" opacity="0.37254901960784315" d="M 215.5 47 L 216 50.5 L 215 50.5 L 215.5 47 Z " /><path fill="rgb(160,131,129)" stroke="rgb(160,131,129)" stroke-width="1" opacity="0.37254901960784315" d="M 165.5 50 L 164.5 52 L 165.5 50 Z " /><path fill="rgb(160,131,129)" stroke="rgb(160,131,129)" stroke-width="1" opacity="0.37254901960784315" d="M 214.5 53 L 215 55.5 L 214 55.5 L 214.5 53 Z " /><path fill="rgb(160,131,129)" stroke="rgb(160,131,129)" stroke-width="1" opacity="0.37254901960784315" d="M 158.5 57 L 157.5 59 L 158.5 57 Z " /><path fill="rgb(160,131,129)" stroke="rgb(160,131,129)" stroke-width="1" opacity="0.37254901960784315" d="M 213.5 58 L 214 60.5 L 213 60.5 L 213.5 58 Z " /><path fill="rgb(160,131,129)" stroke="rgb(160,131,129)" stroke-width="1" opacity="0.37254901960784315" d="M 155.5 60 L 147.5 69 L 155.5 60 Z " /><path fill="rgb(160,131,129)" stroke="rgb(160,131,129)" stroke-width="1" opacity="0.37254901960784315" d="M 212.5 63 L 213 65.5 L 212 65.5 L 212.5 63 Z " /><path fill="rgb(160,131,129)" stroke="rgb(160,131,129)" stroke-width="1" opacity="0.37254901960784315" d="M 143.5 72 L 135.5 81 L 143.5 72 Z " /><path fill="rgb(160,131,129)" stroke="rgb(160,131,129)" stroke-width="1" opacity="0.37254901960784315" d="M 208.5 73 L 207.5 75 L 208.5 73 Z " /><path fill="rgb(160,131,129)" stroke="rgb(160,131,129)" stroke-width="1" opacity="0.37254901960784315" d="M 202.5 80 L 200.5 83 L 202.5 80 Z " /><path fill="rgb(160,131,129)" stroke="rgb(160,131,129)" stroke-width="1" opacity="0.37254901960784315" d="M 131.5 85 L 129.5 88 L 131.5 85 Z " /><path fill="rgb(160,131,129)" stroke="rgb(160,131,129)" stroke-width="1" opacity="0.37254901960784315" d="M 196.5 87 L 184.5 100 L 196.5 87 Z " /><path fill="rgb(160,131,129)" stroke="rgb(160,131,129)" stroke-width="1" opacity="0.37254901960784315" d="M 125.5 94 L 126 98.5 L 125 98.5 L 125.5 94 Z " /><path fill="rgb(160,131,129)" stroke="rgb(160,131,129)" stroke-width="1" opacity="0.37254901960784315" d="M 125.5 101 L 126 103.5 L 125 103.5 L 125.5 101 Z " /><path fill="rgb(160,131,129)" stroke="rgb(160,131,129)" stroke-width="1" opacity="0.37254901960784315" d="M 115.5 102 Q 117.8 102.8 117 106.5 L 116 106.5 L 115.5 102 Z " /><path fill="rgb(160,131,129)" stroke="rgb(160,131,129)" stroke-width="1" opacity="0.37254901960784315" d="M 113.5 104 L 112.5 106 L 113.5 104 Z " /><path fill="rgb(160,131,129)" stroke="rgb(160,131,129)" stroke-width="1" opacity="0.37254901960784315" d="M 125.5 106 L 129 106.5 L 125.5 107 L 125.5 106 Z " /><path fill="rgb(160,131,129)" stroke="rgb(160,131,129)" stroke-width="1" opacity="0.37254901960784315" d="M 138.5 108 L 139 112.5 L 138 112.5 L 138.5 108 Z " /><path fill="rgb(160,131,129)" stroke="rgb(160,131,129)" stroke-width="1" opacity="0.37254901960784315" d="M 174.5 109 L 160.5 124 L 174.5 109 Z " /><path fill="rgb(160,131,129)" stroke="rgb(160,131,129)" stroke-width="1" opacity="0.37254901960784315" d="M 106.5 112 L 105.5 114 L 106.5 112 Z " /><path fill="rgb(160,131,129)" stroke="rgb(160,131,129)" stroke-width="1" opacity="0.37254901960784315" d="M 118.5 113 L 119 115.5 L 118 115.5 L 118.5 113 Z " /><path fill="rgb(160,131,129)" stroke="rgb(160,131,129)" stroke-width="1" opacity="0.37254901960784315" d="M 126.5 115 L 129 115.5 L 126.5 116 L 126.5 115 Z " /><path fill="rgb(160,131,129)" stroke="rgb(160,131,129)" stroke-width="1" opacity="0.37254901960784315" d="M 137.5 115 L 138 119.5 L 137 119.5 L 137.5 115 Z " /><path fill="rgb(160,131,129)" stroke="rgb(160,131,129)" stroke-width="1" opacity="0.37254901960784315" d="M 120.5 116 L 123 116.5 L 120.5 117 L 120.5 116 Z " /><path fill="rgb(160,131,129)" stroke="rgb(160,131,129)" stroke-width="1" opacity="0.37254901960784315" d="M 131.5 119 L 132 125.5 L 131 125.5 L 131.5 119 Z " /><path fill="rgb(160,131,129)" stroke="rgb(160,131,129)" stroke-width="1" opacity="0.37254901960784315" d="M 99.5 120 L 97.5 123 L 99.5 120 Z " /><path fill="rgb(160,131,129)" stroke="rgb(160,131,129)" stroke-width="1" opacity="0.37254901960784315" d="M 156.5 127 L 154.5 130 L 156.5 127 Z " /><path fill="rgb(160,131,129)" stroke="rgb(160,131,129)" stroke-width="1" opacity="0.37254901960784315" d="M 63.5 128 Q 67.5 127.5 68 130.5 L 65.5 129 Q 62.5 129.5 63.5 128 Z " /><path fill="rgb(160,131,129)" stroke="rgb(160,131,129)" stroke-width="1" opacity="0.37254901960784315" d="M 91.5 129 L 90.5 131 L 91.5 129 Z " /><path fill="rgb(160,131,129)" stroke="rgb(160,131,129)" stroke-width="1" opacity="0.37254901960784315" d="M 69.5 132 L 75.5 139 L 69.5 132 Z " /><path fill="rgb(160,131,129)" stroke="rgb(160,131,129)" stroke-width="1" opacity="0.37254901960784315" d="M 175.5 132 L 183 132.5 L 175.5 133 L 175.5 132 Z " /><path fill="rgb(160,131,129)" stroke="rgb(160,131,129)" stroke-width="1" opacity="0.37254901960784315" d="M 151.5 133 L 150.5 135 L 151.5 133 Z " /><path fill="rgb(160,131,129)" stroke="rgb(160,131,129)" stroke-width="1" opacity="0.37254901960784315" d="M 140.5 135 L 141 139.5 L 140 139.5 L 140.5 135 Z " /><path fill="rgb(160,131,129)" stroke="rgb(160,131,129)" stroke-width="1" opacity="0.37254901960784315" d="M 163.5 135 L 164 176.5 L 163 176.5 L 163.5 135 Z " /><path fill="rgb(160,131,129)" stroke="rgb(160,131,129)" stroke-width="1" opacity="0.37254901960784315" d="M 200.5 136 L 201 140.5 L 200 140.5 L 200.5 136 Z " /><path fill="rgb(160,131,129)" stroke="rgb(160,131,129)" stroke-width="1" opacity="0.37254901960784315" d="M 83.5 138 L 81.5 141 L 83.5 138 Z " /><path fill="rgb(160,131,129)" stroke="rgb(160,131,129)" stroke-width="1" opacity="0.37254901960784315" d="M 77.5 140 L 78.5 142 L 77.5 140 Z " /><path fill="rgb(160,131,129)" stroke="rgb(160,131,129)" stroke-width="1" opacity="0.37254901960784315" d="M 56.5 141 L 57 142.5 L 53.5 149 L 53 147.5 L 56.5 141 Z " /><path fill="rgb(160,131,129)" stroke="rgb(160,131,129)" stroke-width="1" opacity="0.37254901960784315" d="M 140.5 142 L 141 146.5 L 140 146.5 L 140.5 142 Z " /><path fill="rgb(160,131,129)" stroke="rgb(160,131,129)" stroke-width="1" opacity="0.37254901960784315" d="M 200.5 143 L 201 148.5 L 200 148.5 L 200.5 143 Z " /><path fill="rgb(160,131,129)" stroke="rgb(160,131,129)" stroke-width="1" opacity="0.37254901960784315" d="M 55.5 153 L 59.5 158 L 55.5 153 Z " /><path fill="rgb(160,131,129)" stroke="rgb(160,131,129)" stroke-width="1" opacity="0.37254901960784315" d="M 200.5 154 L 201 158.5 L 200 158.5 L 200.5 154 Z " /><path fill="rgb(160,131,129)" stroke="rgb(160,131,129)" stroke-width="1" opacity="0.37254901960784315" d="M 132.5 155 L 131.5 157 L 132.5 155 Z " /><path fill="rgb(160,131,129)" stroke="rgb(160,131,129)" stroke-width="1" opacity="0.37254901960784315" d="M 130.5 158 L 129.5 160 L 130.5 158 Z " /><path fill="rgb(160,131,129)" stroke="rgb(160,131,129)" stroke-width="1" opacity="0.37254901960784315" d="M 127.5 161 L 126.5 163 L 127.5 161 Z " /><path fill="rgb(160,131,129)" stroke="rgb(160,131,129)" stroke-width="1" opacity="0.37254901960784315" d="M 63.5 162 L 67.5 167 L 63.5 162 Z " /><path fill="rgb(160,131,129)" stroke="rgb(160,131,129)" stroke-width="1" opacity="0.37254901960784315" d="M 200.5 162 L 201 174.5 L 200 174.5 L 200.5 162 Z " /><path fill="rgb(160,131,129)" stroke="rgb(160,131,129)" stroke-width="1" opacity="0.37254901960784315" d="M 121.5 168 L 120.5 170 L 121.5 168 Z " /><path fill="rgb(160,131,129)" stroke="rgb(160,131,129)" stroke-width="1" opacity="0.37254901960784315" d="M 66.5 171 L 65.5 173 L 66.5 171 Z " /><path fill="rgb(160,131,129)" stroke="rgb(160,131,129)" stroke-width="1" opacity="0.37254901960784315" d="M 117.5 172 L 115 175.5 L 117 178.5 L 114 176.5 L 117.5 172 Z " /><path fill="rgb(160,131,129)" stroke="rgb(160,131,129)" stroke-width="1" opacity="0.37254901960784315" d="M 63.5 175 L 62.5 177 L 63.5 175 Z " /><path fill="rgb(160,131,129)" stroke="rgb(160,131,129)" stroke-width="1" opacity="0.37254901960784315" d="M 204.5 176 L 211 176.5 L 204.5 177 L 204.5 176 Z " /><path fill="rgb(160,131,129)" stroke="rgb(160,131,129)" stroke-width="1" opacity="0.37254901960784315" d="M 221.5 178 L 220.5 180 L 221.5 178 Z " /><path fill="rgb(160,131,129)" stroke="rgb(160,131,129)" stroke-width="1" opacity="0.37254901960784315" d="M 58.5 181 L 56.5 184 L 58.5 181 Z " /><path fill="rgb(160,131,129)" stroke="rgb(160,131,129)" stroke-width="1" opacity="0.37254901960784315" d="M 145.5 182 L 146.5 184 L 145.5 182 Z " /><path fill="rgb(160,131,129)" stroke="rgb(160,131,129)" stroke-width="1" opacity="0.37254901960784315" d="M 52.5 188 L 50.5 191 L 52.5 188 Z " /><path fill="rgb(160,131,129)" stroke="rgb(160,131,129)" stroke-width="1" opacity="0.37254901960784315" d="M 149.5 188 L 151.5 191 L 149.5 188 Z " /><path fill="rgb(160,131,129)" stroke="rgb(160,131,129)" stroke-width="1" opacity="0.37254901960784315" d="M 90.5 189 L 91.5 191 L 90.5 189 Z " /><path fill="rgb(160,131,129)" stroke="rgb(160,131,129)" stroke-width="1" opacity="0.37254901960784315" d="M 128.5 189 L 129 190.5 L 127 191.5 L 128.5 189 Z " /><path fill="rgb(160,131,129)" stroke="rgb(160,131,129)" stroke-width="1" opacity="0.37254901960784315" d="M 88.5 190 L 84.5 195 L 88.5 190 Z " /><path fill="rgb(160,131,129)" stroke="rgb(160,131,129)" stroke-width="1" opacity="0.37254901960784315" d="M 211.5 193 L 210.5 195 L 211.5 193 Z " /><path fill="rgb(160,131,129)" stroke="rgb(160,131,129)" stroke-width="1" opacity="0.37254901960784315" d="M 121.5 194 L 120.5 196 L 121.5 194 Z " /><path fill="rgb(160,131,129)" stroke="rgb(160,131,129)" stroke-width="1" opacity="0.37254901960784315" d="M 82.5 196 L 81.5 198 L 82.5 196 Z " /><path fill="rgb(160,131,129)" stroke="rgb(160,131,129)" stroke-width="1" opacity="0.37254901960784315" d="M 98.5 196 L 99.5 198 L 98.5 196 Z " /><path fill="rgb(160,131,129)" stroke="rgb(160,131,129)" stroke-width="1" opacity="0.37254901960784315" d="M 118.5 196 L 117.5 198 L 118.5 196 Z " /><path fill="rgb(160,131,129)" stroke="rgb(160,131,129)" stroke-width="1" opacity="0.37254901960784315" d="M 209.5 196 L 208.5 198 L 209.5 196 Z " /><path fill="rgb(160,131,129)" stroke="rgb(160,131,129)" stroke-width="1" opacity="0.37254901960784315" d="M 34.5 198 L 37 198.5 L 34.5 199 L 34.5 198 Z " /><path fill="rgb(160,131,129)" stroke="rgb(160,131,129)" stroke-width="1" opacity="0.37254901960784315" d="M 32.5 199 L 33 200.5 L 31 201.5 L 32.5 199 Z " /><path fill="rgb(160,131,129)" stroke="rgb(160,131,129)" stroke-width="1" opacity="0.37254901960784315" d="M 102.5 199 L 105.5 203 L 102.5 199 Z " /><path fill="rgb(160,131,129)" stroke="rgb(160,131,129)" stroke-width="1" opacity="0.37254901960784315" d="M 78.5 200 L 74.5 205 L 78.5 200 Z " /><path fill="rgb(160,131,129)" stroke="rgb(160,131,129)" stroke-width="1" opacity="0.37254901960784315" d="M 159.5 202 L 160.5 204 L 159.5 202 Z " /><path fill="rgb(160,131,129)" stroke="rgb(160,131,129)" stroke-width="1" opacity="0.37254901960784315" d="M 69.5 209 L 67.5 212 L 69.5 209 Z " /><path fill="rgb(160,131,129)" stroke="rgb(160,131,129)" stroke-width="1" opacity="0.37254901960784315" d="M 200.5 209 L 199.5 211 L 200.5 209 Z " /><path fill="rgb(160,131,129)" stroke="rgb(160,131,129)" stroke-width="1" opacity="0.37254901960784315" d="M 30.5 212 L 32 215.5 L 31 215.5 L 30.5 212 Z " /><path fill="rgb(160,131,129)" stroke="rgb(160,131,129)" stroke-width="1" opacity="0.37254901960784315" d="M 64.5 213 L 65 217.5 L 64 217.5 L 64.5 213 Z " /><path fill="rgb(160,131,129)" stroke="rgb(160,131,129)" stroke-width="1" opacity="0.37254901960784315" d="M 195.5 216 L 194.5 218 L 195.5 216 Z " /><path fill="rgb(160,131,129)" stroke="rgb(160,131,129)" stroke-width="1" opacity="0.37254901960784315" d="M 32.5 217 L 34 219.5 L 32 218.5 L 32.5 217 Z " /><path fill="rgb(160,131,129)" stroke="rgb(160,131,129)" stroke-width="1" opacity="0.37254901960784315" d="M 170.5 218 L 171.5 220 L 170.5 218 Z " /><path fill="rgb(160,131,129)" stroke="rgb(160,131,129)" stroke-width="1" opacity="0.37254901960784315" d="M 192.5 220 L 191.5 222 L 192.5 220 Z " /><path fill="rgb(160,131,129)" stroke="rgb(160,131,129)" stroke-width="1" opacity="0.37254901960784315" d="M 35.5 223 L 36.5 225 L 35.5 223 Z " /><path fill="rgb(160,131,129)" stroke="rgb(160,131,129)" stroke-width="1" opacity="0.37254901960784315" d="M 38.5 225 L 41 226.5 L 39.5 227 L 38.5 225 Z " /><path fill="rgb(160,131,129)" stroke="rgb(160,131,129)" stroke-width="1" opacity="0.37254901960784315" d="M 188.5 226 L 187.5 228 L 188.5 226 Z " /><path fill="rgb(160,131,129)" stroke="rgb(160,131,129)" stroke-width="1" opacity="0.37254901960784315" d="M 60.5 228 L 59.5 230 L 60.5 228 Z " /><path fill="rgb(160,131,129)" stroke="rgb(160,131,129)" stroke-width="1" opacity="0.37254901960784315" d="M 179.5 231 L 180.5 233 L 179.5 231 Z " /><path fill="rgb(160,131,129)" stroke="rgb(160,131,129)" stroke-width="1" opacity="0.37254901960784315" d="M 183.5 233 L 182.5 235 L 181 234.5 L 183.5 233 Z " /><path fill="rgb(2,3,3)" stroke="rgb(2,3,3)" stroke-width="1" opacity="0.996078431372549" d="M 218.5 28 L 218 29.5 L 211 68.5 L 190.5 92 Q 188.3 91.3 189 93.5 L 149.5 134 L 149 118.5 L 149.5 117 L 138 120 L 139 117.5 L 140 103 L 126 106 L 127 94.5 L 127 92.5 L 133 84.5 L 176.5 40 L 211.5 31 L 218.5 28 Z M 207 38 L 187 45 L 180 46 L 133 95 L 133 99 L 146 96 L 145 100 Q 143 105 147 104 L 147 103 L 168 81 L 182 68 L 175 78 L 145 111 L 144 113 L 154 110 L 155 120 L 203 69 L 210 40 Q 211 36 207 38 Z " /><path fill="rgb(2,3,3)" stroke="rgb(2,3,3)" stroke-width="1" opacity="0.996078431372549" d="M 114.5 105 Q 117.9 104.1 116 109.5 L 118 118 L 131 116 L 130 130 L 140 128 L 140 146.5 L 113 176.5 L 121 183 Q 119.9 185.7 122.5 185 L 127 191 L 110.5 200 L 105.5 201 L 90.5 188 L 64.5 213 L 63 213 Q 64.9 215.7 64 222.5 L 62 227 L 57.5 230 L 47.5 230 L 36 222.5 Q 31.5 216.5 30 207.5 L 33 200 Q 37.2 198.1 45.5 199 L 47 197.5 L 60 180 Q 62.7 181.1 62 178.5 L 70 168.5 L 54 150.5 L 54 148.5 L 64.5 129 L 78.5 143 L 80.5 143 L 114.5 105 Z M 112 117 L 84 148 L 84 150 L 90 157 L 94 158 L 127 124 L 126 121 L 114 124 L 113 122 Q 115 116 112 117 Z M 124 134 L 98 163 L 106 171 L 114 162 L 124 153 L 134 142 L 134 135 L 125 139 L 124 134 Z M 68 140 L 63 149 L 64 151 L 107 191 L 114 189 L 115 187 L 104 177 L 69 142 Q 70 139 68 140 Z M 76 175 Q 78 180 77 189 L 83 184 L 82 180 L 76 175 Z M 72 179 L 65 186 L 66 199 L 73 194 Q 74 184 72 179 Z M 59 192 L 55 199 L 62 201 L 63 202 Q 64 197 62 196 Q 64 190 59 192 Z M 52 202 L 52 204 L 51 205 L 56 209 Q 60 210 61 206 L 52 202 Z M 41 205 L 38 208 Q 37 214 41 217 L 50 223 Q 55 224 56 221 L 55 215 L 45 205 L 41 205 Z " /><path fill="rgb(2,3,3)" stroke="rgb(2,3,3)" stroke-width="1" opacity="0.996078431372549" d="M 198.5 132 L 200 132.5 L 200 141.5 L 199 142.5 L 199 158.5 L 200 159.5 L 200 178 L 205.5 177 L 220.5 177 L 219 179.5 L 182.5 233 L 144 178.5 L 165 178 L 165 133 L 197.5 133 L 198.5 132 Z M 193 138 L 192 139 L 170 139 L 171 184 L 155 185 L 183 223 L 208 187 L 209 183 L 207 184 L 194 184 L 195 140 L 193 138 Z " /><path fill="rgb(36,22,21)" stroke="rgb(36,22,21)" stroke-width="1" opacity="0.8823529411764706" d="M 217.5 28 Q 219.8 28.8 219 32.5 L 218 32.5 L 217.5 28 Z " /><path fill="rgb(36,22,21)" stroke="rgb(36,22,21)" stroke-width="1" opacity="0.8823529411764706" d="M 212.5 29 L 215 29.5 L 205.5 32 L 205.5 31 L 212.5 29 Z " /><path fill="rgb(36,22,21)" stroke="rgb(36,22,21)" stroke-width="1" opacity="0.8823529411764706" d="M 201.5 32 L 204 32.5 L 201.5 33 L 201.5 32 Z " /><path fill="rgb(36,22,21)" stroke="rgb(36,22,21)" stroke-width="1" opacity="0.8823529411764706" d="M 194.5 34 L 197 34.5 L 194.5 35 L 194.5 34 Z " /><path fill="rgb(36,22,21)" stroke="rgb(36,22,21)" stroke-width="1" opacity="0.8823529411764706" d="M 217.5 34 L 218 37.5 L 217 37.5 L 217.5 34 Z " /><path fill="rgb(36,22,21)" stroke="rgb(36,22,21)" stroke-width="1" opacity="0.8823529411764706" d="M 190.5 35 L 193 35.5 L 187.5 37 L 187.5 36 L 190.5 35 Z " /><path fill="rgb(36,22,21)" stroke="rgb(36,22,21)" stroke-width="1" opacity="0.8823529411764706" d="M 183.5 37 L 186 37.5 L 183.5 38 L 183.5 37 Z " /><path fill="rgb(36,22,21)" stroke="rgb(36,22,21)" stroke-width="1" opacity="0.8823529411764706" d="M 180.5 38 L 182 38.5 L 177.5 40 L 177.5 39 L 180.5 38 Z " /><path fill="rgb(36,22,21)" stroke="rgb(36,22,21)" stroke-width="1" opacity="0.8823529411764706" d="M 216.5 39 L 217 42.5 L 216 42.5 L 216.5 39 Z " /><path fill="rgb(36,22,21)" stroke="rgb(36,22,21)" stroke-width="1" opacity="0.8823529411764706" d="M 175.5 40 L 170.5 46 L 175.5 40 Z " /><path fill="rgb(36,22,21)" stroke="rgb(36,22,21)" stroke-width="1" opacity="0.8823529411764706" d="M 215.5 44 L 216 46.5 L 215 46.5 L 215.5 44 Z " /><path fill="rgb(36,22,21)" stroke="rgb(36,22,21)" stroke-width="1" opacity="0.8823529411764706" d="M 168.5 47 L 167 49.5 L 135.5 82 L 166 50.5 L 168.5 47 Z " /><path fill="rgb(36,22,21)" stroke="rgb(36,22,21)" stroke-width="1" opacity="0.8823529411764706" d="M 214.5 49 L 215 52.5 L 214 52.5 L 214.5 49 Z " /><path fill="rgb(36,22,21)" stroke="rgb(36,22,21)" stroke-width="1" opacity="0.8823529411764706" d="M 213.5 54 L 214 57.5 L 213 57.5 L 213.5 54 Z " /><path fill="rgb(36,22,21)" stroke="rgb(36,22,21)" stroke-width="1" opacity="0.8823529411764706" d="M 170.5 55 L 161.5 65 L 170.5 55 Z " /><path fill="rgb(36,22,21)" stroke="rgb(36,22,21)" stroke-width="1" opacity="0.8823529411764706" d="M 212.5 60 L 213 62.5 L 212 62.5 L 212.5 60 Z " /><path fill="rgb(36,22,21)" stroke="rgb(36,22,21)" stroke-width="1" opacity="0.8823529411764706" d="M 203.5 64 L 204 66.5 L 203 66.5 L 203.5 64 Z " /><path fill="rgb(36,22,21)" stroke="rgb(36,22,21)" stroke-width="1" opacity="0.8823529411764706" d="M 183.5 65 L 184 66.5 L 182 67.5 L 183.5 65 Z " /><path fill="rgb(36,22,21)" stroke="rgb(36,22,21)" stroke-width="1" opacity="0.8823529411764706" d="M 211.5 65 L 212 67.5 L 211 67.5 L 211.5 65 Z " /><path fill="rgb(36,22,21)" stroke="rgb(36,22,21)" stroke-width="1" opacity="0.8823529411764706" d="M 202.5 68 L 190.5 81 L 202.5 68 Z " /><path fill="rgb(36,22,21)" stroke="rgb(36,22,21)" stroke-width="1" opacity="0.8823529411764706" d="M 210.5 69 L 211 70.5 L 204.5 78 L 204 76.5 L 210.5 69 Z " /><path fill="rgb(36,22,21)" stroke="rgb(36,22,21)" stroke-width="1" opacity="0.8823529411764706" d="M 180.5 70 L 179.5 72 L 180.5 70 Z " /><path fill="rgb(36,22,21)" stroke="rgb(36,22,21)" stroke-width="1" opacity="0.8823529411764706" d="M 153.5 73 L 147.5 80 L 153.5 73 Z " /><path fill="rgb(36,22,21)" stroke="rgb(36,22,21)" stroke-width="1" opacity="0.8823529411764706" d="M 177.5 74 L 175.5 77 L 177.5 74 Z " /><path fill="rgb(36,22,21)" stroke="rgb(36,22,21)" stroke-width="1" opacity="0.8823529411764706" d="M 202.5 79 L 198 84.5 L 149.5 135 L 153 130.5 L 189 93.5 L 189 92 L 197 85.5 L 202.5 79 Z " /><path fill="rgb(36,22,21)" stroke="rgb(36,22,21)" stroke-width="1" opacity="0.8823529411764706" d="M 167.5 81 L 156.5 93 L 167.5 81 Z " /><path fill="rgb(36,22,21)" stroke="rgb(36,22,21)" stroke-width="1" opacity="0.8823529411764706" d="M 133.5 83 L 133 84.5 L 126.5 93 L 126 91.5 L 133.5 83 Z " /><path fill="rgb(36,22,21)" stroke="rgb(36,22,21)" stroke-width="1" opacity="0.8823529411764706" d="M 169.5 83 L 164.5 89 L 169.5 83 Z " /><path fill="rgb(36,22,21)" stroke="rgb(36,22,21)" stroke-width="1" opacity="0.8823529411764706" d="M 185.5 86 L 180.5 92 L 185.5 86 Z " /><path fill="rgb(36,22,21)" stroke="rgb(36,22,21)" stroke-width="1" opacity="0.8823529411764706" d="M 135.5 92 L 134 94.5 L 133.5 96 L 133 94.5 L 135.5 92 Z " /><path fill="rgb(36,22,21)" stroke="rgb(36,22,21)" stroke-width="1" opacity="0.8823529411764706" d="M 126.5 94 L 127 98.5 L 126 98.5 L 126.5 94 Z " /><path fill="rgb(36,22,21)" stroke="rgb(36,22,21)" stroke-width="1" opacity="0.8823529411764706" d="M 159.5 94 L 154.5 100 L 159.5 94 Z " /><path fill="rgb(36,22,21)" stroke="rgb(36,22,21)" stroke-width="1" opacity="0.8823529411764706" d="M 145.5 99 L 146 101.5 L 145 101.5 L 145.5 99 Z " /><path fill="rgb(36,22,21)" stroke="rgb(36,22,21)" stroke-width="1" opacity="0.8823529411764706" d="M 172.5 100 L 167.5 106 L 172.5 100 Z " /><path fill="rgb(36,22,21)" stroke="rgb(36,22,21)" stroke-width="1" opacity="0.8823529411764706" d="M 115.5 103 L 116 105 L 112.5 107 L 115.5 103 Z " /><path fill="rgb(36,22,21)" stroke="rgb(36,22,21)" stroke-width="1" opacity="0.8823529411764706" d="M 137.5 103 L 140 103.5 L 140 110.5 L 139 110.5 Q 140.5 103.5 137.5 104 L 137.5 103 Z " /><path fill="rgb(36,22,21)" stroke="rgb(36,22,21)" stroke-width="1" opacity="0.8823529411764706" d="M 132.5 104 L 136 104.5 L 132.5 105 L 132.5 104 Z " /><path fill="rgb(36,22,21)" stroke="rgb(36,22,21)" stroke-width="1" opacity="0.8823529411764706" d="M 128.5 105 L 131 105.5 L 128.5 106 L 128.5 105 Z " /><path fill="rgb(36,22,21)" stroke="rgb(36,22,21)" stroke-width="1" opacity="0.8823529411764706" d="M 149.5 105 L 145.5 110 L 149.5 105 Z " /><path fill="rgb(36,22,21)" stroke="rgb(36,22,21)" stroke-width="1" opacity="0.8823529411764706" d="M 116.5 107 L 117 109.5 L 116 109.5 L 116.5 107 Z " /><path fill="rgb(36,22,21)" stroke="rgb(36,22,21)" stroke-width="1" opacity="0.8823529411764706" d="M 110.5 108 L 111 109.5 L 104 115.5 L 110.5 108 Z " /><path fill="rgb(36,22,21)" stroke="rgb(36,22,21)" stroke-width="1" opacity="0.8823529411764706" d="M 117.5 111 L 118 115.5 L 117 115.5 L 117.5 111 Z " /><path fill="rgb(36,22,21)" stroke="rgb(36,22,21)" stroke-width="1" opacity="0.8823529411764706" d="M 138.5 113 L 139 117.5 L 138 117.5 L 138.5 113 Z " /><path fill="rgb(36,22,21)" stroke="rgb(36,22,21)" stroke-width="1" opacity="0.8823529411764706" d="M 129.5 115 Q 133.7 113.7 132 118.5 L 131 118.5 Q 132.1 115.2 129.5 116 L 129.5 115 Z " /><path fill="rgb(36,22,21)" stroke="rgb(36,22,21)" stroke-width="1" opacity="0.8823529411764706" d="M 123.5 116 L 127 116.5 L 123.5 117 L 123.5 116 Z " /><path fill="rgb(36,22,21)" stroke="rgb(36,22,21)" stroke-width="1" opacity="0.8823529411764706" d="M 157.5 116 L 154.5 120 L 157.5 116 Z " /><path fill="rgb(36,22,21)" stroke="rgb(36,22,21)" stroke-width="1" opacity="0.8823529411764706" d="M 111.5 117 Q 114.1 116.2 113 119.5 L 112 119.5 L 111.5 118 L 109 119.5 L 111.5 117 Z " /><path fill="rgb(36,22,21)" stroke="rgb(36,22,21)" stroke-width="1" opacity="0.8823529411764706" d="M 118.5 117 L 122 117.5 L 118.5 118 L 118.5 117 Z " /><path fill="rgb(36,22,21)" stroke="rgb(36,22,21)" stroke-width="1" opacity="0.8823529411764706" d="M 146.5 117 L 150 117.5 L 143.5 119 L 143.5 118 L 146.5 117 Z " /><path fill="rgb(36,22,21)" stroke="rgb(36,22,21)" stroke-width="1" opacity="0.8823529411764706" d="M 102.5 118 L 95.5 126 L 102.5 118 Z " /><path fill="rgb(36,22,21)" stroke="rgb(36,22,21)" stroke-width="1" opacity="0.8823529411764706" d="M 148.5 120 L 149 131.5 L 148 131.5 L 148.5 120 Z " /><path fill="rgb(36,22,21)" stroke="rgb(36,22,21)" stroke-width="1" opacity="0.8823529411764706" d="M 125.5 121 L 127 123.5 L 125 124.5 L 126 122.5 L 125.5 121 Z " /><path fill="rgb(36,22,21)" stroke="rgb(36,22,21)" stroke-width="1" opacity="0.8823529411764706" d="M 113.5 122 L 115 124.5 L 113 123.5 L 113.5 122 Z " /><path fill="rgb(36,22,21)" stroke="rgb(36,22,21)" stroke-width="1" opacity="0.8823529411764706" d="M 130.5 122 L 131 129.5 L 130 129.5 L 130.5 122 Z " /><path fill="rgb(36,22,21)" stroke="rgb(36,22,21)" stroke-width="1" opacity="0.8823529411764706" d="M 116.5 123 L 119 123.5 L 116.5 124 L 116.5 123 Z " /><path fill="rgb(36,22,21)" stroke="rgb(36,22,21)" stroke-width="1" opacity="0.8823529411764706" d="M 105.5 124 L 101.5 129 L 105.5 124 Z " /><path fill="rgb(36,22,21)" stroke="rgb(36,22,21)" stroke-width="1" opacity="0.8823529411764706" d="M 94.5 127 L 87.5 135 L 94.5 127 Z " /><path fill="rgb(36,22,21)" stroke="rgb(36,22,21)" stroke-width="1" opacity="0.8823529411764706" d="M 138.5 127 Q 143.1 125.7 141 131.5 L 140 131.5 Q 141.5 127.1 138.5 128 L 138.5 127 Z " /><path fill="rgb(36,22,21)" stroke="rgb(36,22,21)" stroke-width="1" opacity="0.8823529411764706" d="M 63.5 129 L 64 130.5 L 59.5 138 L 60 136.5 L 63.5 129 Z " /><path fill="rgb(36,22,21)" stroke="rgb(36,22,21)" stroke-width="1" opacity="0.8823529411764706" d="M 65.5 129 L 78.5 142 L 80.5 142 L 86 137.5 L 80.5 143 L 78.5 143 L 65.5 129 Z " /><path fill="rgb(36,22,21)" stroke="rgb(36,22,21)" stroke-width="1" opacity="0.8823529411764706" d="M 118.5 131 L 112.5 138 L 118.5 131 Z " /><path fill="rgb(36,22,21)" stroke="rgb(36,22,21)" stroke-width="1" opacity="0.8823529411764706" d="M 183.5 132 L 198 132.5 L 183.5 133 L 183.5 132 Z " /><path fill="rgb(36,22,21)" stroke="rgb(36,22,21)" stroke-width="1" opacity="0.8823529411764706" d="M 164.5 133 L 165 177.5 L 164 177.5 L 164.5 133 Z " /><path fill="rgb(36,22,21)" stroke="rgb(36,22,21)" stroke-width="1" opacity="0.8823529411764706" d="M 200.5 133 L 201 135.5 L 200 135.5 L 200.5 133 Z " /><path fill="rgb(36,22,21)" stroke="rgb(36,22,21)" stroke-width="1" opacity="0.8823529411764706" d="M 123.5 134 L 119.5 139 L 123.5 134 Z " /><path fill="rgb(36,22,21)" stroke="rgb(36,22,21)" stroke-width="1" opacity="0.8823529411764706" d="M 95.5 135 L 93.5 138 L 95.5 135 Z " /><path fill="rgb(36,22,21)" stroke="rgb(36,22,21)" stroke-width="1" opacity="0.8823529411764706" d="M 133.5 135 L 134 141.5 L 133 141.5 L 133.5 135 Z " /><path fill="rgb(36,22,21)" stroke="rgb(36,22,21)" stroke-width="1" opacity="0.8823529411764706" d="M 192.5 138 L 195 139.5 L 194.5 152 L 194 139 L 192.5 138 Z " /><path fill="rgb(36,22,21)" stroke="rgb(36,22,21)" stroke-width="1" opacity="0.8823529411764706" d="M 170.5 139 L 171 154.5 L 170 154.5 L 170.5 139 Z " /><path fill="rgb(36,22,21)" stroke="rgb(36,22,21)" stroke-width="1" opacity="0.8823529411764706" d="M 89.5 142 L 84.5 148 L 89.5 142 Z " /><path fill="rgb(36,22,21)" stroke="rgb(36,22,21)" stroke-width="1" opacity="0.8823529411764706" d="M 199.5 142 L 200 158.5 L 199 158.5 L 199.5 142 Z " /><path fill="rgb(36,22,21)" stroke="rgb(36,22,21)" stroke-width="1" opacity="0.8823529411764706" d="M 114.5 144 L 111.5 148 L 114.5 144 Z " /><path fill="rgb(36,22,21)" stroke="rgb(36,22,21)" stroke-width="1" opacity="0.8823529411764706" d="M 131.5 144 L 123.5 153 L 131.5 144 Z " /><path fill="rgb(36,22,21)" stroke="rgb(36,22,21)" stroke-width="1" opacity="0.8823529411764706" d="M 72.5 145 L 76.5 150 L 72.5 145 Z " /><path fill="rgb(36,22,21)" stroke="rgb(36,22,21)" stroke-width="1" opacity="0.8823529411764706" d="M 139.5 147 L 131 156.5 L 124.5 165 L 125 163.5 L 139.5 147 Z " /><path fill="rgb(36,22,21)" stroke="rgb(36,22,21)" stroke-width="1" opacity="0.8823529411764706" d="M 53.5 149 L 70 168.5 L 68 167.5 L 53 150.5 L 53.5 149 Z " /><path fill="rgb(36,22,21)" stroke="rgb(36,22,21)" stroke-width="1" opacity="0.8823529411764706" d="M 100.5 150 L 93.5 158 L 100.5 150 Z " /><path fill="rgb(36,22,21)" stroke="rgb(36,22,21)" stroke-width="1" opacity="0.8823529411764706" d="M 106.5 153 L 103.5 157 L 106.5 153 Z " /><path fill="rgb(36,22,21)" stroke="rgb(36,22,21)" stroke-width="1" opacity="0.8823529411764706" d="M 90.5 156 L 91.5 158 L 90.5 156 Z " /><path fill="rgb(36,22,21)" stroke="rgb(36,22,21)" stroke-width="1" opacity="0.8823529411764706" d="M 73.5 159 L 77.5 164 L 73.5 159 Z " /><path fill="rgb(36,22,21)" stroke="rgb(36,22,21)" stroke-width="1" opacity="0.8823529411764706" d="M 98.5 162 L 106 170.5 L 98 163.5 L 98.5 162 Z " /><path fill="rgb(36,22,21)" stroke="rgb(36,22,21)" stroke-width="1" opacity="0.8823529411764706" d="M 113.5 162 L 109.5 167 L 113.5 162 Z " /><path fill="rgb(36,22,21)" stroke="rgb(36,22,21)" stroke-width="1" opacity="0.8823529411764706" d="M 122.5 166 L 114 175.5 L 120 182.5 L 113 176.5 L 122.5 166 Z " /><path fill="rgb(36,22,21)" stroke="rgb(36,22,21)" stroke-width="1" opacity="0.8823529411764706" d="M 193.5 168 L 194 181.5 L 193 181.5 L 193.5 168 Z " /><path fill="rgb(36,22,21)" stroke="rgb(36,22,21)" stroke-width="1" opacity="0.8823529411764706" d="M 67.5 171 L 65 174.5 L 62 180 Q 59.3 178.9 60 181.5 L 50.5 192 L 55 186.5 L 67.5 171 Z " /><path fill="rgb(36,22,21)" stroke="rgb(36,22,21)" stroke-width="1" opacity="0.8823529411764706" d="M 76 175 L 82 179.5 L 77 176.5 L 76.5 179 L 76 175 Z " /><path fill="rgb(36,22,21)" stroke="rgb(36,22,21)" stroke-width="1" opacity="0.8823529411764706" d="M 200.5 175 L 201 177 L 205 177.5 L 200 178 L 200.5 175 Z " /><path fill="rgb(36,22,21)" stroke="rgb(36,22,21)" stroke-width="1" opacity="0.8823529411764706" d="M 213.5 176 L 221.5 176 L 222 177.5 L 218.5 182 L 219 180.5 L 221 177.5 L 213.5 177 L 213.5 176 Z " /><path fill="rgb(36,22,21)" stroke="rgb(36,22,21)" stroke-width="1" opacity="0.8823529411764706" d="M 104.5 177 L 105.5 179 L 104.5 177 Z " /><path fill="rgb(36,22,21)" stroke="rgb(36,22,21)" stroke-width="1" opacity="0.8823529411764706" d="M 143 177 L 162 177.5 L 144 178.5 L 147 182.5 L 144 180.5 L 143 177 Z " /><path fill="rgb(36,22,21)" stroke="rgb(36,22,21)" stroke-width="1" opacity="0.8823529411764706" d="M 71.5 179 L 66 185.5 L 65.5 187 L 65 185.5 L 71.5 179 Z " /><path fill="rgb(36,22,21)" stroke="rgb(36,22,21)" stroke-width="1" opacity="0.8823529411764706" d="M 108.5 180 L 114.5 187 L 108.5 180 Z " /><path fill="rgb(36,22,21)" stroke="rgb(36,22,21)" stroke-width="1" opacity="0.8823529411764706" d="M 82.5 181 L 83 183.5 L 77 188.5 Q 81.9 186.9 82.5 181 Z " /><path fill="rgb(36,22,21)" stroke="rgb(36,22,21)" stroke-width="1" opacity="0.8823529411764706" d="M 72.5 183 L 73 193.5 L 66 199 L 66.5 195 L 67.5 198 L 72 193.5 L 72.5 183 Z " /><path fill="rgb(36,22,21)" stroke="rgb(36,22,21)" stroke-width="1" opacity="0.8823529411764706" d="M 217.5 183 L 216.5 185 L 217.5 183 Z " /><path fill="rgb(36,22,21)" stroke="rgb(36,22,21)" stroke-width="1" opacity="0.8823529411764706" d="M 121.5 184 L 128 189.5 L 126.5 192 L 119.5 196 L 121.5 193 L 127 191 L 122.5 185 L 121.5 184 Z " /><path fill="rgb(36,22,21)" stroke="rgb(36,22,21)" stroke-width="1" opacity="0.8823529411764706" d="M 147.5 184 L 152 189.5 L 149 187.5 L 147.5 184 Z " /><path fill="rgb(36,22,21)" stroke="rgb(36,22,21)" stroke-width="1" opacity="0.8823529411764706" d="M 101.5 186 L 102.5 188 L 101.5 186 Z " /><path fill="rgb(36,22,21)" stroke="rgb(36,22,21)" stroke-width="1" opacity="0.8823529411764706" d="M 215.5 186 L 214.5 188 L 215.5 186 Z " /><path fill="rgb(36,22,21)" stroke="rgb(36,22,21)" stroke-width="1" opacity="0.8823529411764706" d="M 65.5 188 L 66 191.5 L 65 191.5 L 65.5 188 Z " /><path fill="rgb(36,22,21)" stroke="rgb(36,22,21)" stroke-width="1" opacity="0.8823529411764706" d="M 90.5 188 L 101 197.5 L 94.5 192 L 90.5 188 Z " /><path fill="rgb(36,22,21)" stroke="rgb(36,22,21)" stroke-width="1" opacity="0.8823529411764706" d="M 88.5 189 L 65.5 213 L 88.5 189 Z " /><path fill="rgb(36,22,21)" stroke="rgb(36,22,21)" stroke-width="1" opacity="0.8823529411764706" d="M 205.5 189 L 204.5 191 L 205.5 189 Z " /><path fill="rgb(36,22,21)" stroke="rgb(36,22,21)" stroke-width="1" opacity="0.8823529411764706" d="M 213.5 189 L 212.5 191 L 213.5 189 Z " /><path fill="rgb(36,22,21)" stroke="rgb(36,22,21)" stroke-width="1" opacity="0.8823529411764706" d="M 152.5 191 L 162 203.5 L 159 201.5 L 152.5 191 Z " /><path fill="rgb(36,22,21)" stroke="rgb(36,22,21)" stroke-width="1" opacity="0.8823529411764706" d="M 211.5 192 L 210 194.5 L 201.5 207 L 203 204.5 L 211.5 192 Z " /><path fill="rgb(36,22,21)" stroke="rgb(36,22,21)" stroke-width="1" opacity="0.8823529411764706" d="M 49.5 193 L 47.5 196 L 49.5 193 Z " /><path fill="rgb(36,22,21)" stroke="rgb(36,22,21)" stroke-width="1" opacity="0.8823529411764706" d="M 161.5 193 L 162.5 195 L 161.5 193 Z " /><path fill="rgb(36,22,21)" stroke="rgb(36,22,21)" stroke-width="1" opacity="0.8823529411764706" d="M 58.5 194 L 56 197.5 L 55.5 199 L 55 197.5 L 58.5 194 Z " /><path fill="rgb(36,22,21)" stroke="rgb(36,22,21)" stroke-width="1" opacity="0.8823529411764706" d="M 62.5 196 L 63 198.5 L 62 198.5 L 62.5 196 Z " /><path fill="rgb(36,22,21)" stroke="rgb(36,22,21)" stroke-width="1" opacity="0.8823529411764706" d="M 46.5 197 L 45.5 199 L 46.5 197 Z " /><path fill="rgb(36,22,21)" stroke="rgb(36,22,21)" stroke-width="1" opacity="0.8823529411764706" d="M 37.5 198 L 44 198.5 L 37.5 199 L 37.5 198 Z " /><path fill="rgb(36,22,21)" stroke="rgb(36,22,21)" stroke-width="1" opacity="0.8823529411764706" d="M 102.5 198 Q 103 201.5 107.5 201 L 109.5 200 L 109.5 201 L 105.5 202 L 102.5 198 Z " /><path fill="rgb(36,22,21)" stroke="rgb(36,22,21)" stroke-width="1" opacity="0.8823529411764706" d="M 33.5 199 L 36 199.5 L 33.5 200 L 33.5 199 Z " /><path fill="rgb(36,22,21)" stroke="rgb(36,22,21)" stroke-width="1" opacity="0.8823529411764706" d="M 198.5 199 L 197.5 201 L 198.5 199 Z " /><path fill="rgb(36,22,21)" stroke="rgb(36,22,21)" stroke-width="1" opacity="0.8823529411764706" d="M 168.5 203 L 169.5 205 L 168.5 203 Z " /><path fill="rgb(36,22,21)" stroke="rgb(36,22,21)" stroke-width="1" opacity="0.8823529411764706" d="M 51.5 204 L 55.5 209 L 51.5 204 Z " /><path fill="rgb(36,22,21)" stroke="rgb(36,22,21)" stroke-width="1" opacity="0.8823529411764706" d="M 58.5 204 L 61 205.5 L 57 208.5 L 59.5 205 L 58.5 204 Z " /><path fill="rgb(36,22,21)" stroke="rgb(36,22,21)" stroke-width="1" opacity="0.8823529411764706" d="M 40.5 205 L 45 205.5 L 40.5 206 L 40.5 205 Z " /><path fill="rgb(36,22,21)" stroke="rgb(36,22,21)" stroke-width="1" opacity="0.8823529411764706" d="M 162.5 205 L 163.5 207 L 162.5 205 Z " /><path fill="rgb(36,22,21)" stroke="rgb(36,22,21)" stroke-width="1" opacity="0.8823529411764706" d="M 47.5 207 L 48.5 209 L 47.5 207 Z " /><path fill="rgb(36,22,21)" stroke="rgb(36,22,21)" stroke-width="1" opacity="0.8823529411764706" d="M 164.5 208 L 165.5 210 L 164.5 208 Z " /><path fill="rgb(36,22,21)" stroke="rgb(36,22,21)" stroke-width="1" opacity="0.8823529411764706" d="M 200.5 208 L 199 210.5 L 193.5 218 L 195 215.5 L 200.5 208 Z " /><path fill="rgb(36,22,21)" stroke="rgb(36,22,21)" stroke-width="1" opacity="0.8823529411764706" d="M 30.5 209 L 31 211.5 L 30 211.5 L 30.5 209 Z " /><path fill="rgb(36,22,21)" stroke="rgb(36,22,21)" stroke-width="1" opacity="0.8823529411764706" d="M 173.5 210 L 174.5 212 L 173.5 210 Z " /><path fill="rgb(36,22,21)" stroke="rgb(36,22,21)" stroke-width="1" opacity="0.8823529411764706" d="M 166.5 211 L 167.5 213 L 166.5 211 Z " /><path fill="rgb(36,22,21)" stroke="rgb(36,22,21)" stroke-width="1" opacity="0.8823529411764706" d="M 39.5 213 L 40.5 215 L 39.5 213 Z " /><path fill="rgb(36,22,21)" stroke="rgb(36,22,21)" stroke-width="1" opacity="0.8823529411764706" d="M 53.5 213 L 54.5 215 L 53.5 213 Z " /><path fill="rgb(36,22,21)" stroke="rgb(36,22,21)" stroke-width="1" opacity="0.8823529411764706" d="M 168.5 214 L 169.5 216 L 168.5 214 Z " /><path fill="rgb(36,22,21)" stroke="rgb(36,22,21)" stroke-width="1" opacity="0.8823529411764706" d="M 41.5 216 L 44.5 220 L 41.5 216 Z " /><path fill="rgb(36,22,21)" stroke="rgb(36,22,21)" stroke-width="1" opacity="0.8823529411764706" d="M 55.5 216 L 56 220.5 L 55 220.5 L 55.5 216 Z " /><path fill="rgb(36,22,21)" stroke="rgb(36,22,21)" stroke-width="1" opacity="0.8823529411764706" d="M 170.5 217 L 179 228.5 L 176 226.5 L 170.5 217 Z " /><path fill="rgb(36,22,21)" stroke="rgb(36,22,21)" stroke-width="1" opacity="0.8823529411764706" d="M 33.5 218 L 37.5 224 L 44 228.5 L 40.5 226 L 35 222.5 L 33.5 218 Z " /><path fill="rgb(36,22,21)" stroke="rgb(36,22,21)" stroke-width="1" opacity="0.8823529411764706" d="M 185.5 218 L 184.5 220 L 185.5 218 Z " /><path fill="rgb(36,22,21)" stroke="rgb(36,22,21)" stroke-width="1" opacity="0.8823529411764706" d="M 192.5 219 L 191 221.5 L 186.5 228 L 188 225.5 L 192.5 219 Z " /><path fill="rgb(36,22,21)" stroke="rgb(36,22,21)" stroke-width="1" opacity="0.8823529411764706" d="M 63.5 223 L 64 224.5 L 62 225.5 L 63.5 223 Z " /><path fill="rgb(36,22,21)" stroke="rgb(36,22,21)" stroke-width="1" opacity="0.8823529411764706" d="M 60.5 227 L 59 229.5 L 58.5 231 L 47.5 231 L 45 229.5 L 46.5 229 L 47.5 230 L 57.5 230 L 60.5 227 Z " /><path fill="rgb(36,22,21)" stroke="rgb(36,22,21)" stroke-width="1" opacity="0.8823529411764706" d="M 185.5 229 L 184.5 231 L 185.5 229 Z " /><path fill="rgb(36,22,21)" stroke="rgb(36,22,21)" stroke-width="1" opacity="0.8823529411764706" d="M 179.5 230 Q 181.7 234.3 184 232.5 L 181 234 L 179.5 230 Z " /></svg>