<svg width="256" height="256" version="1.1" xmlns="http://www.w3.org/2000/svg" desc="Created with imagetracer.js version 1.2.6" ><path fill="rgb(0,0,0)" stroke="rgb(0,0,0)" stroke-width="1" opacity="0" d="M 0 0 L 256 0 L 256 256 L 0 256 L 0 0 Z M 129 24 Q 130 27 127 26 L 125 34 L 125 36 Q 122 35 123 39 L 123 41 L 120 46 L 120 48 L 118 48 L 118 53 L 116 53 L 114 60 L 114 62 L 113 62 L 113 64 L 112 66 Q 109 67 111 69 Q 108 68 109 71 L 109 73 L 107 73 Q 108 77 105 80 L 105 82 L 103 82 L 103 86 L 102 86 L 102 88 L 100 91 L 100 93 L 98 93 L 98 98 Q 95 97 96 100 L 96 102 Q 93 101 94 104 L 94 106 L 90 107 L 88 111 Q 89 114 87 113 L 87 115 L 85 115 L 84 118 Q 85 121 82 120 L 81 123 Q 82 126 80 125 L 80 127 L 79 127 L 79 129 L 77 129 L 73 140 L 73 142 L 71 142 L 72 145 L 71 145 L 71 147 L 69 147 L 68 151 L 69 152 Q 66 151 67 156 L 67 158 L 66 160 L 66 173 L 66 175 Q 65 179 68 180 L 67 183 L 67 185 L 68 191 Q 71 192 69 194 L 71 198 L 73 202 L 72 203 L 74 203 L 74 205 L 77 207 L 76 209 L 82 213 L 81 215 L 86 217 L 87 220 L 94 224 Q 96 223 95 226 L 103 229 Q 104 227 106 230 L 108 229 L 111 230 L 115 230 L 117 232 L 120 231 L 122 232 L 125 233 L 143 233 L 145 232 L 148 231 Q 151 232 150 230 L 152 230 L 155 228 Q 158 229 157 226 L 163 224 L 164 221 L 168 218 L 169 221 L 170 221 Q 169 217 173 219 L 173 218 L 179 213 L 187 200 L 187 198 L 189 197 L 188 196 L 192 188 L 191 186 L 192 184 L 191 163 L 190 162 L 191 153 L 191 151 L 188 147 Q 189 142 187 143 L 186 141 Q 187 138 185 139 L 185 138 L 184 137 L 184 136 L 183 135 L 183 134 L 174 117 Q 175 113 173 114 L 173 113 L 169 108 Q 170 104 168 105 L 167 103 Q 168 100 165 101 L 164 98 Q 165 95 163 96 L 163 95 L 158 87 L 158 85 Q 153 81 153 75 L 150 76 Q 146 75 147 70 Q 144 68 146 66 Q 143 67 144 64 L 144 62 L 143 61 Q 144 59 141 58 L 142 57 L 135 37 Q 131 35 134 34 L 131 27 L 131 25 L 129 24 Z " /><path fill="rgb(0,0,0)" stroke="rgb(0,0,0)" stroke-width="1" opacity="0" d="M 149.5 77 L 152 78.5 Q 152.8 80.8 150.5 80 L 150.5 78 L 149.5 77 Z " /><path fill="rgb(4,6,5)" stroke="rgb(4,6,5)" stroke-width="1" opacity="0.984313725490196" d="M 129.5 24 L 142 60.5 L 151.5 82 L 152 78.5 L 151 76.5 L 153 77.5 Q 162 98 174 115.5 L 189 147.5 L 191 165.5 L 190 166.5 L 190 177 Q 193.5 175.9 192 183.5 Q 187.4 206.9 171.5 219 L 169.5 220 L 169 218.5 L 170 216.5 L 167.5 218 L 164 220.5 L 161.5 224 L 144.5 232 L 136.5 233 L 132.5 232 Q 131.3 234.3 126.5 233 L 98.5 227 Q 86.1 220.4 78 209.5 L 73 202.5 L 68 187.5 L 68 179.5 L 66 172.5 L 66 161.5 Q 73.6 129.6 91.5 108 Q 93.8 108.8 93 106.5 Q 112.9 66.9 129.5 24 Z M 129 51 L 120 76 L 111 96 L 86 139 L 79 162 L 80 179 L 84 196 L 102 212 L 116 218 L 126 220 L 140 220 L 150 217 Q 160 212 168 204 Q 175 197 179 186 L 179 177 L 180 176 L 179 160 L 173 138 Q 163 116 149 98 L 138 76 L 129 51 Z " /><path fill="rgb(4,6,5)" stroke="rgb(4,6,5)" stroke-width="1" opacity="0.984313725490196" d="M 113.5 109 L 113 110.5 L 102 151.5 Q 103.3 156.2 101 157.5 L 101 179.5 L 103 190.5 L 109.5 199 L 124 209.5 L 122.5 210 Q 110.2 207.2 102 201 L 95.5 184 Q 92.2 182.9 93 185.5 L 91 184.5 L 88 173.5 L 88 165.5 L 89 164.5 L 89 156.5 L 93 144.5 L 108 116.5 L 113.5 109 Z " /><path fill="rgb(150,187,129)" stroke="rgb(150,187,129)" stroke-width="1" opacity="0.6901960784313725" d="M 150.5 75 L 151 77 L 149 76.5 L 150.5 75 Z " /><path fill="rgb(150,187,129)" stroke="rgb(150,187,129)" stroke-width="1" opacity="0.6901960784313725" d="M 155.5 142 Q 163.1 151.9 162 170.5 L 159 179 L 153.5 181 Q 147.9 176.6 150 164.5 L 154 152.5 Q 153.3 145.8 155.5 142 Z " /><path fill="rgb(150,187,129)" stroke="rgb(150,187,129)" stroke-width="1" opacity="0.6901960784313725" d="M 190.5 167 L 191 172.5 L 190 172.5 L 190.5 167 Z " /><path fill="rgb(150,187,129)" stroke="rgb(150,187,129)" stroke-width="1" opacity="0.6901960784313725" d="M 66.5 175 L 67 177.5 L 66 177.5 L 66.5 175 Z " /><path fill="rgb(150,187,129)" stroke="rgb(150,187,129)" stroke-width="1" opacity="0.6901960784313725" d="M 67.5 184 L 68 187.5 L 67 187.5 L 67.5 184 Z " /><path fill="rgb(150,187,129)" stroke="rgb(150,187,129)" stroke-width="1" opacity="0.6901960784313725" d="M 76.5 208 L 80.5 213 L 76.5 208 Z " /><path fill="rgb(150,187,129)" stroke="rgb(150,187,129)" stroke-width="1" opacity="0.6901960784313725" d="M 87.5 219 L 89.5 222 L 87.5 219 Z " /><path fill="rgb(150,187,129)" stroke="rgb(150,187,129)" stroke-width="1" opacity="0.6901960784313725" d="M 163.5 222 L 162.5 224 L 163.5 222 Z " /><path fill="rgb(102,156,72)" stroke="rgb(102,156,72)" stroke-width="1" opacity="1" d="M 128.5 52 L 133 63.5 L 132 63.5 Q 132.7 60.5 129 62 L 128.5 64 L 126.5 64 Q 124.3 63.3 125 65.5 L 122.5 71 L 122 69.5 L 128.5 52 Z " /><path fill="rgb(102,156,72)" stroke="rgb(102,156,72)" stroke-width="1" opacity="1" d="M 133.5 65 L 143 86.5 L 141.5 86 L 135 88 L 134 92 Q 130.7 90.7 132 95.5 L 133 98.5 L 131 97.5 L 131.5 96 L 128.5 98 L 127 97.5 L 126 99.5 L 128 100.5 L 128.5 99 L 129 101 L 131.5 100 L 130.5 102 L 128.5 103 L 127 102.5 Q 127.7 105.1 125 104 L 125 107.5 L 123.5 107 L 121 106.5 L 121.5 105 L 119.5 106 L 120 104.5 L 119.5 103 L 118 103.5 L 119.5 101 L 117 99.5 L 116 97.5 L 116.5 96 L 114 95.5 Q 116.3 94.3 113.5 93 L 110.5 98 L 111 96.5 L 121.5 72 L 122 73.5 L 120 79 Q 122.9 81.9 130.5 81 L 133 80.5 L 136 75.5 L 136 72.5 L 133.5 65 Z M 123 100 L 123 101 L 125 101 L 123 100 Z " /><path fill="rgb(102,156,72)" stroke="rgb(102,156,72)" stroke-width="1" opacity="1" d="M 144.5 90 L 162 117.5 L 172 136.5 L 179 162.5 L 179 178.5 L 178 178.5 L 178 162.5 L 176.5 161 L 173 162.5 Q 175.3 163.8 172.5 165 L 172 163 Q 165.8 163.9 163 162 L 162.5 170 Q 162.8 152.2 155.5 142 Q 153.3 145.8 154 152.5 L 150 164.5 L 150 175.5 L 153.5 181 L 159 179 L 161.5 171 L 162 174.5 L 161 176.5 L 164.5 178 L 166.5 178 L 169.5 177 L 174 179.5 L 173 181.5 L 175 182.5 L 174.5 184 Q 177.1 183.2 176 186.5 L 177 186.5 L 177.5 182 L 178 186.5 Q 173.7 198.7 164.5 206 L 152.5 215 L 143.5 218 L 143.5 217 L 145 216.5 L 141 210.5 L 141 208.5 Q 141.8 205.9 138.5 207 L 140 209.5 L 138.5 212 L 137.5 210 L 139 210.5 L 137.5 208 L 135.5 209 L 136 207.5 L 135 203 L 137 203.5 L 136 206 Q 138.7 207.1 138 204.5 L 140 202.5 L 138.5 200 L 142 199 Q 143.1 201.7 140.5 201 L 140.5 202 L 143.5 203 L 143 201.5 L 144 198.5 L 144 196.5 Q 145 192 142.5 191 Q 139.9 190.3 141 193 L 143 193.5 L 141 198 L 139 197.5 Q 142.8 195.8 139.5 194 L 137.5 195 L 139 192.5 L 140 189.5 L 138.5 190 L 134 188 L 133 185.5 L 134.5 186 L 136 185.5 L 135.5 184 L 144 187 L 143 190.5 L 145 191 L 145.5 193 L 148 191.5 L 147.5 193 L 150 193.5 L 148 194 Q 146.9 196.7 149.5 196 L 149.5 197 L 147 198.5 L 147.5 200 L 151.5 197 L 152 199.5 L 153.5 202 L 155 202.5 L 154 205 Q 156.7 206.1 156 203.5 L 157 203.5 L 158 207 L 160.5 208 L 170 199.5 L 171 197.5 L 166.5 195 L 164.5 196 L 161 195 L 160.5 193 L 158.5 193 L 156.5 192 L 151.5 193 L 151.5 192 Q 154.1 192.7 153 190 L 151 189.5 L 151.5 188 L 148 187.5 L 149 184.5 L 149 183 Q 145.3 184.5 146 181.5 Q 147.8 183.1 149.5 180 L 151 179.5 Q 147 174.5 149 163.5 L 152 153 L 150 153.5 L 150.5 155 L 148.5 155 Q 145.2 153.9 146 156.5 L 144.5 159 L 144 155 L 142 155 L 142 159 L 140.5 159 L 139 158.5 L 139.5 161 Q 140.8 158.7 142 161.5 L 145 165.5 L 145 168 L 148 169.5 L 147 171.5 L 148 174.5 Q 148.8 178.3 146.5 179 L 145 178.5 L 145 180 L 141 180 L 140.5 178 L 139.5 180 L 138.5 179 L 136 180.5 L 137 178.5 Q 135.8 175.8 134.5 178 Q 131.9 177.2 133 180.5 L 136 182.5 L 134.5 183 L 132.5 183 L 131 183.5 L 132 185.5 L 131 185.5 L 130.5 184 L 128.5 185 L 127 184.5 L 126.5 186 L 125 183.5 Q 126.8 185.1 128.5 182 Q 131.8 183.1 131 180.5 L 131.5 179 Q 129.3 178.3 130 180.5 L 128 179.5 L 128.5 178 L 130 178.5 Q 129.1 175.5 133.5 177 L 132.5 175 L 129 175 L 129 177 L 126 177 Q 127.1 179.7 124.5 179 L 125.5 181 L 127 181.5 L 125.5 182 L 123.5 182 Q 119.8 183 121 180 L 124 178.5 L 121.5 177 L 121.5 179 L 119.5 178 L 119 180.5 L 118.5 182 L 116 180.5 L 116 178.5 L 118 174.5 L 116.5 174 L 115 174.5 L 117 169.5 L 114 169 L 114 175.5 L 113 176.5 L 115 179.5 Q 112.7 183.2 110.5 178 L 108 176.5 L 109.5 177 L 113 176 L 112 173.5 L 112.5 172 Q 110.3 172.8 111 170.5 L 109 170.5 L 111 168.5 L 112 161.5 L 111 158.5 L 110.5 156 L 108.5 157 L 108.5 155 Q 105.2 153.9 106 156.5 L 106 158.5 L 107 165 L 110 165.5 L 106 168.5 L 105.5 171 L 105 166 Q 102.3 167.1 103 164.5 L 102 163.5 L 102 154.5 L 108.5 128 L 109 131.5 L 108 134.5 L 110 133.5 L 111 130.5 L 111 128.5 Q 111.7 125.9 109 127 L 109 124.5 L 115.5 107 L 116 108.5 L 115 110.5 Q 116 113 120.5 112 L 122.5 111 L 124 111.5 L 124.5 109 L 125.5 112 Q 128.3 110.8 126 109.5 L 128.5 105 L 129 107 L 132.5 108 Q 135.3 106.8 133 105.5 L 133.5 104 L 135 104.5 L 137 99.5 L 135 98.5 L 134.5 101 L 134 98.5 L 134 96.5 L 136.5 94 L 137 96.5 L 137.5 98 L 139 97.5 L 140.5 100 L 141 96 L 147 97 L 144.5 90 Z M 137 101 L 138 103 L 140 102 L 141 103 L 141 101 L 137 101 Z M 156 111 L 156 113 Q 153 112 154 115 L 155 116 L 151 113 L 148 117 L 150 117 L 153 117 L 150 118 L 148 120 Q 151 121 149 123 L 151 123 L 153 128 L 154 123 L 155 121 Q 152 120 153 123 L 152 123 L 153 121 L 150 120 L 156 118 L 158 122 L 156 123 L 156 124 Q 161 122 159 128 L 161 127 L 158 131 L 161 132 L 163 129 L 164 129 Q 163 131 166 130 L 166 132 L 168 132 Q 164 121 157 113 Q 158 110 156 111 Z M 151 126 L 150 129 L 152 129 L 151 126 Z M 155 127 L 153 130 L 158 130 L 158 128 L 157 128 Q 158 130 155 129 L 155 127 Z M 150 133 L 152 136 L 156 136 L 150 133 Z M 146 134 L 143 135 L 143 136 L 149 136 L 146 134 Z M 140 138 L 138 140 L 140 140 L 140 138 Z M 143 138 L 140 141 L 142 141 Q 143 143 145 140 L 145 143 L 149 142 L 149 140 L 145 138 L 143 138 Z M 121 139 L 122 142 L 122 140 L 124 140 L 121 139 Z M 135 139 L 134 141 L 133 140 L 130 142 L 133 143 L 126 145 Q 122 146 123 143 L 119 142 L 118 145 L 122 147 L 120 148 L 117 147 L 117 150 L 119 150 Q 118 153 121 152 L 121 153 Q 116 151 117 155 L 121 154 L 123 155 L 125 154 L 124 156 Q 123 158 128 157 L 127 154 L 130 153 L 130 155 L 132 155 L 131 153 Q 129 151 132 150 L 134 151 L 138 153 L 140 149 L 141 151 L 143 150 Q 144 147 142 148 L 139 145 L 142 146 Q 144 147 143 145 L 144 143 L 142 144 L 140 142 L 139 142 L 138 140 L 135 141 L 135 139 Z M 124 142 L 124 144 L 127 143 L 124 142 Z M 173 142 L 172 143 Q 169 142 170 145 L 168 145 L 168 147 L 164 149 L 166 150 L 161 150 L 163 157 L 165 154 Q 164 150 168 151 L 170 151 Q 169 148 172 149 L 173 147 L 173 149 L 174 149 L 173 142 Z M 142 152 L 142 154 L 144 153 L 142 152 Z M 141 154 L 140 157 L 141 157 L 141 154 Z M 117 156 L 114 159 L 116 161 L 118 158 Q 119 155 117 156 Z M 104 157 L 104 162 L 103 164 L 105 165 Q 106 159 104 157 Z M 113 163 L 112 168 L 114 168 L 113 163 Z M 125 175 L 123 177 L 126 177 L 125 175 Z M 146 204 L 147 206 Q 148 203 146 204 Z M 147 214 Q 145 217 148 216 L 147 214 Z " /><path fill="rgb(102,156,72)" stroke="rgb(102,156,72)" stroke-width="1" opacity="1" d="M 109.5 99 L 109 100.5 L 108 103.5 L 112 104.5 L 113.5 101 L 115 103.5 L 113 103.5 L 111 107.5 L 113 108.5 L 104.5 122 L 102.5 118 L 100.5 118 L 98 119.5 L 96.5 122 L 97 120.5 L 109.5 99 Z " /><path fill="rgb(102,156,72)" stroke="rgb(102,156,72)" stroke-width="1" opacity="1" d="M 95.5 123 L 95 124.5 L 91 132.5 L 93 133.5 L 96.5 128 Q 98.8 127.3 98 129.5 L 99 129.5 L 99.5 128 Q 102.3 129.3 100 130.5 L 90 150.5 L 88 159.5 L 88 176.5 L 91 186 L 94.5 184 L 97 186.5 L 97 191.5 L 101 199.5 L 104.5 203 L 111 206.5 L 110.5 208 L 113.5 207 L 116 208.5 L 114.5 209 L 112 208 Q 110.9 210.7 113.5 210 L 118.5 212 L 122.5 210 L 122.5 211 L 120 211.5 L 123.5 212 L 124.5 211 L 129 215.5 L 130.5 218 L 133 218.5 L 121.5 219 L 109 214.5 L 111 213.5 L 107.5 211 L 106.5 213 L 108 213.5 L 106.5 214 L 99.5 210 L 84 194.5 L 81 181.5 L 81 174.5 L 82 172.5 L 80 172.5 L 80 159.5 L 82 150.5 Q 86.9 134.9 95.5 123 Z M 97 132 L 95 134 Q 96 138 92 136 L 91 133 L 89 138 L 94 137 L 93 139 L 94 140 L 98 133 L 97 132 Z M 83 156 L 82 159 Q 80 160 83 162 L 81 162 L 82 165 L 83 168 L 81 168 L 82 171 L 83 169 L 83 171 L 86 172 Q 88 171 87 168 L 87 166 L 87 161 L 85 165 Q 82 164 84 163 L 83 156 Z M 84 184 L 83 187 L 84 187 L 84 184 Z M 90 184 L 88 187 L 90 186 L 90 184 Z M 91 187 L 88 189 L 91 189 L 91 187 Z M 93 187 Q 91 192 95 191 Q 96 194 94 193 L 96 196 L 98 196 L 96 189 L 93 187 Z M 86 190 L 85 195 L 87 194 L 86 190 Z M 87 195 Q 87 198 89 196 L 88 198 L 90 198 Q 92 194 87 195 Z M 91 198 Q 89 201 92 200 L 91 198 Z " /><path fill="rgb(102,156,72)" stroke="rgb(102,156,72)" stroke-width="1" opacity="1" d="M 102.5 125 L 102 126.5 L 101.5 128 L 101 126.5 L 102.5 125 Z " /><path fill="rgb(102,156,72)" stroke="rgb(102,156,72)" stroke-width="1" opacity="1" d="M 137.5 145 L 138 147.5 L 136 147.5 Q 137 151.3 134 150 Q 132.5 146.3 135.5 147 L 137.5 145 Z " /><path fill="rgb(102,156,72)" stroke="rgb(102,156,72)" stroke-width="1" opacity="1" d="M 101.5 170 L 102 174.5 L 101 174.5 L 101.5 170 Z " /><path fill="rgb(102,156,72)" stroke="rgb(102,156,72)" stroke-width="1" opacity="1" d="M 105.5 173 L 106 176 L 104 175.5 L 105.5 173 Z " /><path fill="rgb(102,156,72)" stroke="rgb(102,156,72)" stroke-width="1" opacity="1" d="M 102 177 L 106.5 179 L 107.5 178 L 112 182.5 L 110.5 182 L 108.5 183 L 107.5 181 L 107 190 Q 112.2 192.1 111 187.5 L 112 185.5 L 110 185.5 L 113 184 L 114 189 L 118 189 L 118 187.5 L 119 187.5 L 122 194 L 125 195.5 L 123 196.5 L 122.5 195 L 122 197.5 L 123.5 201 L 125 201.5 L 123.5 202 L 120.5 200 L 117 202.5 L 118.5 205 L 106 194.5 L 103 187.5 L 102 177 Z " /><path fill="rgb(102,156,72)" stroke="rgb(102,156,72)" stroke-width="1" opacity="1" d="M 142.5 181 L 145 182.5 L 143.5 183 L 141 182.5 L 142.5 181 Z " /><path fill="rgb(102,156,72)" stroke="rgb(102,156,72)" stroke-width="1" opacity="1" d="M 122.5 183 L 123 185.5 L 122 185.5 L 122.5 183 Z " /><path fill="rgb(102,156,72)" stroke="rgb(102,156,72)" stroke-width="1" opacity="1" d="M 123.5 187 Q 126.1 186.2 125 189.5 L 124 189.5 L 123.5 188 L 122 188.5 L 123.5 187 Z " /><path fill="rgb(102,156,72)" stroke="rgb(102,156,72)" stroke-width="1" opacity="1" d="M 122.5 190 L 127 192.5 L 125.5 194 L 122.5 190 Z " /><path fill="rgb(102,156,72)" stroke="rgb(102,156,72)" stroke-width="1" opacity="1" d="M 133.5 190 L 136 190.5 L 133 192 L 133.5 190 Z " /><path fill="rgb(102,156,72)" stroke="rgb(102,156,72)" stroke-width="1" opacity="1" d="M 129.5 192 L 130 195.5 L 128.5 199 L 127 195.5 L 129 195.5 L 129.5 192 Z " /><path fill="rgb(102,156,72)" stroke="rgb(102,156,72)" stroke-width="1" opacity="1" d="M 125.5 197 L 126.5 199 Q 123.7 199.7 125.5 197 Z " /><path fill="rgb(102,156,72)" stroke="rgb(102,156,72)" stroke-width="1" opacity="1" d="M 120.5 205 L 121.5 207 L 120.5 205 Z " /><path fill="rgb(96,149,68)" stroke="rgb(96,149,68)" stroke-width="1" opacity="0.9921568627450981" d="M 128.5 51 L 129.5 53 L 128.5 51 Z " /><path fill="rgb(96,149,68)" stroke="rgb(96,149,68)" stroke-width="1" opacity="0.9921568627450981" d="M 132.5 60 L 133 61.5 L 132 63.5 L 134 63.5 L 133 66.5 L 135 66.5 L 134 69.5 L 136 69.5 L 135 71.5 L 137 71.5 L 136 75.5 L 139 76.5 L 137.5 79 L 136.5 77 L 134 77.5 L 132.5 81 L 130.5 81 Q 122.9 81.9 120 79 L 119 76.5 L 121 76.5 L 120 73.5 L 122 73.5 L 121 70.5 L 123 70.5 L 122 68.5 L 124 68.5 L 123 65.5 L 125 65.5 L 124 62.5 L 125 62.5 Q 124.3 64.8 126.5 64 L 129 63.5 Q 128.2 60.5 132 62 L 132.5 60 Z " /><path fill="rgb(96,149,68)" stroke="rgb(96,149,68)" stroke-width="1" opacity="0.9921568627450981" d="M 151.5 75 L 152.5 77 L 151.5 75 Z " /><path fill="rgb(96,149,68)" stroke="rgb(96,149,68)" stroke-width="1" opacity="0.9921568627450981" d="M 140.5 86 L 142.5 87 L 144 86.5 L 146 90.5 L 145 92.5 L 147 92.5 L 146 94.5 L 148 94.5 L 147 96.5 L 149 96.5 Q 147.8 99.2 146.5 97 L 141 96 L 142 100.5 L 140.5 103 L 138.5 102 L 137 102.5 Q 136.1 99.5 140.5 101 L 139 98.5 L 138.5 97 L 137 97.5 L 136.5 96 L 135 97.5 Q 138.5 99 136 100.5 L 134.5 105 L 133 104.5 L 134 106.5 Q 132.8 109.3 131.5 107 Q 128.2 108.1 129 105.5 L 128 105.5 L 126 109.5 Q 128.3 110.8 125.5 112 L 124.5 109 L 123.5 112 L 121.5 111 L 121.5 113 L 115 110.5 Q 115.8 108.3 113.5 109 L 114 110.5 L 115 112.5 L 113 111.5 L 112 109.5 L 112.5 108 L 111 107.5 L 112 105.5 L 109.5 103 L 106.5 106 L 105 104.5 L 108 103.5 L 107 101.5 L 109 101.5 L 108 99.5 L 110.5 96 L 112 96.5 L 111 93.5 L 112.5 91 L 115 94.5 L 114.5 96 L 117 96.5 L 117 98.5 L 118.5 101 L 120 101.5 L 120 103.5 Q 119.3 105.8 121.5 105 L 121.5 107 L 124.5 108 L 125 104 Q 127.7 105.1 127 102.5 L 129.5 102 L 131 101.5 L 129 101 L 128.5 99 L 127.5 101 Q 124.8 99.8 127 98.5 L 126 96.5 L 128.5 98 L 130.5 96 L 132 96 L 132 92 Q 134.7 93.1 134 90.5 L 135 88 L 140.5 86 Z M 133 96 L 131 98 L 133 99 L 133 96 Z M 135 98 L 134 101 L 135 101 L 135 98 Z " /><path fill="rgb(96,149,68)" stroke="rgb(96,149,68)" stroke-width="1" opacity="0.9921568627450981" d="M 118.5 98 L 119.5 100 L 118.5 98 Z " /><path fill="rgb(96,149,68)" stroke="rgb(96,149,68)" stroke-width="1" opacity="0.9921568627450981" d="M 121.5 99 L 125 100.5 L 121.5 102 L 121.5 99 Z " /><path fill="rgb(96,149,68)" stroke="rgb(96,149,68)" stroke-width="1" opacity="0.9921568627450981" d="M 91.5 107 L 93 107.5 L 91 108.5 L 92 110.5 L 91 110.5 L 90 108.5 L 91.5 107 Z " /><path fill="rgb(96,149,68)" stroke="rgb(96,149,68)" stroke-width="1" opacity="0.9921568627450981" d="M 103.5 108 L 102.5 110 L 103.5 108 Z " /><path fill="rgb(96,149,68)" stroke="rgb(96,149,68)" stroke-width="1" opacity="0.9921568627450981" d="M 157.5 110 L 157 111.5 L 157.5 113 Q 158.8 110.8 160 113.5 L 159 115.5 L 162 116.5 L 161 118.5 L 163 118.5 L 162 120.5 L 164 120.5 L 163 122.5 L 165 122.5 L 165 124.5 L 165.5 126 L 167 125.5 L 166 127.5 L 168 127.5 L 167 129.5 L 169 129.5 L 168 131.5 L 170 131.5 L 168.5 134 L 168 132 L 166 132 L 166 130 Q 163.3 131.1 164 128.5 L 163 128.5 L 160.5 132 Q 158.3 129 153 130 L 152.5 128 L 150 129 L 150.5 126 L 151.5 128 L 152 125.5 L 151 123 L 147 121.5 L 149 120.5 Q 146.8 119.3 149.5 118 L 152 117.5 Q 150.8 114.8 149.5 117 L 146 115.5 L 148.5 114 L 150 114.5 L 150.5 113 L 153.5 115 L 154 113 L 156 112.5 L 155.5 111 L 157.5 110 Z M 156 118 L 150 120 L 155 122 L 153 128 L 155 128 Q 154 130 157 129 L 158 127 L 158 130 L 160 129 L 159 124 L 155 124 L 158 122 L 156 118 Z " /><path fill="rgb(96,149,68)" stroke="rgb(96,149,68)" stroke-width="1" opacity="0.9921568627450981" d="M 98.5 117 L 101.5 119 Q 102.7 116.8 104 119.5 L 104.5 122 L 106 121.5 L 104 125 L 102 125.5 L 102.5 127 L 101 126.5 L 102 128.5 L 100.5 129 L 99 128.5 L 98.5 130 L 98 128 L 94 130.5 L 92 136 Q 96.1 137.7 95 133.5 L 97.5 132 L 100 132.5 L 97.5 136 L 96 135.5 L 97 137.5 L 95 137.5 L 96 139.5 L 93 139.5 L 94 137.5 L 92.5 137 L 89 138 L 88 134.5 L 90 134.5 L 89 132.5 L 91 132.5 L 90 130.5 L 93 129.5 L 92 127.5 L 94 127.5 L 93 125.5 L 95 125.5 L 94 123.5 L 97 121.5 L 96.5 120 L 98 120.5 L 97 118.5 L 98.5 117 Z " /><path fill="rgb(96,149,68)" stroke="rgb(96,149,68)" stroke-width="1" opacity="0.9921568627450981" d="M 82.5 121 L 81.5 123 L 82.5 121 Z " /><path fill="rgb(96,149,68)" stroke="rgb(96,149,68)" stroke-width="1" opacity="0.9921568627450981" d="M 108.5 126 L 111 127 L 110 129.5 L 110 131.5 L 108.5 135 L 107 130.5 L 108 130.5 L 108.5 132 L 109 128.5 L 108.5 126 Z " /><path fill="rgb(96,149,68)" stroke="rgb(96,149,68)" stroke-width="1" opacity="0.9921568627450981" d="M 151.5 130 L 152.5 132 L 151.5 130 Z " /><path fill="rgb(96,149,68)" stroke="rgb(96,149,68)" stroke-width="1" opacity="0.9921568627450981" d="M 134.5 131 L 133.5 133 L 134.5 131 Z " /><path fill="rgb(96,149,68)" stroke="rgb(96,149,68)" stroke-width="1" opacity="0.9921568627450981" d="M 150 133 L 155.5 135 L 157 134.5 Q 156 137 151.5 136 L 150 133 Z " /><path fill="rgb(96,149,68)" stroke="rgb(96,149,68)" stroke-width="1" opacity="0.9921568627450981" d="M 145.5 134 L 149 135.5 L 142.5 136 L 142.5 135 L 145.5 134 Z " /><path fill="rgb(96,149,68)" stroke="rgb(96,149,68)" stroke-width="1" opacity="0.9921568627450981" d="M 87.5 136 L 88 137.5 L 86.5 140 L 86 138.5 L 87.5 136 Z " /><path fill="rgb(96,149,68)" stroke="rgb(96,149,68)" stroke-width="1" opacity="0.9921568627450981" d="M 123.5 137 L 125 138.5 L 124.5 141 L 122 140 L 121 142.5 L 123 143 Q 121.8 146 125.5 145 L 125.5 144 Q 122.9 144.7 124 142 L 127 142.5 L 126.5 144 L 133 142.5 L 130 141.5 L 132.5 140 L 134 140.5 L 134.5 139 L 135 141 L 139.5 138 L 140.5 140 L 144.5 138 L 149 139.5 L 148.5 142 L 145 143 L 144.5 140 Q 143 143.5 141.5 141 Q 139.3 140.3 140 142.5 Q 141.3 145.3 142.5 143 L 144 143.5 L 143 146 L 140.5 145 L 140 146.5 L 143 148 Q 144.1 150.7 141.5 150 L 140 150.5 L 139.5 149 L 137.5 153 L 133.5 151 L 131.5 150 Q 128.8 151.3 131 152.5 L 132 154.5 L 130 155 L 129.5 157 L 129 155.5 L 130 153.5 L 127 155.5 L 127.5 157 L 124 157 Q 125.1 154.3 122.5 155 L 121 155.5 L 121.5 154 L 119.5 155 L 117 154.5 Q 116.1 151.5 120.5 153 L 120.5 152 Q 117.9 152.7 119 150 L 117 150 L 117 146.5 L 119.5 148 L 122 146.5 L 118 144.5 L 119 142 Q 122.3 143.1 121 139 L 123.5 139 L 123.5 137 Z M 138 140 L 138 142 L 140 141 L 138 140 Z M 138 145 L 136 147 L 138 148 L 138 145 Z M 134 147 Q 133 151 136 150 Q 137 146 134 147 Z " /><path fill="rgb(96,149,68)" stroke="rgb(96,149,68)" stroke-width="1" opacity="0.9921568627450981" d="M 173.5 140 L 174 141.5 L 173 144.5 L 174 144.5 L 174.5 143 L 175 144.5 L 174 148.5 L 175 148.5 L 175.5 147 L 176 148.5 L 174.5 151 L 172.5 147 L 172 149 Q 169.3 147.9 170 150.5 L 167.5 151 Q 163.8 149.8 165 153.5 L 162.5 157 L 160 149.5 L 161.5 150 L 166 149.5 L 164 148.5 L 168 146.5 L 167.5 145 L 170 145 Q 168.9 142.3 171.5 143 L 173.5 140 Z " /><path fill="rgb(96,149,68)" stroke="rgb(96,149,68)" stroke-width="1" opacity="0.9921568627450981" d="M 102.5 151 L 103 153.5 L 102 153.5 L 102.5 151 Z " /><path fill="rgb(96,149,68)" stroke="rgb(96,149,68)" stroke-width="1" opacity="0.9921568627450981" d="M 152.5 151 L 153 152.5 L 149 163.5 L 149 175.5 L 151 179.5 L 147.5 182 L 146 181.5 L 146 183 Q 149.8 181.5 149 184.5 L 148.5 188 L 152 188.5 L 151.5 190 Q 154.1 189.3 153 192 L 151 192.5 L 155.5 193 L 155.5 191 L 159.5 194 L 161 193.5 Q 160.2 196.1 163.5 195 L 165.5 196 L 167.5 196 L 171.5 198 L 173 197.5 L 170 198.5 L 171 200.5 L 167.5 204 Q 166 201.5 164.5 205 L 163 205.5 L 164 206.5 L 159.5 211 L 161 208.5 L 159.5 207 Q 157.3 207.8 158 205.5 L 155.5 205 Q 153.3 205.8 154 203.5 L 154.5 202 L 152 200.5 L 151.5 199 L 150 199.5 L 150.5 198 L 147.5 200 L 147 198.5 L 150 196.5 L 148 196 Q 146.9 193.3 149.5 194 L 149.5 193 L 146.5 192 L 145 192.5 Q 145.8 190.3 143.5 191 L 144 192.5 L 143 197.5 L 144 199.5 L 143 201.5 L 143.5 203 L 140.5 202 L 138 206 Q 135.3 204.9 136 207.5 L 135.5 209 L 141 207 L 142 209.5 L 141 211.5 L 143 211.5 L 142 213.5 L 147 217.5 L 145.5 218 L 143.5 217 L 143.5 219 L 140.5 218 L 140 220 L 125 219.5 L 133 218.5 L 129 216.5 L 124.5 211 L 120.5 212 L 117.5 211 L 112 210 Q 113.1 207.3 110.5 208 L 110.5 206 L 108 204.5 L 109.5 205 L 113 206.5 L 112.5 208 L 114.5 207 L 114.5 209 L 117.5 208 L 117.5 210 L 121.5 209 L 121.5 210 L 120 210.5 L 122.5 211 Q 125.8 209.3 122 207.5 L 120.5 205 L 119 205.5 L 118.5 204 Q 117.3 206.3 116 203.5 L 120.5 200 L 122.5 201 L 122 197.5 L 122.5 195 L 123.5 197 Q 126.5 195.5 123.5 194 Q 121.3 194.8 122 192.5 L 118.5 187 L 118 189 L 114 189 L 114 187.5 L 113 184 L 111 184.5 L 112 186.5 L 111 190 L 107 190 L 107 181.5 L 108 181.5 L 108.5 183 L 111 181.5 L 105.5 178 L 102 177 L 101.5 180 L 101 175.5 L 102 170.5 L 101 169.5 L 101 157.5 L 102 157.5 L 102.5 164 L 104 161.5 L 103 157.5 L 104 157.5 L 105 164.5 L 103 164.5 Q 102.3 167.1 105 166 L 105 170.5 L 106 170.5 L 107.5 167 L 110 165.5 L 107 165 L 106 158.5 L 106 156.5 Q 105.2 153.9 108.5 155 L 108.5 157 L 110.5 156 L 111.5 159 L 112.5 157 L 113 158.5 Q 109.5 160 112 161.5 L 114 167.5 L 112 168 L 111.5 163 L 110 169.5 L 111 172 L 113 172.5 L 113 174.5 L 113.5 176 L 114 169 L 117 169.5 L 116 174 L 118 174.5 L 117 176.5 L 117.5 178 L 116 177.5 L 117 179.5 L 116.5 181 L 118.5 182 L 120 179.5 L 119.5 178 L 123 176.5 L 122 174.5 L 123 174.5 L 123.5 176 Q 125 173.5 126.5 177 Q 130.3 178 129 175 L 127 174.5 L 128.5 174 L 134 176.5 L 130 177 Q 128.9 179.7 131.5 179 L 131 180.5 Q 131.8 183.1 128.5 182 Q 125.5 183.5 128.5 185 L 130 184.5 L 129.5 183 L 131.5 183 L 134 181.5 L 133 178 L 135.5 177 L 137.5 180 L 140 179.5 L 140.5 178 L 141 180 L 145 180 L 145 178.5 L 145 176.5 L 145.5 175 L 146 176.5 Q 143.8 177.8 146.5 179 Q 148.8 178.3 148 174.5 L 145.5 171 L 147 171.5 L 148 169.5 L 145 168 L 145 165.5 L 140.5 160 L 139 160.5 L 139.5 158 L 142 159 Q 140.3 153.8 144 155 L 144.5 159 L 146 155 L 152 153 L 152.5 151 Z M 106 173 L 104 176 L 106 176 L 106 173 Z M 112 176 L 109 178 L 113 180 L 114 178 L 112 176 Z M 124 177 L 126 179 Q 127 176 124 177 Z M 129 178 L 128 180 L 130 181 L 129 178 Z M 124 179 L 121 180 Q 120 183 124 182 Q 127 181 124 179 Z M 123 183 L 122 186 L 123 186 L 123 183 Z M 137 185 L 136 186 Q 133 185 134 188 L 139 190 L 140 190 L 137 195 L 139 195 Q 140 193 142 196 L 143 194 L 141 193 Q 140 190 143 191 L 142 190 L 144 190 L 144 187 L 137 185 Z M 124 187 L 124 190 L 125 190 Q 126 186 124 187 Z M 134 190 Q 132 193 135 192 L 134 190 Z M 124 191 L 126 194 L 127 193 L 124 191 Z M 130 192 L 129 196 L 130 196 L 130 192 Z M 129 196 L 128 199 L 129 199 L 129 196 Z M 141 196 L 139 198 L 141 198 L 141 196 Z M 126 197 Q 124 200 127 199 L 126 197 Z M 141 199 L 139 200 L 140 202 L 142 201 Q 143 198 141 199 Z M 135 203 L 136 206 L 137 204 L 135 203 Z " /><path fill="rgb(96,149,68)" stroke="rgb(96,149,68)" stroke-width="1" opacity="0.9921568627450981" d="M 142 152 L 145 153.5 L 142 153.5 L 142 152 Z " /><path fill="rgb(96,149,68)" stroke="rgb(96,149,68)" stroke-width="1" opacity="0.9921568627450981" d="M 140.5 154 L 141 156.5 L 140 156.5 L 140.5 154 Z " /><path fill="rgb(96,149,68)" stroke="rgb(96,149,68)" stroke-width="1" opacity="0.9921568627450981" d="M 115.5 155 L 118 156 L 114.5 162 L 115 160.5 L 114 158.5 Q 117.1 156.8 115.5 155 Z " /><path fill="rgb(96,149,68)" stroke="rgb(96,149,68)" stroke-width="1" opacity="0.9921568627450981" d="M 80.5 156 L 81.5 159 L 82.5 156 L 84.5 163 L 87 161.5 L 86 166.5 L 87 170.5 L 84.5 172 L 82.5 169 L 81.5 171 L 81 167.5 L 82 164.5 L 81 161.5 Q 83.5 160 80 158.5 L 80.5 156 Z " /><path fill="rgb(96,149,68)" stroke="rgb(96,149,68)" stroke-width="1" opacity="0.9921568627450981" d="M 88.5 159 L 89 164.5 L 88 164.5 L 88.5 159 Z " /><path fill="rgb(96,149,68)" stroke="rgb(96,149,68)" stroke-width="1" opacity="0.9921568627450981" d="M 178.5 159 L 179 161.5 L 178 162.5 L 178 178.5 Q 180.5 180 179 185.5 L 178 185.5 L 177.5 182 L 177 186.5 L 177.5 188 L 176 184 L 174 183.5 L 174.5 182 L 173 181.5 L 174 179.5 L 168.5 177 L 166.5 178 L 164.5 178 L 161.5 177 L 160 177.5 L 162 174.5 L 163 162 Q 165.8 163.9 172 163 L 172.5 165 L 174.5 161 L 177.5 162 L 178.5 159 Z " /><path fill="rgb(96,149,68)" stroke="rgb(96,149,68)" stroke-width="1" opacity="0.9921568627450981" d="M 79.5 161 L 80 168.5 L 79 168.5 L 79.5 161 Z " /><path fill="rgb(96,149,68)" stroke="rgb(96,149,68)" stroke-width="1" opacity="0.9921568627450981" d="M 179.5 165 L 180 175.5 L 179 175.5 L 179.5 165 Z " /><path fill="rgb(96,149,68)" stroke="rgb(96,149,68)" stroke-width="1" opacity="0.9921568627450981" d="M 133.5 169 L 136 170.5 L 134.5 171 L 133.5 169 Z " /><path fill="rgb(96,149,68)" stroke="rgb(96,149,68)" stroke-width="1" opacity="0.9921568627450981" d="M 81.5 172 L 82 173.5 L 80.5 179 L 80 173.5 L 81.5 172 Z " /><path fill="rgb(96,149,68)" stroke="rgb(96,149,68)" stroke-width="1" opacity="0.9921568627450981" d="M 190.5 173 L 191 176.5 L 190 176.5 L 190.5 173 Z " /><path fill="rgb(96,149,68)" stroke="rgb(96,149,68)" stroke-width="1" opacity="0.9921568627450981" d="M 88.5 174 L 89 176.5 L 88 176.5 L 88.5 174 Z " /><path fill="rgb(96,149,68)" stroke="rgb(96,149,68)" stroke-width="1" opacity="0.9921568627450981" d="M 81.5 182 L 82 184.5 L 81 184.5 L 81.5 182 Z " /><path fill="rgb(96,149,68)" stroke="rgb(96,149,68)" stroke-width="1" opacity="0.9921568627450981" d="M 102.5 182 L 103 185.5 L 102 185.5 L 102.5 182 Z " /><path fill="rgb(96,149,68)" stroke="rgb(96,149,68)" stroke-width="1" opacity="0.9921568627450981" d="M 90.5 183 L 90 184.5 L 88.5 187 L 88 185.5 L 90.5 183 Z " /><path fill="rgb(96,149,68)" stroke="rgb(96,149,68)" stroke-width="1" opacity="0.9921568627450981" d="M 83.5 184 L 84 186.5 L 83 186.5 L 83.5 184 Z " /><path fill="rgb(96,149,68)" stroke="rgb(96,149,68)" stroke-width="1" opacity="0.9921568627450981" d="M 95.5 184 L 96.5 186 L 95.5 184 Z " /><path fill="rgb(96,149,68)" stroke="rgb(96,149,68)" stroke-width="1" opacity="0.9921568627450981" d="M 104.5 186 L 105 187.5 L 103.5 191 L 103 188.5 L 104.5 186 Z " /><path fill="rgb(96,149,68)" stroke="rgb(96,149,68)" stroke-width="1" opacity="0.9921568627450981" d="M 90.5 187 L 91 189 L 88 188.5 L 90.5 187 Z " /><path fill="rgb(96,149,68)" stroke="rgb(96,149,68)" stroke-width="1" opacity="0.9921568627450981" d="M 93 187 L 96 188.5 L 96.5 192 L 97.5 190 L 98 191.5 L 97 194.5 L 97.5 196 Q 93.5 196.5 93 193.5 L 95 193 Q 96 190 93 191 L 93 187 Z " /><path fill="rgb(96,149,68)" stroke="rgb(96,149,68)" stroke-width="1" opacity="0.9921568627450981" d="M 84.5 189 L 87 193.5 L 86.5 195 Q 91.3 193.3 90 197.5 L 91 197.5 L 91.5 196 L 93 198.5 L 90 200.5 L 98.5 210 L 84 195.5 L 85 194.5 L 84.5 189 Z M 89 198 L 90 200 Q 91 197 89 198 Z " /><path fill="rgb(96,149,68)" stroke="rgb(96,149,68)" stroke-width="1" opacity="0.9921568627450981" d="M 105.5 191 L 105.5 194 Q 102.5 192.5 105.5 191 Z " /><path fill="rgb(96,149,68)" stroke="rgb(96,149,68)" stroke-width="1" opacity="0.9921568627450981" d="M 106.5 195 L 109.5 199 L 106.5 195 Z " /><path fill="rgb(96,149,68)" stroke="rgb(96,149,68)" stroke-width="1" opacity="0.9921568627450981" d="M 103.5 201 L 104.5 203 L 103.5 201 Z " /><path fill="rgb(96,149,68)" stroke="rgb(96,149,68)" stroke-width="1" opacity="0.9921568627450981" d="M 113.5 201 L 116 201.5 Q 113.9 204.8 113.5 201 Z " /><path fill="rgb(96,149,68)" stroke="rgb(96,149,68)" stroke-width="1" opacity="0.9921568627450981" d="M 145.5 204 Q 147.8 203.3 147 205.5 L 145.5 204 Z " /><path fill="rgb(96,149,68)" stroke="rgb(96,149,68)" stroke-width="1" opacity="0.9921568627450981" d="M 180.5 209 L 179.5 211 L 180.5 209 Z " /><path fill="rgb(96,149,68)" stroke="rgb(96,149,68)" stroke-width="1" opacity="0.9921568627450981" d="M 100.5 210 L 101.5 212 L 100.5 210 Z " /><path fill="rgb(96,149,68)" stroke="rgb(96,149,68)" stroke-width="1" opacity="0.9921568627450981" d="M 105.5 211 L 109.5 213 L 112 214.5 L 110 215.5 L 110.5 214 L 107.5 215 L 107.5 213 L 105.5 214 L 105.5 211 Z " /><path fill="rgb(96,149,68)" stroke="rgb(96,149,68)" stroke-width="1" opacity="0.9921568627450981" d="M 146.5 212 L 147.5 216 L 144.5 214 L 144.5 213 L 146.5 212 Z " /><path fill="rgb(96,149,68)" stroke="rgb(96,149,68)" stroke-width="1" opacity="0.9921568627450981" d="M 154.5 213 L 153.5 215 L 154.5 213 Z " /><path fill="rgb(96,149,68)" stroke="rgb(96,149,68)" stroke-width="1" opacity="0.9921568627450981" d="M 82.5 214 L 84.5 217 L 82.5 214 Z " /><path fill="rgb(96,149,68)" stroke="rgb(96,149,68)" stroke-width="1" opacity="0.9921568627450981" d="M 150.5 214 L 151.5 216 L 150.5 214 Z " /><path fill="rgb(96,149,68)" stroke="rgb(96,149,68)" stroke-width="1" opacity="0.9921568627450981" d="M 132.5 232 L 136 232.5 L 132.5 233 L 132.5 232 Z " /></svg>