<svg width="256" height="256" version="1.1" xmlns="http://www.w3.org/2000/svg" desc="Created with imagetracer.js version 1.2.6" ><path fill="rgb(0,0,0)" stroke="rgb(0,0,0)" stroke-width="1" opacity="0" d="M 0 0 L 256 0 L 256 256 L 0 256 L 0 0 Z M 163 39 Q 160 40 162 42 L 160 46 L 161 49 L 159 60 L 159 72 L 160 74 L 164 76 L 171 76 L 178 72 L 187 72 L 188 71 L 192 72 L 188 78 Q 189 81 186 80 L 186 83 L 184 83 L 184 86 L 182 86 L 181 90 Q 177 91 180 93 L 178 93 L 173 102 Q 174 104 172 103 L 160 120 L 162 138 L 164 143 L 166 142 Q 169 144 176 143 L 178 143 L 193 142 L 194 141 L 196 142 L 203 140 L 207 141 L 210 142 L 225 142 L 226 141 L 239 142 L 240 140 L 239 138 L 241 134 L 240 132 Q 243 130 241 124 L 241 122 L 242 121 L 242 110 L 242 108 L 238 104 L 233 104 L 231 104 L 223 108 L 219 108 L 217 108 L 208 109 L 208 108 Q 207 105 210 106 L 218 94 Q 217 90 220 91 L 225 81 L 235 68 Q 234 64 237 65 L 239 62 L 238 47 Q 236 45 237 41 L 236 39 L 201 39 L 200 40 L 198 39 L 163 39 Z M 90 83 L 88 84 L 85 89 L 85 106 L 84 107 Q 87 108 85 115 L 87 116 L 90 118 L 92 118 L 96 118 L 103 114 Q 109 116 111 113 L 113 114 L 110 119 Q 107 120 109 122 L 107 122 L 107 125 Q 104 124 105 127 Q 101 128 104 130 L 103 130 L 99 136 Q 100 138 98 137 L 95 141 Q 96 144 94 143 L 86 155 L 86 157 L 85 159 L 88 175 L 91 176 L 128 176 L 130 176 Q 135 178 137 175 L 140 176 L 157 175 L 158 174 L 158 166 L 159 165 L 158 161 L 160 154 L 160 145 L 157 142 Q 155 138 154 141 L 150 140 L 142 144 L 131 144 L 135 138 L 135 135 L 137 135 L 137 132 Q 140 133 139 131 Q 142 129 140 128 L 142 127 L 144 124 Q 143 120 146 121 L 146 118 L 148 118 L 157 104 L 156 98 L 156 96 L 155 85 Q 154 82 153 84 L 150 83 L 119 83 L 118 84 L 97 84 Q 95 82 90 83 Z M 47 129 Q 45 131 41 130 L 39 130 L 17 131 L 17 133 L 15 138 L 15 140 L 15 162 L 16 164 L 21 166 L 25 166 L 32 162 L 38 161 L 34 169 Q 35 171 33 170 Q 30 171 32 173 L 30 173 Q 31 176 28 178 Q 29 180 27 179 L 22 186 Q 23 188 20 187 L 15 196 L 16 202 L 16 204 L 19 216 L 20 218 L 31 218 L 33 218 L 65 217 L 66 216 L 69 217 L 80 215 L 83 216 L 85 208 L 84 204 L 86 198 L 86 187 L 85 185 L 81 181 L 75 181 L 68 184 L 66 184 L 62 185 L 62 184 L 62 181 L 64 181 Q 62 177 66 178 L 78 160 Q 77 156 80 157 L 83 152 L 83 150 L 82 144 L 82 142 L 80 130 L 66 130 L 65 129 L 57 129 L 56 130 L 47 129 Z " /><path fill="rgb(115,116,116)" stroke="rgb(115,116,116)" stroke-width="1" opacity="0.8156862745098039" d="M 170.5 39 L 183 39.5 L 170.5 40 L 170.5 39 Z " /><path fill="rgb(115,116,116)" stroke="rgb(115,116,116)" stroke-width="1" opacity="0.8156862745098039" d="M 200.5 39 L 208 39.5 L 200.5 40 L 200.5 39 Z " /><path fill="rgb(115,116,116)" stroke="rgb(115,116,116)" stroke-width="1" opacity="0.8156862745098039" d="M 236.5 40 L 237 43.5 L 236 43.5 L 236.5 40 Z " /><path fill="rgb(115,116,116)" stroke="rgb(115,116,116)" stroke-width="1" opacity="0.8156862745098039" d="M 181.5 47 L 201 47.5 L 181.5 48 L 181.5 47 Z " /><path fill="rgb(115,116,116)" stroke="rgb(115,116,116)" stroke-width="1" opacity="0.8156862745098039" d="M 237.5 48 L 238 50.5 L 237 50.5 L 237.5 48 Z " /><path fill="rgb(115,116,116)" stroke="rgb(115,116,116)" stroke-width="1" opacity="0.8156862745098039" d="M 229.5 49 L 230 52.5 L 229 52.5 L 229.5 49 Z " /><path fill="rgb(115,116,116)" stroke="rgb(115,116,116)" stroke-width="1" opacity="0.8156862745098039" d="M 160.5 50 L 161 54.5 L 160 54.5 L 160.5 50 Z " /><path fill="rgb(115,116,116)" stroke="rgb(115,116,116)" stroke-width="1" opacity="0.8156862745098039" d="M 168.5 51 L 169 55.5 L 168 55.5 L 168.5 51 Z " /><path fill="rgb(115,116,116)" stroke="rgb(115,116,116)" stroke-width="1" opacity="0.8156862745098039" d="M 238.5 58 L 239 60.5 L 238 60.5 L 238.5 58 Z " /><path fill="rgb(115,116,116)" stroke="rgb(115,116,116)" stroke-width="1" opacity="0.8156862745098039" d="M 229.5 60 L 228.5 62 L 229.5 60 Z " /><path fill="rgb(115,116,116)" stroke="rgb(115,116,116)" stroke-width="1" opacity="0.8156862745098039" d="M 206.5 62 L 207.5 64 L 206.5 62 Z " /><path fill="rgb(115,116,116)" stroke="rgb(115,116,116)" stroke-width="1" opacity="0.8156862745098039" d="M 159.5 63 L 160 71.5 L 159 71.5 L 159.5 63 Z " /><path fill="rgb(115,116,116)" stroke="rgb(115,116,116)" stroke-width="1" opacity="0.8156862745098039" d="M 182.5 63 L 187 63.5 L 182.5 64 L 182.5 63 Z " /><path fill="rgb(115,116,116)" stroke="rgb(115,116,116)" stroke-width="1" opacity="0.8156862745098039" d="M 167.5 64 L 169 67.5 L 167 68 L 167.5 64 Z " /><path fill="rgb(115,116,116)" stroke="rgb(115,116,116)" stroke-width="1" opacity="0.8156862745098039" d="M 204.5 68 L 203.5 70 L 204.5 68 Z " /><path fill="rgb(115,116,116)" stroke="rgb(115,116,116)" stroke-width="1" opacity="0.8156862745098039" d="M 222.5 70 L 221.5 72 L 222.5 70 Z " /><path fill="rgb(115,116,116)" stroke="rgb(115,116,116)" stroke-width="1" opacity="0.8156862745098039" d="M 179.5 71 L 182 71.5 L 179.5 72 L 179.5 71 Z " /><path fill="rgb(115,116,116)" stroke="rgb(115,116,116)" stroke-width="1" opacity="0.8156862745098039" d="M 231.5 71 L 230.5 73 L 231.5 71 Z " /><path fill="rgb(115,116,116)" stroke="rgb(115,116,116)" stroke-width="1" opacity="0.8156862745098039" d="M 191.5 73 L 190.5 75 L 191.5 73 Z " /><path fill="rgb(115,116,116)" stroke="rgb(115,116,116)" stroke-width="1" opacity="0.8156862745098039" d="M 220.5 73 L 219.5 75 L 220.5 73 Z " /><path fill="rgb(115,116,116)" stroke="rgb(115,116,116)" stroke-width="1" opacity="0.8156862745098039" d="M 189.5 76 L 188.5 78 L 189.5 76 Z " /><path fill="rgb(115,116,116)" stroke="rgb(115,116,116)" stroke-width="1" opacity="0.8156862745098039" d="M 218.5 76 L 217.5 78 L 218.5 76 Z " /><path fill="rgb(115,116,116)" stroke="rgb(115,116,116)" stroke-width="1" opacity="0.8156862745098039" d="M 227.5 77 L 226.5 79 L 227.5 77 Z " /><path fill="rgb(115,116,116)" stroke="rgb(115,116,116)" stroke-width="1" opacity="0.8156862745098039" d="M 121.5 83 L 150 83.5 L 121.5 84 L 121.5 83 Z " /><path fill="rgb(115,116,116)" stroke="rgb(115,116,116)" stroke-width="1" opacity="0.8156862745098039" d="M 223.5 83 L 223 84.5 L 221.5 87 L 222 85.5 L 223.5 83 Z " /><path fill="rgb(115,116,116)" stroke="rgb(115,116,116)" stroke-width="1" opacity="0.8156862745098039" d="M 102.5 84 L 118 84.5 L 102.5 85 L 102.5 84 Z " /><path fill="rgb(115,116,116)" stroke="rgb(115,116,116)" stroke-width="1" opacity="0.8156862745098039" d="M 154.5 85 L 155 89.5 L 154 89.5 L 154.5 85 Z " /><path fill="rgb(115,116,116)" stroke="rgb(115,116,116)" stroke-width="1" opacity="0.8156862745098039" d="M 220.5 88 L 220 89.5 L 219.5 91 L 219 89.5 L 220.5 88 Z " /><path fill="rgb(115,116,116)" stroke="rgb(115,116,116)" stroke-width="1" opacity="0.8156862745098039" d="M 85.5 90 L 86 96.5 L 85 96.5 L 85.5 90 Z " /><path fill="rgb(115,116,116)" stroke="rgb(115,116,116)" stroke-width="1" opacity="0.8156862745098039" d="M 124.5 91 L 129 91.5 L 124.5 92 L 124.5 91 Z " /><path fill="rgb(115,116,116)" stroke="rgb(115,116,116)" stroke-width="1" opacity="0.8156862745098039" d="M 187.5 93 L 186.5 95 L 187.5 93 Z " /><path fill="rgb(115,116,116)" stroke="rgb(115,116,116)" stroke-width="1" opacity="0.8156862745098039" d="M 207.5 93 L 205.5 96 L 207.5 93 Z " /><path fill="rgb(115,116,116)" stroke="rgb(115,116,116)" stroke-width="1" opacity="0.8156862745098039" d="M 217.5 93 L 216.5 95 L 217.5 93 Z " /><path fill="rgb(115,116,116)" stroke="rgb(115,116,116)" stroke-width="1" opacity="0.8156862745098039" d="M 93.5 95 L 94 99.5 L 93 99.5 L 93.5 95 Z " /><path fill="rgb(115,116,116)" stroke="rgb(115,116,116)" stroke-width="1" opacity="0.8156862745098039" d="M 177.5 95 L 176.5 97 L 177.5 95 Z " /><path fill="rgb(115,116,116)" stroke="rgb(115,116,116)" stroke-width="1" opacity="0.8156862745098039" d="M 185.5 96 L 184.5 98 L 185.5 96 Z " /><path fill="rgb(115,116,116)" stroke="rgb(115,116,116)" stroke-width="1" opacity="0.8156862745098039" d="M 147.5 97 L 148 99.5 L 147 99.5 L 147.5 97 Z " /><path fill="rgb(115,116,116)" stroke="rgb(115,116,116)" stroke-width="1" opacity="0.8156862745098039" d="M 175.5 98 L 174.5 100 L 175.5 98 Z " /><path fill="rgb(115,116,116)" stroke="rgb(115,116,116)" stroke-width="1" opacity="0.8156862745098039" d="M 202.5 100 L 201.5 102 L 202.5 100 Z " /><path fill="rgb(115,116,116)" stroke="rgb(115,116,116)" stroke-width="1" opacity="0.8156862745098039" d="M 181.5 102 L 180.5 104 L 181.5 102 Z " /><path fill="rgb(115,116,116)" stroke="rgb(115,116,116)" stroke-width="1" opacity="0.8156862745098039" d="M 171.5 103 L 170.5 105 L 171.5 103 Z " /><path fill="rgb(115,116,116)" stroke="rgb(115,116,116)" stroke-width="1" opacity="0.8156862745098039" d="M 146.5 104 L 145.5 106 L 146.5 104 Z " /><path fill="rgb(115,116,116)" stroke="rgb(115,116,116)" stroke-width="1" opacity="0.8156862745098039" d="M 113.5 105 L 125 105.5 L 113.5 106 L 113.5 105 Z " /><path fill="rgb(115,116,116)" stroke="rgb(115,116,116)" stroke-width="1" opacity="0.8156862745098039" d="M 155.5 105 L 154.5 107 L 155.5 105 Z " /><path fill="rgb(115,116,116)" stroke="rgb(115,116,116)" stroke-width="1" opacity="0.8156862745098039" d="M 101.5 106 L 104 106.5 L 101.5 107 L 101.5 106 Z " /><path fill="rgb(115,116,116)" stroke="rgb(115,116,116)" stroke-width="1" opacity="0.8156862745098039" d="M 169.5 106 L 168.5 108 L 169.5 106 Z " /><path fill="rgb(115,116,116)" stroke="rgb(115,116,116)" stroke-width="1" opacity="0.8156862745098039" d="M 92.5 108 L 93.5 110 L 92.5 108 Z " /><path fill="rgb(115,116,116)" stroke="rgb(115,116,116)" stroke-width="1" opacity="0.8156862745098039" d="M 151.5 111 L 150.5 113 L 151.5 111 Z " /><path fill="rgb(115,116,116)" stroke="rgb(115,116,116)" stroke-width="1" opacity="0.8156862745098039" d="M 175.5 111 L 174.5 113 L 175.5 111 Z " /><path fill="rgb(115,116,116)" stroke="rgb(115,116,116)" stroke-width="1" opacity="0.8156862745098039" d="M 241.5 112 L 242 114.5 L 241 114.5 L 241.5 112 Z " /><path fill="rgb(115,116,116)" stroke="rgb(115,116,116)" stroke-width="1" opacity="0.8156862745098039" d="M 105.5 113 L 110 113.5 L 105.5 114 L 105.5 113 Z " /><path fill="rgb(115,116,116)" stroke="rgb(115,116,116)" stroke-width="1" opacity="0.8156862745098039" d="M 140.5 113 L 139.5 115 L 140.5 113 Z " /><path fill="rgb(115,116,116)" stroke="rgb(115,116,116)" stroke-width="1" opacity="0.8156862745098039" d="M 149.5 114 L 148.5 116 L 149.5 114 Z " /><path fill="rgb(115,116,116)" stroke="rgb(115,116,116)" stroke-width="1" opacity="0.8156862745098039" d="M 112.5 115 L 111.5 117 L 112.5 115 Z " /><path fill="rgb(115,116,116)" stroke="rgb(115,116,116)" stroke-width="1" opacity="0.8156862745098039" d="M 192.5 115 L 193.5 116 L 213 116.5 L 192 117 L 192.5 115 Z " /><path fill="rgb(115,116,116)" stroke="rgb(115,116,116)" stroke-width="1" opacity="0.8156862745098039" d="M 233.5 115 L 234 117.5 L 233 117.5 L 233.5 115 Z " /><path fill="rgb(115,116,116)" stroke="rgb(115,116,116)" stroke-width="1" opacity="0.8156862745098039" d="M 171.5 117 L 170.5 119 L 171.5 117 Z " /><path fill="rgb(115,116,116)" stroke="rgb(115,116,116)" stroke-width="1" opacity="0.8156862745098039" d="M 241.5 117 L 242 120.5 L 241 120.5 L 241.5 117 Z " /><path fill="rgb(115,116,116)" stroke="rgb(115,116,116)" stroke-width="1" opacity="0.8156862745098039" d="M 110.5 118 L 109.5 120 L 110.5 118 Z " /><path fill="rgb(115,116,116)" stroke="rgb(115,116,116)" stroke-width="1" opacity="0.8156862745098039" d="M 143.5 123 L 142.5 125 L 143.5 123 Z " /><path fill="rgb(115,116,116)" stroke="rgb(115,116,116)" stroke-width="1" opacity="0.8156862745098039" d="M 232.5 124 L 233 126.5 L 232 126.5 L 232.5 124 Z " /><path fill="rgb(115,116,116)" stroke="rgb(115,116,116)" stroke-width="1" opacity="0.8156862745098039" d="M 114.5 126 L 113.5 128 L 114.5 126 Z " /><path fill="rgb(115,116,116)" stroke="rgb(115,116,116)" stroke-width="1" opacity="0.8156862745098039" d="M 240.5 128 L 241 130.5 L 240 130.5 L 240.5 128 Z " /><path fill="rgb(115,116,116)" stroke="rgb(115,116,116)" stroke-width="1" opacity="0.8156862745098039" d="M 56.5 129 L 59 129.5 L 56.5 130 L 56.5 129 Z " /><path fill="rgb(115,116,116)" stroke="rgb(115,116,116)" stroke-width="1" opacity="0.8156862745098039" d="M 40.5 130 L 44 130.5 L 40.5 131 L 40.5 130 Z " /><path fill="rgb(115,116,116)" stroke="rgb(115,116,116)" stroke-width="1" opacity="0.8156862745098039" d="M 101.5 132 L 100.5 134 L 101.5 132 Z " /><path fill="rgb(115,116,116)" stroke="rgb(115,116,116)" stroke-width="1" opacity="0.8156862745098039" d="M 185.5 133 L 205 133.5 L 185.5 134 L 185.5 133 Z " /><path fill="rgb(115,116,116)" stroke="rgb(115,116,116)" stroke-width="1" opacity="0.8156862745098039" d="M 227.5 133 L 232 133.5 L 227.5 134 L 227.5 133 Z " /><path fill="rgb(115,116,116)" stroke="rgb(115,116,116)" stroke-width="1" opacity="0.8156862745098039" d="M 80.5 134 L 81 136.5 L 80 136.5 L 80.5 134 Z " /><path fill="rgb(115,116,116)" stroke="rgb(115,116,116)" stroke-width="1" opacity="0.8156862745098039" d="M 124.5 137 L 123.5 139 L 124.5 137 Z " /><path fill="rgb(115,116,116)" stroke="rgb(115,116,116)" stroke-width="1" opacity="0.8156862745098039" d="M 134.5 137 L 133.5 139 L 134.5 137 Z " /><path fill="rgb(115,116,116)" stroke="rgb(115,116,116)" stroke-width="1" opacity="0.8156862745098039" d="M 47.5 139 L 50 139.5 L 47.5 140 L 47.5 139 Z " /><path fill="rgb(115,116,116)" stroke="rgb(115,116,116)" stroke-width="1" opacity="0.8156862745098039" d="M 24.5 140 L 25 142.5 L 24 142.5 L 24.5 140 Z " /><path fill="rgb(115,116,116)" stroke="rgb(115,116,116)" stroke-width="1" opacity="0.8156862745098039" d="M 122.5 140 L 121.5 142 L 122.5 140 Z " /><path fill="rgb(115,116,116)" stroke="rgb(115,116,116)" stroke-width="1" opacity="0.8156862745098039" d="M 132.5 140 L 131.5 142 L 132.5 140 Z " /><path fill="rgb(115,116,116)" stroke="rgb(115,116,116)" stroke-width="1" opacity="0.8156862745098039" d="M 188.5 141 L 193 141.5 L 188.5 142 L 188.5 141 Z " /><path fill="rgb(115,116,116)" stroke="rgb(115,116,116)" stroke-width="1" opacity="0.8156862745098039" d="M 220.5 141 L 225 141.5 L 220.5 142 L 220.5 141 Z " /><path fill="rgb(115,116,116)" stroke="rgb(115,116,116)" stroke-width="1" opacity="0.8156862745098039" d="M 229.5 141 L 235 141.5 L 229.5 142 L 229.5 141 Z " /><path fill="rgb(115,116,116)" stroke="rgb(115,116,116)" stroke-width="1" opacity="0.8156862745098039" d="M 167.5 142 L 176 142.5 L 167.5 143 L 167.5 142 Z " /><path fill="rgb(115,116,116)" stroke="rgb(115,116,116)" stroke-width="1" opacity="0.8156862745098039" d="M 130.5 143 L 136 144.5 L 131.5 145 L 129 144.5 L 130.5 143 Z " /><path fill="rgb(115,116,116)" stroke="rgb(115,116,116)" stroke-width="1" opacity="0.8156862745098039" d="M 72.5 144 L 73 146.5 L 72 146.5 L 72.5 144 Z " /><path fill="rgb(115,116,116)" stroke="rgb(115,116,116)" stroke-width="1" opacity="0.8156862745098039" d="M 72.5 150 L 71.5 152 L 72.5 150 Z " /><path fill="rgb(115,116,116)" stroke="rgb(115,116,116)" stroke-width="1" opacity="0.8156862745098039" d="M 98.5 150 L 97.5 152 L 98.5 150 Z " /><path fill="rgb(115,116,116)" stroke="rgb(115,116,116)" stroke-width="1" opacity="0.8156862745098039" d="M 82.5 151 L 81.5 153 L 82.5 151 Z " /><path fill="rgb(115,116,116)" stroke="rgb(115,116,116)" stroke-width="1" opacity="0.8156862745098039" d="M 43.5 152 L 48 152.5 L 43.5 153 L 43.5 152 Z " /><path fill="rgb(115,116,116)" stroke="rgb(115,116,116)" stroke-width="1" opacity="0.8156862745098039" d="M 123.5 152 L 131 152.5 L 123.5 153 L 123.5 152 Z " /><path fill="rgb(115,116,116)" stroke="rgb(115,116,116)" stroke-width="1" opacity="0.8156862745098039" d="M 55.5 153 L 54.5 155 L 55.5 153 Z " /><path fill="rgb(115,116,116)" stroke="rgb(115,116,116)" stroke-width="1" opacity="0.8156862745098039" d="M 150.5 157 L 151 159.5 L 150 159.5 L 150.5 157 Z " /><path fill="rgb(115,116,116)" stroke="rgb(115,116,116)" stroke-width="1" opacity="0.8156862745098039" d="M 50.5 160 L 49.5 162 L 50.5 160 Z " /><path fill="rgb(115,116,116)" stroke="rgb(115,116,116)" stroke-width="1" opacity="0.8156862745098039" d="M 33.5 161 L 36 161.5 L 33.5 162 L 33.5 161 Z " /><path fill="rgb(115,116,116)" stroke="rgb(115,116,116)" stroke-width="1" opacity="0.8156862745098039" d="M 86.5 161 L 87 163.5 L 86 163.5 L 86.5 161 Z " /><path fill="rgb(115,116,116)" stroke="rgb(115,116,116)" stroke-width="1" opacity="0.8156862745098039" d="M 94.5 161 L 95 163.5 L 94 163.5 L 94.5 161 Z " /><path fill="rgb(115,116,116)" stroke="rgb(115,116,116)" stroke-width="1" opacity="0.8156862745098039" d="M 37.5 163 L 36.5 165 L 37.5 163 Z " /><path fill="rgb(115,116,116)" stroke="rgb(115,116,116)" stroke-width="1" opacity="0.8156862745098039" d="M 107.5 167 L 149 167.5 L 107.5 168 L 107.5 167 Z " /><path fill="rgb(115,116,116)" stroke="rgb(115,116,116)" stroke-width="1" opacity="0.8156862745098039" d="M 69.5 171 L 68.5 173 L 69.5 171 Z " /><path fill="rgb(115,116,116)" stroke="rgb(115,116,116)" stroke-width="1" opacity="0.8156862745098039" d="M 67.5 174 L 66.5 176 L 67.5 174 Z " /><path fill="rgb(115,116,116)" stroke="rgb(115,116,116)" stroke-width="1" opacity="0.8156862745098039" d="M 99.5 175 L 102 175.5 L 99.5 176 L 99.5 175 Z " /><path fill="rgb(115,116,116)" stroke="rgb(115,116,116)" stroke-width="1" opacity="0.8156862745098039" d="M 106.5 175 L 111 175.5 L 106.5 176 L 106.5 175 Z " /><path fill="rgb(115,116,116)" stroke="rgb(115,116,116)" stroke-width="1" opacity="0.8156862745098039" d="M 131.5 175 L 134 175.5 L 131.5 176 L 131.5 175 Z " /><path fill="rgb(115,116,116)" stroke="rgb(115,116,116)" stroke-width="1" opacity="0.8156862745098039" d="M 37.5 179 L 36.5 181 L 37.5 179 Z " /><path fill="rgb(115,116,116)" stroke="rgb(115,116,116)" stroke-width="1" opacity="0.8156862745098039" d="M 53.5 179 L 52.5 181 L 53.5 179 Z " /><path fill="rgb(115,116,116)" stroke="rgb(115,116,116)" stroke-width="1" opacity="0.8156862745098039" d="M 85.5 187 L 86 192.5 L 85 192.5 L 85.5 187 Z " /><path fill="rgb(115,116,116)" stroke="rgb(115,116,116)" stroke-width="1" opacity="0.8156862745098039" d="M 20.5 188 L 19.5 190 L 20.5 188 Z " /><path fill="rgb(115,116,116)" stroke="rgb(115,116,116)" stroke-width="1" opacity="0.8156862745098039" d="M 30.5 189 L 29.5 191 L 30.5 189 Z " /><path fill="rgb(115,116,116)" stroke="rgb(115,116,116)" stroke-width="1" opacity="0.8156862745098039" d="M 18.5 191 L 17.5 193 L 18.5 191 Z " /><path fill="rgb(115,116,116)" stroke="rgb(115,116,116)" stroke-width="1" opacity="0.8156862745098039" d="M 66.5 193 L 69 193.5 L 66.5 194 L 66.5 193 Z " /><path fill="rgb(115,116,116)" stroke="rgb(115,116,116)" stroke-width="1" opacity="0.8156862745098039" d="M 76.5 193 L 77 196.5 L 76 196.5 L 76.5 193 Z " /><path fill="rgb(115,116,116)" stroke="rgb(115,116,116)" stroke-width="1" opacity="0.8156862745098039" d="M 16.5 194 L 15.5 196 L 16.5 194 Z " /><path fill="rgb(115,116,116)" stroke="rgb(115,116,116)" stroke-width="1" opacity="0.8156862745098039" d="M 49.5 194 L 58 194.5 L 49.5 195 L 49.5 194 Z " /><path fill="rgb(115,116,116)" stroke="rgb(115,116,116)" stroke-width="1" opacity="0.8156862745098039" d="M 75.5 202 L 76 205.5 L 75 205.5 L 75.5 202 Z " /><path fill="rgb(115,116,116)" stroke="rgb(115,116,116)" stroke-width="1" opacity="0.8156862745098039" d="M 57.5 207 L 72 207.5 L 57.5 208 L 57.5 207 Z " /><path fill="rgb(115,116,116)" stroke="rgb(115,116,116)" stroke-width="1" opacity="0.8156862745098039" d="M 27.5 208 L 32 208.5 L 27.5 209 L 27.5 208 Z " /><path fill="rgb(115,116,116)" stroke="rgb(115,116,116)" stroke-width="1" opacity="0.8156862745098039" d="M 75.5 215 L 79 215.5 L 75.5 216 L 75.5 215 Z " /><path fill="rgb(115,116,116)" stroke="rgb(115,116,116)" stroke-width="1" opacity="0.8156862745098039" d="M 56.5 216 L 65 216.5 L 56.5 217 L 56.5 216 Z " /><path fill="rgb(115,116,116)" stroke="rgb(115,116,116)" stroke-width="1" opacity="0.8156862745098039" d="M 24.5 217 L 31 217.5 L 24.5 218 L 24.5 217 Z " /><path fill="rgb(115,116,116)" stroke="rgb(115,116,116)" stroke-width="1" opacity="0.8156862745098039" d="M 32.5 217 L 35 217.5 L 32.5 218 L 32.5 217 Z " /><path fill="rgb(0,0,0)" stroke="rgb(0,0,0)" stroke-width="1" opacity="1" d="M 213.5 40 L 216 40 L 216.5 42 L 221.5 42 L 220.5 45 L 229 45.5 L 208.5 46 L 205 44 L 206.5 41 L 210.5 42 L 213.5 40 Z " /><path fill="rgb(0,0,0)" stroke="rgb(0,0,0)" stroke-width="1" opacity="1" d="M 164.5 41 L 168.5 42 L 171.5 41 L 176.5 44 L 178.5 43 Q 181.5 44.5 178.5 46 L 168 46 L 168 52.5 L 167 52.5 L 166.5 49 L 164 50 L 163 45.5 L 163 43.5 L 164.5 41 Z " /><path fill="rgb(0,0,0)" stroke="rgb(0,0,0)" stroke-width="1" opacity="1" d="M 230.5 48 L 232.5 51 L 234 50.5 L 234.5 53 Q 235.8 50.8 237 53.5 L 236.5 60 L 231 59 L 230.5 48 Z " /><path fill="rgb(0,0,0)" stroke="rgb(0,0,0)" stroke-width="1" opacity="1" d="M 161.5 62 L 165.5 65 L 166.5 63 L 167 68 L 165 68.5 L 167.5 69 L 172 67 L 173 70.5 L 170 72.5 L 170.5 74 Q 165.2 74.8 163.5 72 L 162 72.5 Q 159.4 68.9 161.5 62 Z " /><path fill="rgb(0,0,0)" stroke="rgb(0,0,0)" stroke-width="1" opacity="1" d="M 187.5 64 L 197.5 64 L 198.5 65 Q 200 62.5 205.5 64 L 205 65.5 L 199.5 74 L 200 72.5 Q 200.8 69.9 197.5 71 L 193.5 67 L 189.5 66 L 188 66.5 L 188.5 65 L 187.5 64 Z " /><path fill="rgb(0,0,0)" stroke="rgb(0,0,0)" stroke-width="1" opacity="1" d="M 223.5 71 L 227 73.5 Q 227.5 78 224 78.5 Q 226.7 80.3 222.5 82 L 219.5 83 L 220 81.5 L 218.5 79 L 217 79.5 L 223.5 71 Z " /><path fill="rgb(0,0,0)" stroke="rgb(0,0,0)" stroke-width="1" opacity="1" d="M 187.5 84 L 190 84.5 L 191 87.5 L 186.5 93 L 185 92.5 L 186 94.5 L 184.5 96 L 182 95.5 L 181 92.5 L 182 90 L 184 89.5 L 183.5 88 L 185 88 Q 183.5 84.2 186.5 85 L 187.5 84 Z " /><path fill="rgb(0,0,0)" stroke="rgb(0,0,0)" stroke-width="1" opacity="1" d="M 89 85 L 92 85.5 L 91.5 87 L 97.5 90 L 107 90.5 L 93 91 L 92.5 98 L 91.5 96 L 89 97 Q 89.8 93.9 87 94.5 L 87 87 Q 90 88 89 85 Z " /><path fill="rgb(0,0,0)" stroke="rgb(0,0,0)" stroke-width="1" opacity="1" d="M 119.5 85 L 134.5 85 L 135.5 86 L 138 85 L 138 87 L 140 87 Q 138.9 89.7 141.5 89 L 141.5 90 L 120.5 91 L 120.5 90 L 127 89.5 L 121.5 88 L 119.5 85 Z " /><path fill="rgb(0,0,0)" stroke="rgb(0,0,0)" stroke-width="1" opacity="1" d="M 148.5 95 L 149.5 97 L 151.5 97 L 154 98.5 L 155 103.5 L 154 106 L 150 106 Q 151.1 103.3 148.5 104 L 149 102.5 L 148.5 95 Z " /><path fill="rgb(0,0,0)" stroke="rgb(0,0,0)" stroke-width="1" opacity="1" d="M 207.5 95 Q 211.5 94.5 212 97.5 Q 213.1 100.8 210.5 100 L 209 99.5 L 210 102.5 Q 208.3 105.8 203.5 106 Q 198.8 103.8 203 101.5 L 207.5 95 Z " /><path fill="rgb(0,0,0)" stroke="rgb(0,0,0)" stroke-width="1" opacity="1" d="M 91.5 106 L 92 109.5 L 91 109.5 L 91.5 106 Z " /><path fill="rgb(0,0,0)" stroke="rgb(0,0,0)" stroke-width="1" opacity="1" d="M 114.5 106 L 122 106.5 L 119 107.5 L 120.5 110 L 116.5 111 L 110.5 109 L 105 110 Q 106.3 107 102.5 108 L 102.5 107 L 113.5 107 L 114.5 106 Z " /><path fill="rgb(0,0,0)" stroke="rgb(0,0,0)" stroke-width="1" opacity="1" d="M 172.5 106 L 174 109 L 176 109.5 L 173.5 113 Q 172.3 110.8 171 113.5 L 172 116 L 167 114.5 L 169 111.5 L 168 110.5 L 172.5 106 Z " /><path fill="rgb(0,0,0)" stroke="rgb(0,0,0)" stroke-width="1" opacity="1" d="M 97.5 108 Q 99.8 107.3 99 109.5 L 103 109.5 Q 100.1 114.1 93.5 115 Q 90.8 113.7 93 112.5 Q 91.9 109.2 94.5 110 L 97.5 108 Z " /><path fill="rgb(0,0,0)" stroke="rgb(0,0,0)" stroke-width="1" opacity="1" d="M 125.5 108 L 124.5 110 L 125.5 108 Z " /><path fill="rgb(0,0,0)" stroke="rgb(0,0,0)" stroke-width="1" opacity="1" d="M 219.5 109 L 222.5 110 L 225 109 L 224 113 L 220 113.5 L 225 114.5 L 213.5 115 L 213.5 114 L 215 113.5 L 212.5 113 L 210.5 113 L 209 112.5 L 211.5 110 Q 217.7 111.7 219.5 109 Z " /><path fill="rgb(0,0,0)" stroke="rgb(0,0,0)" stroke-width="1" opacity="1" d="M 238.5 111 L 239 114.5 L 237 113.5 L 238.5 111 Z " /><path fill="rgb(0,0,0)" stroke="rgb(0,0,0)" stroke-width="1" opacity="1" d="M 240.5 112 L 241 114.5 L 240 114.5 L 240.5 112 Z " /><path fill="rgb(0,0,0)" stroke="rgb(0,0,0)" stroke-width="1" opacity="1" d="M 140.5 115 Q 145.3 113.3 144 117.5 Q 146.5 119 143 120.5 L 141.5 123 L 138.5 124 L 136 123 L 140.5 115 Z M 139 118 Q 138 121 141 120 Q 142 117 139 118 Z " /><path fill="rgb(0,0,0)" stroke="rgb(0,0,0)" stroke-width="1" opacity="1" d="M 193.5 115 L 196 115.5 L 193.5 116 L 193.5 115 Z " /><path fill="rgb(0,0,0)" stroke="rgb(0,0,0)" stroke-width="1" opacity="1" d="M 112.5 120 L 116 122.5 L 114 123.5 Q 116.3 124.8 113.5 126 L 109 124.5 L 110.5 121 L 112.5 120 Z " /><path fill="rgb(0,0,0)" stroke="rgb(0,0,0)" stroke-width="1" opacity="1" d="M 234.5 120 L 236.5 124 Q 238.8 123.3 238 125.5 Q 240.8 127.2 239 133.5 Q 237.8 136.3 236.5 134 L 234.5 135 L 233 133.5 L 233 124.5 L 234.5 120 Z " /><path fill="rgb(0,0,0)" stroke="rgb(0,0,0)" stroke-width="1" opacity="1" d="M 167.5 121 L 168 124.5 L 167 124.5 L 167.5 121 Z " /><path fill="rgb(0,0,0)" stroke="rgb(0,0,0)" stroke-width="1" opacity="1" d="M 164.5 127 L 169 128 L 169.5 136 Q 171 133.5 176.5 135 L 176.5 136 L 170.5 136 L 170 138 L 168.5 138 L 164 134.5 L 163 128.5 L 164.5 127 Z " /><path fill="rgb(0,0,0)" stroke="rgb(0,0,0)" stroke-width="1" opacity="1" d="M 131.5 129 L 134 134.5 L 133 137 L 130 137 Q 131.1 139.7 128.5 139 L 125 137.5 L 131.5 129 Z " /><path fill="rgb(0,0,0)" stroke="rgb(0,0,0)" stroke-width="1" opacity="1" d="M 48.5 131 L 51.5 132 L 53.5 132 L 58.5 131 L 68 135.5 L 67.5 137 L 72 137.5 L 53 138 Q 54.4 134.3 48.5 136 L 43 132.5 L 48.5 131 Z " /><path fill="rgb(0,0,0)" stroke="rgb(0,0,0)" stroke-width="1" opacity="1" d="M 19.5 132 L 20.5 134 L 22.5 133 L 26 135.5 L 26.5 134 L 38 136.5 L 37.5 138 L 43 138.5 L 25 139 L 25 137 L 20 137 L 20 135.5 L 19.5 132 Z " /><path fill="rgb(0,0,0)" stroke="rgb(0,0,0)" stroke-width="1" opacity="1" d="M 187.5 134 L 232 134.5 L 211 135 L 211 137 Q 214.8 135.5 214 138.5 L 212.5 138 L 211 138.5 L 211.5 140 L 209.5 139 L 207.5 140 L 198.5 138 L 198 140 L 189.5 139 L 186.5 140 L 184 139.5 Q 185.2 136.8 186.5 139 Q 190.3 140 189 137 L 192.5 137 Q 194.2 139.8 196 135.5 L 194.5 135 L 192.5 135 Q 186.5 136.3 187.5 134 Z " /><path fill="rgb(0,0,0)" stroke="rgb(0,0,0)" stroke-width="1" opacity="1" d="M 101 135 Q 105.1 133.3 104 137.5 L 105 137.5 L 105.5 136 L 106 137.5 L 103.5 141 L 102 140.5 Q 102.8 142.8 100.5 142 Q 97.8 140.8 100 139.5 L 101 135 Z " /><path fill="rgb(0,0,0)" stroke="rgb(0,0,0)" stroke-width="1" opacity="1" d="M 44.5 138 L 48 138.5 L 44.5 139 L 44.5 138 Z " /><path fill="rgb(0,0,0)" stroke="rgb(0,0,0)" stroke-width="1" opacity="1" d="M 73.5 140 L 80 144.5 L 81 149.5 L 80.5 152 L 76 151 Q 77 148 74 149 L 74 146.5 Q 71.4 144.9 73.5 140 Z " /><path fill="rgb(0,0,0)" stroke="rgb(0,0,0)" stroke-width="1" opacity="1" d="M 147.5 143 Q 156 141 158 145.5 Q 159.3 150.8 156.5 152 L 153.5 151 L 152 151.5 L 153 147.5 L 151.5 147 L 149.5 147 Q 146.2 148.1 147 145.5 L 144 146.5 L 147.5 143 Z " /><path fill="rgb(0,0,0)" stroke="rgb(0,0,0)" stroke-width="1" opacity="1" d="M 120.5 145 L 121 147 L 119 146.5 L 120.5 145 Z " /><path fill="rgb(0,0,0)" stroke="rgb(0,0,0)" stroke-width="1" opacity="1" d="M 17.5 146 L 19.5 146 L 23 147 L 23 156.5 L 24.5 157 L 33.5 154 L 33.5 155 L 29 156.5 L 33 157 L 31.5 160 L 20.5 164 L 17 159 Q 20 160.3 19 156.5 L 17 155.5 L 16.5 158 L 16 147.5 L 17.5 146 Z " /><path fill="rgb(0,0,0)" stroke="rgb(0,0,0)" stroke-width="1" opacity="1" d="M 94.5 148 Q 96.3 151.1 98 149.5 L 91.5 159 L 88 157.5 Q 88.1 151.1 92.5 149 L 94.5 148 Z " /><path fill="rgb(0,0,0)" stroke="rgb(0,0,0)" stroke-width="1" opacity="1" d="M 124.5 151 L 127 151.5 L 124.5 152 L 124.5 151 Z " /><path fill="rgb(0,0,0)" stroke="rgb(0,0,0)" stroke-width="1" opacity="1" d="M 44 153 L 53.5 153 L 54 154.5 L 49.5 160 L 44 156 L 44 153 Z " /><path fill="rgb(0,0,0)" stroke="rgb(0,0,0)" stroke-width="1" opacity="1" d="M 68.5 158 L 73 160.5 L 73 164 Q 68.9 162.3 70 166.5 L 69.5 169 L 67.5 169 Q 63.1 170.5 64 167.5 L 62 167.5 L 68.5 158 Z " /><path fill="rgb(0,0,0)" stroke="rgb(0,0,0)" stroke-width="1" opacity="1" d="M 151.5 158 L 153 161 Q 155.7 162.1 155 159.5 L 156 159.5 L 157 162.5 L 156 164.5 Q 158.7 166.3 154.5 168 L 151 168 L 151.5 158 Z " /><path fill="rgb(0,0,0)" stroke="rgb(0,0,0)" stroke-width="1" opacity="1" d="M 36 168 L 38.5 169 L 40 168.5 L 41.5 171 L 43 170.5 L 34.5 182 L 30.5 182 L 29 180.5 L 32 176.5 L 31.5 175 L 33 174.5 L 32 173.5 L 36 169.5 L 36 168 Z " /><path fill="rgb(0,0,0)" stroke="rgb(0,0,0)" stroke-width="1" opacity="1" d="M 104.5 169 L 124.5 169 L 129.5 172 L 132 171 Q 133.3 174 129.5 173 L 128.5 174 L 116.5 174 L 116.5 173 L 118 172.5 L 113.5 171 L 112.5 172 L 108.5 170 Q 103.5 171 104.5 169 Z " /><path fill="rgb(0,0,0)" stroke="rgb(0,0,0)" stroke-width="1" opacity="1" d="M 91.5 172 Q 97.6 170.8 97 173.5 L 97.5 175 L 94.5 174 L 91.5 175 L 91.5 174 L 93 173.5 L 91.5 172 Z " /><path fill="rgb(0,0,0)" stroke="rgb(0,0,0)" stroke-width="1" opacity="1" d="M 57.5 175 L 56.5 177 L 57.5 175 Z " /><path fill="rgb(0,0,0)" stroke="rgb(0,0,0)" stroke-width="1" opacity="1" d="M 55.5 178 L 57 181.5 L 55 184.5 L 55 186.5 L 54 189.5 L 56.5 190 L 58.5 189 L 60.5 189 L 66.5 188 L 68 191 L 65 191.5 L 65.5 193 L 63.5 192 L 62.5 193 L 50.5 194 L 50.5 193 L 55 192.5 L 53 188 L 50.5 187 L 48 188.5 L 55.5 178 Z " /><path fill="rgb(0,0,0)" stroke="rgb(0,0,0)" stroke-width="1" opacity="1" d="M 21 190 L 24 190 Q 22.9 192.7 25.5 192 L 26.5 194 L 25 193.5 L 24 198.5 L 25 202 L 21.5 201 L 19.5 201 L 17 199.5 L 18 194 L 21 192.5 L 21 190 Z " /><path fill="rgb(0,0,0)" stroke="rgb(0,0,0)" stroke-width="1" opacity="1" d="M 73.5 190 L 72.5 192 L 71 191.5 L 73.5 190 Z " /><path fill="rgb(0,0,0)" stroke="rgb(0,0,0)" stroke-width="1" opacity="1" d="M 77.5 195 L 79.5 200 L 81.5 201 L 83 200.5 Q 84.8 206.8 82 208.5 L 83 210.5 L 82 210.5 Q 82.8 208.3 80.5 209 L 80.5 211 L 75.5 209 L 62 208.5 L 76 208 L 77.5 195 Z " /><path fill="rgb(0,0,0)" stroke="rgb(0,0,0)" stroke-width="1" opacity="1" d="M 27.5 209 L 51 209.5 Q 48.3 211.3 52.5 213 L 54 213.5 Q 52.8 216.3 51.5 214 Q 46.9 213.4 45.5 216 L 41.5 214 L 40 213.5 L 41 211.5 L 37.5 210 L 27.5 210 L 27.5 209 Z M 50 211 L 48 213 L 50 213 L 50 211 Z " /><path fill="rgb(0,0,0)" stroke="rgb(0,0,0)" stroke-width="1" opacity="1" d="M 21.5 216 L 24 216.5 L 21.5 217 L 21.5 216 Z " /><path fill="rgb(23,24,24)" stroke="rgb(23,24,24)" stroke-width="1" opacity="0.9254901960784314" d="M 163.5 39 L 170 39.5 L 162.5 41 L 163.5 39 Z " /><path fill="rgb(23,24,24)" stroke="rgb(23,24,24)" stroke-width="1" opacity="0.9254901960784314" d="M 208.5 39 L 235.5 39 L 236 40.5 L 234.5 40 L 208.5 40 L 208.5 39 Z " /><path fill="rgb(23,24,24)" stroke="rgb(23,24,24)" stroke-width="1" opacity="0.9254901960784314" d="M 178.5 40 L 199 40.5 L 178.5 41 L 178.5 40 Z " /><path fill="rgb(23,24,24)" stroke="rgb(23,24,24)" stroke-width="1" opacity="0.9254901960784314" d="M 161.5 43 L 162 48.5 L 161 48.5 L 161.5 43 Z " /><path fill="rgb(23,24,24)" stroke="rgb(23,24,24)" stroke-width="1" opacity="0.9254901960784314" d="M 236.5 44 L 237 48.5 L 236 48.5 L 236.5 44 Z " /><path fill="rgb(23,24,24)" stroke="rgb(23,24,24)" stroke-width="1" opacity="0.9254901960784314" d="M 203.5 46 L 226 46.5 L 203.5 47 L 203.5 46 Z " /><path fill="rgb(23,24,24)" stroke="rgb(23,24,24)" stroke-width="1" opacity="0.9254901960784314" d="M 228.5 46 Q 231.1 45.2 230 48.5 L 229 48.5 L 228.5 46 Z " /><path fill="rgb(23,24,24)" stroke="rgb(23,24,24)" stroke-width="1" opacity="0.9254901960784314" d="M 168.5 47 L 169 50.5 L 168 50.5 L 168.5 47 Z " /><path fill="rgb(23,24,24)" stroke="rgb(23,24,24)" stroke-width="1" opacity="0.9254901960784314" d="M 237.5 51 L 238 58.5 L 237 58.5 L 237.5 51 Z " /><path fill="rgb(23,24,24)" stroke="rgb(23,24,24)" stroke-width="1" opacity="0.9254901960784314" d="M 230.5 54 L 231 59.5 L 230 59.5 L 230.5 54 Z " /><path fill="rgb(23,24,24)" stroke="rgb(23,24,24)" stroke-width="1" opacity="0.9254901960784314" d="M 160.5 55 L 161 64.5 L 160 64.5 L 160.5 55 Z " /><path fill="rgb(23,24,24)" stroke="rgb(23,24,24)" stroke-width="1" opacity="0.9254901960784314" d="M 167.5 57 L 168 63.5 L 167 63.5 L 167.5 57 Z " /><path fill="rgb(23,24,24)" stroke="rgb(23,24,24)" stroke-width="1" opacity="0.9254901960784314" d="M 237.5 60 L 238 61.5 L 228.5 75 L 229 73.5 L 237.5 60 Z " /><path fill="rgb(23,24,24)" stroke="rgb(23,24,24)" stroke-width="1" opacity="0.9254901960784314" d="M 228.5 62 L 227.5 64 L 228.5 62 Z " /><path fill="rgb(23,24,24)" stroke="rgb(23,24,24)" stroke-width="1" opacity="0.9254901960784314" d="M 187.5 63 L 197 63.5 L 187.5 64 L 187.5 63 Z " /><path fill="rgb(23,24,24)" stroke="rgb(23,24,24)" stroke-width="1" opacity="0.9254901960784314" d="M 176.5 64 L 180 64.5 L 176.5 65 L 176.5 64 Z " /><path fill="rgb(23,24,24)" stroke="rgb(23,24,24)" stroke-width="1" opacity="0.9254901960784314" d="M 226.5 65 L 225.5 67 L 226.5 65 Z " /><path fill="rgb(23,24,24)" stroke="rgb(23,24,24)" stroke-width="1" opacity="0.9254901960784314" d="M 205.5 66 L 204.5 68 L 205.5 66 Z " /><path fill="rgb(23,24,24)" stroke="rgb(23,24,24)" stroke-width="1" opacity="0.9254901960784314" d="M 224.5 68 L 223.5 70 L 224.5 68 Z " /><path fill="rgb(23,24,24)" stroke="rgb(23,24,24)" stroke-width="1" opacity="0.9254901960784314" d="M 180.5 70 L 193.5 70 L 194 71.5 L 184.5 85 L 186 82.5 L 193 71.5 L 180.5 71 L 180.5 70 Z " /><path fill="rgb(23,24,24)" stroke="rgb(23,24,24)" stroke-width="1" opacity="0.9254901960784314" d="M 160.5 71 L 162.5 74 L 166 75.5 L 164.5 76 L 160 72.5 L 160.5 71 Z " /><path fill="rgb(23,24,24)" stroke="rgb(23,24,24)" stroke-width="1" opacity="0.9254901960784314" d="M 175.5 71 L 179 71.5 L 174.5 73 L 175.5 71 Z " /><path fill="rgb(23,24,24)" stroke="rgb(23,24,24)" stroke-width="1" opacity="0.9254901960784314" d="M 200.5 73 L 199.5 75 L 200.5 73 Z " /><path fill="rgb(23,24,24)" stroke="rgb(23,24,24)" stroke-width="1" opacity="0.9254901960784314" d="M 169.5 74 L 171 74.5 L 167.5 76 L 167.5 75 L 169.5 74 Z " /><path fill="rgb(23,24,24)" stroke="rgb(23,24,24)" stroke-width="1" opacity="0.9254901960784314" d="M 198.5 76 L 197.5 78 L 198.5 76 Z " /><path fill="rgb(23,24,24)" stroke="rgb(23,24,24)" stroke-width="1" opacity="0.9254901960784314" d="M 227.5 76 L 226.5 78 L 227.5 76 Z " /><path fill="rgb(23,24,24)" stroke="rgb(23,24,24)" stroke-width="1" opacity="0.9254901960784314" d="M 218.5 77 L 217.5 79 L 218.5 77 Z " /><path fill="rgb(23,24,24)" stroke="rgb(23,24,24)" stroke-width="1" opacity="0.9254901960784314" d="M 196.5 79 L 195.5 81 L 196.5 79 Z " /><path fill="rgb(23,24,24)" stroke="rgb(23,24,24)" stroke-width="1" opacity="0.9254901960784314" d="M 225.5 79 L 224.5 81 L 225.5 79 Z " /><path fill="rgb(23,24,24)" stroke="rgb(23,24,24)" stroke-width="1" opacity="0.9254901960784314" d="M 216.5 80 L 215.5 82 L 216.5 80 Z " /><path fill="rgb(23,24,24)" stroke="rgb(23,24,24)" stroke-width="1" opacity="0.9254901960784314" d="M 194.5 82 L 193.5 84 L 194.5 82 Z " /><path fill="rgb(23,24,24)" stroke="rgb(23,24,24)" stroke-width="1" opacity="0.9254901960784314" d="M 223.5 82 L 222.5 84 L 223.5 82 Z " /><path fill="rgb(23,24,24)" stroke="rgb(23,24,24)" stroke-width="1" opacity="0.9254901960784314" d="M 87.5 84 L 102 84.5 L 87.5 85 L 87.5 84 Z " /><path fill="rgb(23,24,24)" stroke="rgb(23,24,24)" stroke-width="1" opacity="0.9254901960784314" d="M 118.5 84 L 124 84.5 L 118.5 85 L 118.5 84 Z " /><path fill="rgb(23,24,24)" stroke="rgb(23,24,24)" stroke-width="1" opacity="0.9254901960784314" d="M 140.5 84 L 148 84.5 L 140.5 85 L 140.5 84 Z " /><path fill="rgb(23,24,24)" stroke="rgb(23,24,24)" stroke-width="1" opacity="0.9254901960784314" d="M 153.5 84 L 154 88.5 L 153 88.5 L 153.5 84 Z " /><path fill="rgb(23,24,24)" stroke="rgb(23,24,24)" stroke-width="1" opacity="0.9254901960784314" d="M 183.5 86 L 183 87.5 L 180.5 92 L 181 90.5 L 183.5 86 Z " /><path fill="rgb(23,24,24)" stroke="rgb(23,24,24)" stroke-width="1" opacity="0.9254901960784314" d="M 86.5 87 L 87 91.5 L 86 91.5 L 86.5 87 Z " /><path fill="rgb(23,24,24)" stroke="rgb(23,24,24)" stroke-width="1" opacity="0.9254901960784314" d="M 220.5 87 L 219.5 89 L 220.5 87 Z " /><path fill="rgb(23,24,24)" stroke="rgb(23,24,24)" stroke-width="1" opacity="0.9254901960784314" d="M 212.5 88 L 212 89.5 L 209.5 93 L 208 92.5 L 212.5 88 Z " /><path fill="rgb(23,24,24)" stroke="rgb(23,24,24)" stroke-width="1" opacity="0.9254901960784314" d="M 144.5 90 L 148 91.5 L 147.5 97 L 147 91 Q 143.7 91.8 144.5 90 Z " /><path fill="rgb(23,24,24)" stroke="rgb(23,24,24)" stroke-width="1" opacity="0.9254901960784314" d="M 154.5 90 L 155 95.5 L 154 95.5 L 154.5 90 Z " /><path fill="rgb(23,24,24)" stroke="rgb(23,24,24)" stroke-width="1" opacity="0.9254901960784314" d="M 218.5 90 L 218 91.5 L 216.5 94 L 217 92.5 L 218.5 90 Z " /><path fill="rgb(23,24,24)" stroke="rgb(23,24,24)" stroke-width="1" opacity="0.9254901960784314" d="M 93 91 L 95 91.5 L 93.5 95 L 93 91 Z " /><path fill="rgb(23,24,24)" stroke="rgb(23,24,24)" stroke-width="1" opacity="0.9254901960784314" d="M 97.5 91 L 124 91.5 L 97.5 92 L 97.5 91 Z " /><path fill="rgb(23,24,24)" stroke="rgb(23,24,24)" stroke-width="1" opacity="0.9254901960784314" d="M 188.5 91 L 187.5 93 L 188.5 91 Z " /><path fill="rgb(23,24,24)" stroke="rgb(23,24,24)" stroke-width="1" opacity="0.9254901960784314" d="M 179.5 93 L 179 94.5 L 170.5 106 L 173 102.5 L 179.5 93 Z " /><path fill="rgb(23,24,24)" stroke="rgb(23,24,24)" stroke-width="1" opacity="0.9254901960784314" d="M 215.5 95 L 214.5 97 L 215.5 95 Z " /><path fill="rgb(23,24,24)" stroke="rgb(23,24,24)" stroke-width="1" opacity="0.9254901960784314" d="M 205.5 96 L 204.5 98 L 205.5 96 Z " /><path fill="rgb(23,24,24)" stroke="rgb(23,24,24)" stroke-width="1" opacity="0.9254901960784314" d="M 85.5 97 L 86 106.5 L 85 106.5 L 85.5 97 Z " /><path fill="rgb(23,24,24)" stroke="rgb(23,24,24)" stroke-width="1" opacity="0.9254901960784314" d="M 213.5 98 L 212.5 100 L 213.5 98 Z " /><path fill="rgb(23,24,24)" stroke="rgb(23,24,24)" stroke-width="1" opacity="0.9254901960784314" d="M 155.5 99 L 156 104.5 L 154 105.5 L 155.5 99 Z " /><path fill="rgb(23,24,24)" stroke="rgb(23,24,24)" stroke-width="1" opacity="0.9254901960784314" d="M 92.5 101 L 93 107.5 L 92 107.5 L 92.5 101 Z " /><path fill="rgb(23,24,24)" stroke="rgb(23,24,24)" stroke-width="1" opacity="0.9254901960784314" d="M 211.5 101 L 210 103.5 L 207 108.5 L 217 109.5 L 207.5 110 Q 204.8 108.8 207 107.5 L 211.5 101 Z " /><path fill="rgb(23,24,24)" stroke="rgb(23,24,24)" stroke-width="1" opacity="0.9254901960784314" d="M 235.5 104 L 241 107.5 L 242 111.5 L 241 111.5 L 238.5 106 Q 234.8 105.7 235.5 104 Z " /><path fill="rgb(23,24,24)" stroke="rgb(23,24,24)" stroke-width="1" opacity="0.9254901960784314" d="M 125.5 105 Q 128.8 103.9 128 106.5 L 126.5 106 L 125.5 105 Z " /><path fill="rgb(23,24,24)" stroke="rgb(23,24,24)" stroke-width="1" opacity="0.9254901960784314" d="M 229.5 105 L 231 105.5 L 224.5 109 L 218.5 109 L 218.5 108 Q 226.6 109.1 229.5 105 Z " /><path fill="rgb(23,24,24)" stroke="rgb(23,24,24)" stroke-width="1" opacity="0.9254901960784314" d="M 104.5 106 L 110 106.5 L 104.5 107 L 104.5 106 Z " /><path fill="rgb(23,24,24)" stroke="rgb(23,24,24)" stroke-width="1" opacity="0.9254901960784314" d="M 178.5 106 L 177.5 108 L 178.5 106 Z " /><path fill="rgb(23,24,24)" stroke="rgb(23,24,24)" stroke-width="1" opacity="0.9254901960784314" d="M 153.5 107 L 153 108.5 L 144.5 121 L 145 119.5 L 153.5 107 Z " /><path fill="rgb(23,24,24)" stroke="rgb(23,24,24)" stroke-width="1" opacity="0.9254901960784314" d="M 169.5 107 L 168 109.5 L 160.5 122 L 160 120.5 L 169.5 107 Z " /><path fill="rgb(23,24,24)" stroke="rgb(23,24,24)" stroke-width="1" opacity="0.9254901960784314" d="M 198.5 107 L 197.5 109 L 198.5 107 Z " /><path fill="rgb(23,24,24)" stroke="rgb(23,24,24)" stroke-width="1" opacity="0.9254901960784314" d="M 144.5 108 L 143.5 110 L 144.5 108 Z " /><path fill="rgb(23,24,24)" stroke="rgb(23,24,24)" stroke-width="1" opacity="0.9254901960784314" d="M 125.5 109 L 124.5 111 L 125.5 109 Z " /><path fill="rgb(23,24,24)" stroke="rgb(23,24,24)" stroke-width="1" opacity="0.9254901960784314" d="M 176.5 109 L 175.5 111 L 176.5 109 Z " /><path fill="rgb(23,24,24)" stroke="rgb(23,24,24)" stroke-width="1" opacity="0.9254901960784314" d="M 196.5 110 L 195.5 112 L 196.5 110 Z " /><path fill="rgb(23,24,24)" stroke="rgb(23,24,24)" stroke-width="1" opacity="0.9254901960784314" d="M 233.5 111 L 235 113.5 L 234 113.5 L 233.5 111 Z " /><path fill="rgb(23,24,24)" stroke="rgb(23,24,24)" stroke-width="1" opacity="0.9254901960784314" d="M 106.5 112 L 114.5 112 L 115 113.5 L 113 114.5 L 113.5 113 L 106.5 113 L 106.5 112 Z " /><path fill="rgb(23,24,24)" stroke="rgb(23,24,24)" stroke-width="1" opacity="0.9254901960784314" d="M 123.5 112 L 122.5 114 L 123.5 112 Z " /><path fill="rgb(23,24,24)" stroke="rgb(23,24,24)" stroke-width="1" opacity="0.9254901960784314" d="M 85.5 113 L 90 116.5 L 88.5 117 L 86 116 L 85.5 113 Z " /><path fill="rgb(23,24,24)" stroke="rgb(23,24,24)" stroke-width="1" opacity="0.9254901960784314" d="M 101.5 113 L 105 113.5 L 101.5 114 L 101.5 113 Z " /><path fill="rgb(23,24,24)" stroke="rgb(23,24,24)" stroke-width="1" opacity="0.9254901960784314" d="M 194.5 113 L 193.5 115 L 194.5 113 Z " /><path fill="rgb(23,24,24)" stroke="rgb(23,24,24)" stroke-width="1" opacity="0.9254901960784314" d="M 121.5 115 L 120.5 117 L 121.5 115 Z " /><path fill="rgb(23,24,24)" stroke="rgb(23,24,24)" stroke-width="1" opacity="0.9254901960784314" d="M 172.5 115 L 171.5 117 L 172.5 115 Z " /><path fill="rgb(23,24,24)" stroke="rgb(23,24,24)" stroke-width="1" opacity="0.9254901960784314" d="M 215.5 115 L 224 115.5 L 215.5 116 L 215.5 115 Z " /><path fill="rgb(23,24,24)" stroke="rgb(23,24,24)" stroke-width="1" opacity="0.9254901960784314" d="M 94.5 116 L 96 116.5 L 93.5 118 L 94.5 116 Z " /><path fill="rgb(23,24,24)" stroke="rgb(23,24,24)" stroke-width="1" opacity="0.9254901960784314" d="M 112.5 116 L 111.5 118 L 112.5 116 Z " /><path fill="rgb(23,24,24)" stroke="rgb(23,24,24)" stroke-width="1" opacity="0.9254901960784314" d="M 119.5 118 L 118.5 120 L 119.5 118 Z " /><path fill="rgb(23,24,24)" stroke="rgb(23,24,24)" stroke-width="1" opacity="0.9254901960784314" d="M 233.5 118 L 234 121.5 L 233 121.5 L 233.5 118 Z " /><path fill="rgb(23,24,24)" stroke="rgb(23,24,24)" stroke-width="1" opacity="0.9254901960784314" d="M 240.5 118 L 241 127.5 L 240 127.5 L 240.5 118 Z " /><path fill="rgb(23,24,24)" stroke="rgb(23,24,24)" stroke-width="1" opacity="0.9254901960784314" d="M 110.5 119 L 109.5 121 L 110.5 119 Z " /><path fill="rgb(23,24,24)" stroke="rgb(23,24,24)" stroke-width="1" opacity="0.9254901960784314" d="M 169.5 119 L 168.5 121 L 169.5 119 Z " /><path fill="rgb(23,24,24)" stroke="rgb(23,24,24)" stroke-width="1" opacity="0.9254901960784314" d="M 117.5 121 L 116.5 123 L 117.5 121 Z " /><path fill="rgb(23,24,24)" stroke="rgb(23,24,24)" stroke-width="1" opacity="0.9254901960784314" d="M 108.5 122 L 108 123.5 L 86.5 156 L 86 154.5 L 108.5 122 Z " /><path fill="rgb(23,24,24)" stroke="rgb(23,24,24)" stroke-width="1" opacity="0.9254901960784314" d="M 143.5 122 L 142.5 124 L 143.5 122 Z " /><path fill="rgb(23,24,24)" stroke="rgb(23,24,24)" stroke-width="1" opacity="0.9254901960784314" d="M 134.5 123 L 133.5 125 L 134.5 123 Z " /><path fill="rgb(23,24,24)" stroke="rgb(23,24,24)" stroke-width="1" opacity="0.9254901960784314" d="M 161.5 123 L 162 128.5 L 161 128.5 L 161.5 123 Z " /><path fill="rgb(23,24,24)" stroke="rgb(23,24,24)" stroke-width="1" opacity="0.9254901960784314" d="M 168.5 123 L 169 125.5 L 168 125.5 L 168.5 123 Z " /><path fill="rgb(23,24,24)" stroke="rgb(23,24,24)" stroke-width="1" opacity="0.9254901960784314" d="M 115.5 124 L 114.5 126 L 115.5 124 Z " /><path fill="rgb(23,24,24)" stroke="rgb(23,24,24)" stroke-width="1" opacity="0.9254901960784314" d="M 141.5 125 L 140.5 127 L 141.5 125 Z " /><path fill="rgb(23,24,24)" stroke="rgb(23,24,24)" stroke-width="1" opacity="0.9254901960784314" d="M 232.5 127 L 233 131.5 L 232 131.5 L 232.5 127 Z " /><path fill="rgb(23,24,24)" stroke="rgb(23,24,24)" stroke-width="1" opacity="0.9254901960784314" d="M 139.5 128 L 139 129.5 L 137.5 132 L 138 130.5 L 139.5 128 Z " /><path fill="rgb(23,24,24)" stroke="rgb(23,24,24)" stroke-width="1" opacity="0.9254901960784314" d="M 130.5 129 L 129.5 131 L 130.5 129 Z " /><path fill="rgb(23,24,24)" stroke="rgb(23,24,24)" stroke-width="1" opacity="0.9254901960784314" d="M 169.5 129 L 170 132.5 L 169 132.5 L 169.5 129 Z " /><path fill="rgb(23,24,24)" stroke="rgb(23,24,24)" stroke-width="1" opacity="0.9254901960784314" d="M 44.5 130 L 49 130.5 L 44.5 131 L 44.5 130 Z " /><path fill="rgb(23,24,24)" stroke="rgb(23,24,24)" stroke-width="1" opacity="0.9254901960784314" d="M 55.5 130 L 72 130.5 L 55.5 131 L 55.5 130 Z " /><path fill="rgb(23,24,24)" stroke="rgb(23,24,24)" stroke-width="1" opacity="0.9254901960784314" d="M 76.5 130 L 79 130.5 L 76.5 131 L 76.5 130 Z " /><path fill="rgb(23,24,24)" stroke="rgb(23,24,24)" stroke-width="1" opacity="0.9254901960784314" d="M 162.5 130 L 163 133.5 L 162 133.5 L 162.5 130 Z " /><path fill="rgb(23,24,24)" stroke="rgb(23,24,24)" stroke-width="1" opacity="0.9254901960784314" d="M 18.5 131 L 39 131.5 L 18.5 132 L 17 133.5 L 16.5 138 L 16 133.5 L 18.5 131 Z " /><path fill="rgb(23,24,24)" stroke="rgb(23,24,24)" stroke-width="1" opacity="0.9254901960784314" d="M 110.5 131 L 109.5 133 L 110.5 131 Z " /><path fill="rgb(23,24,24)" stroke="rgb(23,24,24)" stroke-width="1" opacity="0.9254901960784314" d="M 239.5 131 L 240 135.5 L 239 135.5 L 239.5 131 Z " /><path fill="rgb(23,24,24)" stroke="rgb(23,24,24)" stroke-width="1" opacity="0.9254901960784314" d="M 79.5 132 L 81 137.5 L 79 136.5 L 79.5 132 Z " /><path fill="rgb(23,24,24)" stroke="rgb(23,24,24)" stroke-width="1" opacity="0.9254901960784314" d="M 136.5 133 L 135.5 135 L 136.5 133 Z " /><path fill="rgb(23,24,24)" stroke="rgb(23,24,24)" stroke-width="1" opacity="0.9254901960784314" d="M 205.5 133 L 227 133.5 L 205.5 134 L 205.5 133 Z " /><path fill="rgb(23,24,24)" stroke="rgb(23,24,24)" stroke-width="1" opacity="0.9254901960784314" d="M 108.5 134 L 107.5 136 L 108.5 134 Z " /><path fill="rgb(23,24,24)" stroke="rgb(23,24,24)" stroke-width="1" opacity="0.9254901960784314" d="M 172.5 134 L 182 134.5 L 172.5 135 L 172.5 134 Z " /><path fill="rgb(23,24,24)" stroke="rgb(23,24,24)" stroke-width="1" opacity="0.9254901960784314" d="M 134.5 136 L 133.5 138 L 134.5 136 Z " /><path fill="rgb(23,24,24)" stroke="rgb(23,24,24)" stroke-width="1" opacity="0.9254901960784314" d="M 163.5 136 L 165 141 L 188 141.5 L 164 142 L 163.5 136 Z " /><path fill="rgb(23,24,24)" stroke="rgb(23,24,24)" stroke-width="1" opacity="0.9254901960784314" d="M 106.5 137 L 105.5 139 L 106.5 137 Z " /><path fill="rgb(23,24,24)" stroke="rgb(23,24,24)" stroke-width="1" opacity="0.9254901960784314" d="M 53.5 138 L 72 138.5 L 53.5 139 L 53.5 138 Z " /><path fill="rgb(23,24,24)" stroke="rgb(23,24,24)" stroke-width="1" opacity="0.9254901960784314" d="M 238.5 138 L 239 141 L 235.5 142 L 235.5 141 L 238 139.5 L 238.5 138 Z " /><path fill="rgb(23,24,24)" stroke="rgb(23,24,24)" stroke-width="1" opacity="0.9254901960784314" d="M 25.5 139 L 47 139.5 L 25.5 140 L 25.5 139 Z " /><path fill="rgb(23,24,24)" stroke="rgb(23,24,24)" stroke-width="1" opacity="0.9254901960784314" d="M 80.5 139 L 82 143.5 L 80 142.5 L 80.5 139 Z " /><path fill="rgb(23,24,24)" stroke="rgb(23,24,24)" stroke-width="1" opacity="0.9254901960784314" d="M 132.5 139 L 131.5 141 L 132.5 139 Z " /><path fill="rgb(23,24,24)" stroke="rgb(23,24,24)" stroke-width="1" opacity="0.9254901960784314" d="M 72.5 140 L 73 143.5 L 72 143.5 L 72.5 140 Z " /><path fill="rgb(23,24,24)" stroke="rgb(23,24,24)" stroke-width="1" opacity="0.9254901960784314" d="M 104.5 140 L 103.5 142 L 104.5 140 Z " /><path fill="rgb(23,24,24)" stroke="rgb(23,24,24)" stroke-width="1" opacity="0.9254901960784314" d="M 194.5 140 L 200 140.5 L 194.5 141 L 194.5 140 Z " /><path fill="rgb(23,24,24)" stroke="rgb(23,24,24)" stroke-width="1" opacity="0.9254901960784314" d="M 205.5 140 L 209 140.5 L 205.5 141 L 205.5 140 Z " /><path fill="rgb(23,24,24)" stroke="rgb(23,24,24)" stroke-width="1" opacity="0.9254901960784314" d="M 15.5 141 L 16 161.5 L 17.5 163 L 22 165.5 L 20.5 165 L 15 161.5 L 15.5 141 Z " /><path fill="rgb(23,24,24)" stroke="rgb(23,24,24)" stroke-width="1" opacity="0.9254901960784314" d="M 148.5 141 L 150 141.5 L 144.5 144 L 144.5 143 L 148.5 141 Z " /><path fill="rgb(23,24,24)" stroke="rgb(23,24,24)" stroke-width="1" opacity="0.9254901960784314" d="M 154.5 141 L 159 144.5 L 158.5 158 L 158 144.5 L 156.5 143 L 154.5 141 Z " /><path fill="rgb(23,24,24)" stroke="rgb(23,24,24)" stroke-width="1" opacity="0.9254901960784314" d="M 211.5 141 L 220 141.5 L 211.5 142 L 211.5 141 Z " /><path fill="rgb(23,24,24)" stroke="rgb(23,24,24)" stroke-width="1" opacity="0.9254901960784314" d="M 130.5 142 L 129.5 145 L 142.5 144 L 142.5 145 L 128 146 L 130.5 142 Z " /><path fill="rgb(23,24,24)" stroke="rgb(23,24,24)" stroke-width="1" opacity="0.9254901960784314" d="M 102.5 143 L 101.5 145 L 102.5 143 Z " /><path fill="rgb(23,24,24)" stroke="rgb(23,24,24)" stroke-width="1" opacity="0.9254901960784314" d="M 81.5 145 L 82 149.5 L 81 149.5 L 81.5 145 Z " /><path fill="rgb(23,24,24)" stroke="rgb(23,24,24)" stroke-width="1" opacity="0.9254901960784314" d="M 23.5 146 L 24 154.5 L 23 154.5 L 23.5 146 Z " /><path fill="rgb(23,24,24)" stroke="rgb(23,24,24)" stroke-width="1" opacity="0.9254901960784314" d="M 100.5 146 L 99.5 148 L 100.5 146 Z " /><path fill="rgb(23,24,24)" stroke="rgb(23,24,24)" stroke-width="1" opacity="0.9254901960784314" d="M 116.5 150 L 116.5 152 L 123 152.5 L 115 153 L 116.5 150 Z " /><path fill="rgb(23,24,24)" stroke="rgb(23,24,24)" stroke-width="1" opacity="0.9254901960784314" d="M 151.5 150 L 152 154.5 L 151 154.5 L 151.5 150 Z " /><path fill="rgb(23,24,24)" stroke="rgb(23,24,24)" stroke-width="1" opacity="0.9254901960784314" d="M 133.5 151 L 143 151.5 L 133.5 152 L 133.5 151 Z " /><path fill="rgb(23,24,24)" stroke="rgb(23,24,24)" stroke-width="1" opacity="0.9254901960784314" d="M 48.5 152 L 56 152.5 L 48.5 153 L 48.5 152 Z " /><path fill="rgb(23,24,24)" stroke="rgb(23,24,24)" stroke-width="1" opacity="0.9254901960784314" d="M 33.5 153 L 41 153.5 L 33.5 154 L 33.5 153 Z " /><path fill="rgb(23,24,24)" stroke="rgb(23,24,24)" stroke-width="1" opacity="0.9254901960784314" d="M 80.5 153 L 80 154.5 L 60 184.5 L 66 185.5 L 59 186 L 80.5 153 Z " /><path fill="rgb(23,24,24)" stroke="rgb(23,24,24)" stroke-width="1" opacity="0.9254901960784314" d="M 95.5 154 L 94.5 156 L 95.5 154 Z " /><path fill="rgb(23,24,24)" stroke="rgb(23,24,24)" stroke-width="1" opacity="0.9254901960784314" d="M 25.5 155 L 27 155.5 L 23.5 157 L 23.5 156 L 25.5 155 Z " /><path fill="rgb(23,24,24)" stroke="rgb(23,24,24)" stroke-width="1" opacity="0.9254901960784314" d="M 53.5 155 L 52.5 157 L 53.5 155 Z " /><path fill="rgb(23,24,24)" stroke="rgb(23,24,24)" stroke-width="1" opacity="0.9254901960784314" d="M 93.5 157 L 94 159.5 L 93 159.5 L 93.5 157 Z " /><path fill="rgb(23,24,24)" stroke="rgb(23,24,24)" stroke-width="1" opacity="0.9254901960784314" d="M 51.5 158 L 50.5 160 L 51.5 158 Z " /><path fill="rgb(23,24,24)" stroke="rgb(23,24,24)" stroke-width="1" opacity="0.9254901960784314" d="M 86.5 158 L 87 160.5 L 86 160.5 L 86.5 158 Z " /><path fill="rgb(23,24,24)" stroke="rgb(23,24,24)" stroke-width="1" opacity="0.9254901960784314" d="M 37.5 160 L 40 161.5 L 34.5 169 L 36 166.5 L 39 161.5 L 37.5 160 Z " /><path fill="rgb(23,24,24)" stroke="rgb(23,24,24)" stroke-width="1" opacity="0.9254901960784314" d="M 66.5 160 L 65.5 162 L 66.5 160 Z " /><path fill="rgb(23,24,24)" stroke="rgb(23,24,24)" stroke-width="1" opacity="0.9254901960784314" d="M 150.5 160 L 151 163.5 L 150 163.5 L 150.5 160 Z " /><path fill="rgb(23,24,24)" stroke="rgb(23,24,24)" stroke-width="1" opacity="0.9254901960784314" d="M 30.5 161 L 33 161.5 L 23.5 166 L 24.5 164 L 30.5 161 Z " /><path fill="rgb(23,24,24)" stroke="rgb(23,24,24)" stroke-width="1" opacity="0.9254901960784314" d="M 157.5 161 L 158 169.5 L 157 169.5 L 157.5 161 Z " /><path fill="rgb(23,24,24)" stroke="rgb(23,24,24)" stroke-width="1" opacity="0.9254901960784314" d="M 64.5 163 L 63.5 165 L 64.5 163 Z " /><path fill="rgb(23,24,24)" stroke="rgb(23,24,24)" stroke-width="1" opacity="0.9254901960784314" d="M 87.5 163 L 88 166.5 L 87 166.5 L 87.5 163 Z " /><path fill="rgb(23,24,24)" stroke="rgb(23,24,24)" stroke-width="1" opacity="0.9254901960784314" d="M 94.5 164 L 95 168 L 105 168.5 L 95.5 169 Q 92.8 167.8 94.5 164 Z " /><path fill="rgb(23,24,24)" stroke="rgb(23,24,24)" stroke-width="1" opacity="0.9254901960784314" d="M 62.5 166 L 61.5 168 L 62.5 166 Z " /><path fill="rgb(23,24,24)" stroke="rgb(23,24,24)" stroke-width="1" opacity="0.9254901960784314" d="M 44.5 168 L 43.5 170 L 44.5 168 Z " /><path fill="rgb(23,24,24)" stroke="rgb(23,24,24)" stroke-width="1" opacity="0.9254901960784314" d="M 88.5 168 L 90 175 L 99 175.5 L 90.5 176 Q 86.8 173.3 88.5 168 Z " /><path fill="rgb(23,24,24)" stroke="rgb(23,24,24)" stroke-width="1" opacity="0.9254901960784314" d="M 33.5 170 L 32.5 172 L 33.5 170 Z " /><path fill="rgb(23,24,24)" stroke="rgb(23,24,24)" stroke-width="1" opacity="0.9254901960784314" d="M 42.5 171 L 41.5 173 L 42.5 171 Z " /><path fill="rgb(23,24,24)" stroke="rgb(23,24,24)" stroke-width="1" opacity="0.9254901960784314" d="M 59.5 171 L 58.5 173 L 59.5 171 Z " /><path fill="rgb(23,24,24)" stroke="rgb(23,24,24)" stroke-width="1" opacity="0.9254901960784314" d="M 156.5 171 L 157 173.5 L 155.5 175 L 139.5 175 L 139.5 174 L 155.5 174 L 156.5 171 Z " /><path fill="rgb(23,24,24)" stroke="rgb(23,24,24)" stroke-width="1" opacity="0.9254901960784314" d="M 31.5 173 L 30.5 175 L 31.5 173 Z " /><path fill="rgb(23,24,24)" stroke="rgb(23,24,24)" stroke-width="1" opacity="0.9254901960784314" d="M 40.5 174 L 39.5 176 L 40.5 174 Z " /><path fill="rgb(23,24,24)" stroke="rgb(23,24,24)" stroke-width="1" opacity="0.9254901960784314" d="M 106.5 174 L 120 174.5 L 102.5 176 L 102.5 175 L 106.5 174 Z " /><path fill="rgb(23,24,24)" stroke="rgb(23,24,24)" stroke-width="1" opacity="0.9254901960784314" d="M 122.5 174 L 128 174.5 L 122.5 175 L 122.5 174 Z " /><path fill="rgb(23,24,24)" stroke="rgb(23,24,24)" stroke-width="1" opacity="0.9254901960784314" d="M 29.5 176 L 28.5 178 L 29.5 176 Z " /><path fill="rgb(23,24,24)" stroke="rgb(23,24,24)" stroke-width="1" opacity="0.9254901960784314" d="M 27.5 179 L 27 180.5 L 21.5 188 L 23 185.5 L 27.5 179 Z " /><path fill="rgb(23,24,24)" stroke="rgb(23,24,24)" stroke-width="1" opacity="0.9254901960784314" d="M 35.5 181 L 34.5 183 L 35.5 181 Z " /><path fill="rgb(23,24,24)" stroke="rgb(23,24,24)" stroke-width="1" opacity="0.9254901960784314" d="M 52.5 181 L 51.5 183 L 52.5 181 Z " /><path fill="rgb(23,24,24)" stroke="rgb(23,24,24)" stroke-width="1" opacity="0.9254901960784314" d="M 76.5 181 Q 82.4 181.6 85 185.5 L 84.5 201 L 84 185.5 L 82.5 184 L 76.5 182 L 69.5 185 L 69.5 184 L 76.5 181 Z " /><path fill="rgb(23,24,24)" stroke="rgb(23,24,24)" stroke-width="1" opacity="0.9254901960784314" d="M 33.5 184 L 32.5 186 L 33.5 184 Z " /><path fill="rgb(23,24,24)" stroke="rgb(23,24,24)" stroke-width="1" opacity="0.9254901960784314" d="M 50.5 184 L 49.5 186 L 50.5 184 Z " /><path fill="rgb(23,24,24)" stroke="rgb(23,24,24)" stroke-width="1" opacity="0.9254901960784314" d="M 31.5 187 L 30.5 189 L 31.5 187 Z " /><path fill="rgb(23,24,24)" stroke="rgb(23,24,24)" stroke-width="1" opacity="0.9254901960784314" d="M 20.5 189 L 20 190.5 L 15.5 198 L 15 196.5 L 20.5 189 Z " /><path fill="rgb(23,24,24)" stroke="rgb(23,24,24)" stroke-width="1" opacity="0.9254901960784314" d="M 69.5 192 L 72 192.5 L 69.5 193 L 69.5 192 Z " /><path fill="rgb(23,24,24)" stroke="rgb(23,24,24)" stroke-width="1" opacity="0.9254901960784314" d="M 27.5 193 L 26.5 195 L 27.5 193 Z " /><path fill="rgb(23,24,24)" stroke="rgb(23,24,24)" stroke-width="1" opacity="0.9254901960784314" d="M 44.5 193 L 49 194.5 L 44 195 L 44.5 193 Z " /><path fill="rgb(23,24,24)" stroke="rgb(23,24,24)" stroke-width="1" opacity="0.9254901960784314" d="M 61.5 193 L 66 193.5 L 61.5 194 L 61.5 193 Z " /><path fill="rgb(23,24,24)" stroke="rgb(23,24,24)" stroke-width="1" opacity="0.9254901960784314" d="M 76.5 197 L 77 199.5 L 76 199.5 L 76.5 197 Z " /><path fill="rgb(23,24,24)" stroke="rgb(23,24,24)" stroke-width="1" opacity="0.9254901960784314" d="M 16.5 199 L 17 201.5 L 16 201.5 L 16.5 199 Z " /><path fill="rgb(23,24,24)" stroke="rgb(23,24,24)" stroke-width="1" opacity="0.9254901960784314" d="M 17.5 203 L 19 211.5 L 18 211.5 L 17.5 203 Z " /><path fill="rgb(23,24,24)" stroke="rgb(23,24,24)" stroke-width="1" opacity="0.9254901960784314" d="M 83.5 204 L 84 211.5 L 83 211.5 L 83.5 204 Z " /><path fill="rgb(23,24,24)" stroke="rgb(23,24,24)" stroke-width="1" opacity="0.9254901960784314" d="M 32.5 208 L 48 208.5 L 32.5 209 L 32.5 208 Z " /><path fill="rgb(23,24,24)" stroke="rgb(23,24,24)" stroke-width="1" opacity="0.9254901960784314" d="M 19.5 213 L 20 217 L 24 217.5 L 20.5 218 Q 17.8 216.8 19.5 213 Z " /><path fill="rgb(23,24,24)" stroke="rgb(23,24,24)" stroke-width="1" opacity="0.9254901960784314" d="M 66.5 215 L 75 215.5 L 66.5 216 L 66.5 215 Z " /><path fill="rgb(23,24,24)" stroke="rgb(23,24,24)" stroke-width="1" opacity="0.9254901960784314" d="M 32.5 216 L 56 216.5 L 32.5 217 L 32.5 216 Z " /><path fill="rgb(2,3,3)" stroke="rgb(2,3,3)" stroke-width="1" opacity="0.996078431372549" d="M 163.5 40 L 198.5 41 L 199.5 40 L 212.5 40 L 212.5 41 L 210.5 42 L 206.5 41 L 205 44 L 208 45.5 Q 200.1 48.6 187.5 47 L 185.5 46 L 180.5 47 L 178.5 43 L 176.5 44 L 171.5 41 L 167.5 42 L 164.5 41 L 163 43.5 L 163 45.5 L 164 50 L 166.5 49 L 168 56.5 L 165.5 65 L 161 61.5 L 161 49.5 Q 163.8 47.7 162 41.5 L 163.5 40 Z " /><path fill="rgb(2,3,3)" stroke="rgb(2,3,3)" stroke-width="1" opacity="0.996078431372549" d="M 216 40 L 234.5 40 L 236 41.5 L 237 52.5 L 234 52.5 L 233.5 50 Q 232.3 52.3 231 49.5 L 228.5 45 L 220 44.5 L 221.5 42 Q 214.6 44 216 40 Z " /><path fill="rgb(2,3,3)" stroke="rgb(2,3,3)" stroke-width="1" opacity="0.996078431372549" d="M 168.5 46 L 178 46.5 L 168.5 47 L 168.5 46 Z " /><path fill="rgb(2,3,3)" stroke="rgb(2,3,3)" stroke-width="1" opacity="0.996078431372549" d="M 231.5 59 L 236.5 60 L 238 59.5 L 226 79 L 223.5 80 L 227 75.5 Q 227.5 71.5 224.5 71 L 222.5 72 L 225 68.5 L 231.5 59 Z " /><path fill="rgb(2,3,3)" stroke="rgb(2,3,3)" stroke-width="1" opacity="0.996078431372549" d="M 197.5 63 L 207 63.5 L 198.5 65 L 197.5 63 Z " /><path fill="rgb(2,3,3)" stroke="rgb(2,3,3)" stroke-width="1" opacity="0.996078431372549" d="M 180.5 64 L 185.5 65 L 187.5 65 Q 188.9 67.6 193.5 67 L 197.5 71 L 200 71 L 199 75.5 L 193 85 L 191 85.5 L 191.5 87 L 189.5 88 L 190 86.5 L 189.5 84 L 186.5 85 L 185 85 Q 186.5 88.7 183.5 88 L 184 86.5 L 194 70 Q 179.1 67.8 171.5 74 L 170.5 72 L 173 70.5 L 172 66 L 180.5 64 Z " /><path fill="rgb(2,3,3)" stroke="rgb(2,3,3)" stroke-width="1" opacity="0.996078431372549" d="M 160.5 65 L 161.5 71 L 162.5 69 L 163 70.5 L 162 72.5 L 164.5 73 L 169 74.5 L 166.5 76 L 161 72.5 L 160.5 65 Z " /><path fill="rgb(2,3,3)" stroke="rgb(2,3,3)" stroke-width="1" opacity="0.996078431372549" d="M 165.5 68 L 168 68.5 L 165.5 69 L 165.5 68 Z " /><path fill="rgb(2,3,3)" stroke="rgb(2,3,3)" stroke-width="1" opacity="0.996078431372549" d="M 218.5 79 L 220 82 L 223.5 81 L 222 83.5 L 212.5 99 L 209.5 95 L 206.5 96 L 208.5 93 L 212 90.5 L 215 82 Q 217.7 83.1 217 80.5 L 218.5 79 Z " /><path fill="rgb(2,3,3)" stroke="rgb(2,3,3)" stroke-width="1" opacity="0.996078431372549" d="M 124.5 84 L 147.5 85 L 153 84 L 155 99.5 L 154 99.5 L 152.5 97 L 150.5 96 L 149 96.5 L 146.5 90 L 143.5 91 L 128.5 91 L 128.5 90 L 142 89.5 L 140 89 L 140 87 L 138 87 Q 139.1 84.3 136.5 85 L 134.5 85 L 124.5 85 L 124.5 84 Z " /><path fill="rgb(2,3,3)" stroke="rgb(2,3,3)" stroke-width="1" opacity="0.996078431372549" d="M 87 85 Q 90 84 89 87 Q 86 88 87 85 Z " /><path fill="rgb(2,3,3)" stroke="rgb(2,3,3)" stroke-width="1" opacity="0.996078431372549" d="M 92.5 85 L 118.5 85 Q 120.9 89.1 127 89.5 L 119.5 91 L 107.5 91 L 106.5 90 L 97.5 90 L 91 86.5 L 92.5 85 Z " /><path fill="rgb(2,3,3)" stroke="rgb(2,3,3)" stroke-width="1" opacity="0.996078431372549" d="M 189.5 89 L 188.5 91 L 189.5 89 Z " /><path fill="rgb(2,3,3)" stroke="rgb(2,3,3)" stroke-width="1" opacity="0.996078431372549" d="M 181.5 91 L 181 92.5 L 182.5 96 Q 183.7 93.7 185 96.5 L 179 106 Q 175.7 104.9 177 109 L 174 109 L 172.5 106 L 168 109.5 L 181.5 91 Z " /><path fill="rgb(2,3,3)" stroke="rgb(2,3,3)" stroke-width="1" opacity="0.996078431372549" d="M 86.5 92 L 87 95 L 89 95 Q 87.9 97.7 90.5 97 L 92 96.5 L 93 100.5 L 91 110 Q 94 108.8 93 112.5 Q 90.8 113.7 93.5 115 L 99.5 113 L 102 110.5 L 99 109.5 L 100.5 107 L 105 108 Q 103.7 111.7 109.5 110 L 111.5 110 L 116.5 111 L 121 109.5 L 119.5 107 L 125.5 106 L 126.5 108 L 124 109.5 L 124 112 Q 121 110.8 122 114.5 L 116.5 122 L 112.5 120 L 109.5 122 L 111 119.5 L 115 112 L 101.5 113 Q 97.7 116.7 90.5 117 L 85 112.5 L 86.5 92 Z " /><path fill="rgb(2,3,3)" stroke="rgb(2,3,3)" stroke-width="1" opacity="0.996078431372549" d="M 185.5 92 L 186.5 94 Q 183.7 94.7 185.5 92 Z " /><path fill="rgb(2,3,3)" stroke="rgb(2,3,3)" stroke-width="1" opacity="0.996078431372549" d="M 149.5 98 L 149 99.5 L 148.5 103 L 148 99.5 L 149.5 98 Z " /><path fill="rgb(2,3,3)" stroke="rgb(2,3,3)" stroke-width="1" opacity="0.996078431372549" d="M 209.5 99 L 212 100.5 L 209 102 L 209.5 99 Z " /><path fill="rgb(2,3,3)" stroke="rgb(2,3,3)" stroke-width="1" opacity="0.996078431372549" d="M 204.5 100 L 206 102.5 L 204 101.5 L 204.5 100 Z " /><path fill="rgb(2,3,3)" stroke="rgb(2,3,3)" stroke-width="1" opacity="0.996078431372549" d="M 207.5 103 Q 210.8 104.8 207 106.5 L 206 110 L 211 110.5 L 209.5 113 L 211.5 114 L 214.5 113 L 214.5 114 L 213 114.5 L 215 115.5 L 201.5 116 L 199.5 116 L 194 114.5 L 200 104 L 204.5 106 L 208 104.5 L 207.5 103 Z " /><path fill="rgb(2,3,3)" stroke="rgb(2,3,3)" stroke-width="1" opacity="0.996078431372549" d="M 147.5 104 Q 151.3 103 150 106 L 153.5 106 L 152 108.5 L 145.5 118 Q 142.5 118.7 144 115 L 140.5 115 L 142 112.5 L 147.5 104 Z " /><path fill="rgb(2,3,3)" stroke="rgb(2,3,3)" stroke-width="1" opacity="0.996078431372549" d="M 234.5 104 L 240 107.5 L 241 111.5 L 240 114.5 L 241 117.5 L 240 118.5 L 239.5 131 L 238 124 L 235 122.5 L 234 114.5 L 235 112.5 Q 233.7 109.7 232.5 112 L 225.5 115 L 220 113.5 L 224 113 L 225 108 L 227.5 107 L 229 107.5 Q 228.3 105.3 230.5 106 L 234.5 104 Z M 239 111 L 237 114 L 239 115 L 239 111 Z " /><path fill="rgb(2,3,3)" stroke="rgb(2,3,3)" stroke-width="1" opacity="0.996078431372549" d="M 110.5 106 L 114 106.5 L 110.5 107 L 110.5 106 Z " /><path fill="rgb(2,3,3)" stroke="rgb(2,3,3)" stroke-width="1" opacity="0.996078431372549" d="M 220.5 109 L 223 109.5 L 220.5 110 L 220.5 109 Z " /><path fill="rgb(2,3,3)" stroke="rgb(2,3,3)" stroke-width="1" opacity="0.996078431372549" d="M 167.5 111 L 169 111.5 L 167 114.5 L 171 116 L 167 121.5 L 167 124.5 L 169 128 L 164.5 127 L 163 129.5 L 165.5 136 L 167.5 135 L 167.5 136 L 166 136.5 L 170 138 L 169 133.5 L 170 133.5 L 170 136 L 176.5 136 L 179.5 135 L 186.5 134 L 193.5 136 L 195.5 135 L 193.5 138 L 189 137 Q 187.8 140 191.5 139 L 194 140.5 L 165 141 L 163 135.5 L 161 120.5 L 167.5 111 Z M 187 139 L 187 140 L 189 140 L 187 139 Z " /><path fill="rgb(2,3,3)" stroke="rgb(2,3,3)" stroke-width="1" opacity="0.996078431372549" d="M 172.5 112 L 173 114.5 L 171 113.5 L 172.5 112 Z " /><path fill="rgb(2,3,3)" stroke="rgb(2,3,3)" stroke-width="1" opacity="0.996078431372549" d="M 138.5 117 L 141 118 Q 142 121 139 120 L 138.5 117 Z " /><path fill="rgb(2,3,3)" stroke="rgb(2,3,3)" stroke-width="1" opacity="0.996078431372549" d="M 144.5 119 L 144 120.5 L 128 146 L 142.5 145 L 146.5 143 L 147 145.5 L 147 147 Q 150.8 145.5 150 148.5 L 148 148.5 L 147.5 150 L 146 149.5 Q 146.8 151.8 144.5 151 L 142.5 150 L 137.5 151 L 127.5 152 L 124.5 151 Q 122.7 153.7 116.5 152 L 117 150.5 L 118 147 Q 121.8 148.5 121 145.5 L 120.5 144 Q 123.1 144.8 122 141.5 L 124 138 L 130 139 L 130 137 Q 133.8 138.5 133 135.5 L 134 132.5 L 131 128.5 L 135.5 122 L 139.5 124 L 143 121.5 L 144.5 119 Z " /><path fill="rgb(2,3,3)" stroke="rgb(2,3,3)" stroke-width="1" opacity="0.996078431372549" d="M 108 123 L 110 123.5 L 109.5 125 Q 113.3 124.3 114 126.5 L 109 134 Q 106 132.8 107 136.5 L 105 136.5 L 104.5 138 L 104 135 Q 100.3 133.5 101 136.5 L 99 140.5 L 102 142 L 102.5 140 L 103 142.5 L 99 149 L 97 149.5 L 97.5 151 L 94.5 148 L 93.5 149 L 89.5 152 L 91 149.5 L 108 123 Z " /><path fill="rgb(2,3,3)" stroke="rgb(2,3,3)" stroke-width="1" opacity="0.996078431372549" d="M 49 130 L 55 130 L 55 132 L 52.5 131 L 49 132 L 49 130 Z " /><path fill="rgb(2,3,3)" stroke="rgb(2,3,3)" stroke-width="1" opacity="0.996078431372549" d="M 39.5 131 L 48 131.5 L 43 132.5 L 48.5 136 L 53 136 Q 54.8 140.9 48.5 139 L 44.5 138 L 42.5 138 L 37 137.5 L 37.5 136 L 26.5 134 L 25.5 136 L 21.5 133 L 20 133.5 L 20.5 132 L 38.5 132 L 39.5 131 Z " /><path fill="rgb(2,3,3)" stroke="rgb(2,3,3)" stroke-width="1" opacity="0.996078431372549" d="M 59.5 131 L 78.5 131 Q 79.6 131.1 79 136.5 L 81 145.5 L 80 145.5 L 78.5 143 L 72 140 Q 73.8 135.1 67.5 137 L 67.5 135 L 59.5 132 L 59.5 131 Z " /><path fill="rgb(2,3,3)" stroke="rgb(2,3,3)" stroke-width="1" opacity="0.996078431372549" d="M 129.5 131 L 130.5 133 L 128 132.5 L 129.5 131 Z " /><path fill="rgb(2,3,3)" stroke="rgb(2,3,3)" stroke-width="1" opacity="0.996078431372549" d="M 18.5 132 L 20 137 L 25 137 L 25 139.5 Q 22.7 140.8 24 145.5 L 22.5 147 L 19.5 146 L 16 146.5 Q 14.9 136.9 18.5 132 Z " /><path fill="rgb(2,3,3)" stroke="rgb(2,3,3)" stroke-width="1" opacity="0.996078431372549" d="M 232.5 132 L 234.5 135 L 236.5 134 L 239 134.5 Q 239.6 139.6 236.5 141 L 209.5 141 L 209 139 L 212.5 138 L 214 138.5 Q 214.7 135.5 211 137 L 211 135 L 231.5 135 L 232.5 132 Z " /><path fill="rgb(2,3,3)" stroke="rgb(2,3,3)" stroke-width="1" opacity="0.996078431372549" d="M 198.5 138 L 207 139.5 L 198 140 L 198.5 138 Z " /><path fill="rgb(2,3,3)" stroke="rgb(2,3,3)" stroke-width="1" opacity="0.996078431372549" d="M 150.5 141 Q 154.3 140.3 155 142.5 L 148.5 143 L 148.5 142 L 150.5 141 Z " /><path fill="rgb(2,3,3)" stroke="rgb(2,3,3)" stroke-width="1" opacity="0.996078431372549" d="M 156.5 143 L 157.5 145 L 156.5 143 Z " /><path fill="rgb(2,3,3)" stroke="rgb(2,3,3)" stroke-width="1" opacity="0.996078431372549" d="M 73.5 146 L 74 149 Q 77 148 76 151 L 79.5 151 L 81.5 150 L 81.5 151 L 80 151.5 Q 82.5 153 79 154.5 L 73.5 163 L 71.5 159 L 68.5 160 L 68 157.5 L 70 155.5 Q 73.5 152.5 73.5 146 Z " /><path fill="rgb(2,3,3)" stroke="rgb(2,3,3)" stroke-width="1" opacity="0.996078431372549" d="M 153.5 151 L 156.5 152 L 158 151.5 L 158 160.5 L 156 161 L 155.5 159 L 155 161 Q 152.3 162.1 153 159.5 L 151 155.5 L 153.5 151 Z " /><path fill="rgb(2,3,3)" stroke="rgb(2,3,3)" stroke-width="1" opacity="0.996078431372549" d="M 41.5 153 L 44 153 Q 42.5 156.8 45.5 156 Q 47.7 161.2 50 157.5 L 50.5 156 L 51 157.5 L 48 162.5 L 41.5 171 L 39.5 168 L 37.5 168 Q 35.3 167.3 36 169.5 L 33 172.5 Q 35.3 173.8 32.5 175 L 31 175.5 L 32 176.5 L 29 179.5 L 30.5 182 L 34 181.5 L 28 193 Q 25 191.8 26 195.5 L 25 195.5 L 26 192.5 L 24 192 Q 25.1 188.7 21 190 L 19.5 194 L 18 193.5 L 31.5 174 L 33 173.5 Q 30.5 172 34 170.5 L 40 161.5 L 37.5 160 Q 36 162.5 30.5 161 L 21.5 165 L 21.5 164 L 33 158.5 Q 33.9 155.5 29.5 157 L 29.5 156 L 32 155.5 L 30 154.5 L 31.5 154 L 33.5 155 L 36.5 154 L 41.5 153 Z " /><path fill="rgb(2,3,3)" stroke="rgb(2,3,3)" stroke-width="1" opacity="0.996078431372549" d="M 88.5 153 L 88 154.5 Q 87.3 158.3 89.5 159 L 92.5 158 Q 95.3 160.7 94 167.5 L 96.5 170 Q 98 167.5 103.5 169 L 109.5 171 L 110.5 170 L 114.5 172 L 118 172.5 L 115.5 174 L 98.5 175 L 97 172 L 91 172.5 L 93 173.5 L 90.5 175 L 86 156.5 L 88.5 153 Z " /><path fill="rgb(2,3,3)" stroke="rgb(2,3,3)" stroke-width="1" opacity="0.996078431372549" d="M 17.5 155 L 19 159 Q 16.3 157.9 17 160.5 L 19.5 164 L 16 161.5 L 17.5 155 Z " /><path fill="rgb(2,3,3)" stroke="rgb(2,3,3)" stroke-width="1" opacity="0.996078431372549" d="M 155.5 162 L 157 164.5 L 156 164.5 L 155.5 162 Z " /><path fill="rgb(2,3,3)" stroke="rgb(2,3,3)" stroke-width="1" opacity="0.996078431372549" d="M 70 164 L 73 164.5 L 71 168 Q 68 166.8 69 170.5 L 59 186 L 70.5 185 L 78.5 182 L 84 185.5 L 83.5 204 L 82.5 200 L 80.5 200 L 78 198.5 L 77 190 L 74.5 191 L 72.5 191 L 66.5 193 L 65.5 191 Q 68.8 192.1 68 189.5 Q 67 187 62.5 188 L 59.5 190 L 57.5 189 L 54 190 L 55.5 193 L 61 193.5 L 55.5 194 L 50.5 193 L 46.5 194 Q 43.3 192.3 47 190.5 Q 46.3 188.3 48.5 189 L 49.5 186 L 53 188 L 53.5 190 L 56 185.5 L 56 183.5 L 57 179.5 L 55 179.5 L 55.5 177 L 58 175.5 L 57 174.5 L 60 171.5 L 61 168 L 63.5 167 L 64 169 Q 68.7 170 70 166.5 L 70 164 Z " /><path fill="rgb(2,3,3)" stroke="rgb(2,3,3)" stroke-width="1" opacity="0.996078431372549" d="M 150.5 164 L 151 168 Q 155.3 169 156.5 166 L 157 170.5 L 156 174 L 128.5 175 L 129.5 173 Q 133.3 174 132 171 L 129.5 172 L 124.5 169 L 105 168.5 L 150 168 L 150.5 164 Z " /><path fill="rgb(2,3,3)" stroke="rgb(2,3,3)" stroke-width="1" opacity="0.996078431372549" d="M 35.5 178 L 36.5 180 L 35.5 178 Z " /><path fill="rgb(2,3,3)" stroke="rgb(2,3,3)" stroke-width="1" opacity="0.996078431372549" d="M 17.5 195 L 18 199 Q 15 200.3 16 196.5 L 17.5 195 Z " /><path fill="rgb(2,3,3)" stroke="rgb(2,3,3)" stroke-width="1" opacity="0.996078431372549" d="M 17.5 200 L 20.5 202 L 22.5 202 L 26 203.5 Q 24.8 208.8 27.5 210 L 37.5 210 L 38.5 211 L 41.5 210 L 43 211.5 L 42.5 213 L 41.5 211 L 40 213.5 L 42.5 215 Q 43.8 212.8 45 215.5 L 24.5 217 L 21.5 216 L 20 216.5 L 17.5 200 Z " /><path fill="rgb(2,3,3)" stroke="rgb(2,3,3)" stroke-width="1" opacity="0.996078431372549" d="M 48.5 208 L 59.5 208 L 60.5 209 L 62.5 209 L 75.5 209 L 80.5 211 L 80.5 209 L 82.5 208 L 82 209.5 L 83 214 L 80.5 215 L 51.5 216 L 49.5 215 L 47.5 216 L 46.5 214 L 48.5 214 L 52.5 215 L 53.5 213 L 50.5 211 L 50 213 L 48 212.5 L 50.5 209 Q 47.5 209.5 48.5 208 Z " /><path fill="rgb(145,146,145)" stroke="rgb(145,146,145)" stroke-width="1" opacity="0.996078431372549" d="M 169 47 L 180.5 47 L 181.5 48 L 200.5 48 L 201.5 47 L 229 47 L 230 59.5 L 217 77.5 L 212 88.5 L 205 95.5 L 192 117 L 225.5 116 L 233.5 112 L 234 114.5 L 233 115.5 L 232 133 L 185.5 133 L 184.5 134 L 170 134 L 169 120.5 L 208 63.5 Q 206.7 60.7 205.5 63 L 182.5 63 Q 181 65.5 175.5 64 L 168 67 L 169 47 Z " /><path fill="rgb(145,146,145)" stroke="rgb(145,146,145)" stroke-width="1" opacity="0.996078431372549" d="M 129.5 91 L 147 91 L 147 99.5 L 148 101.5 L 131 128.5 L 121 141.5 L 115 153 L 144.5 152 L 151 149 L 150 167 L 107.5 167 L 106.5 168 L 95 168 L 94 157.5 L 127 108.5 L 128 105 L 101.5 106 L 93 109 L 94 92 L 128.5 92 L 129.5 91 Z " /><path fill="rgb(145,146,145)" stroke="rgb(145,146,145)" stroke-width="1" opacity="0.996078431372549" d="M 50.5 139 L 72 139 L 72 146.5 L 73 149.5 L 43 194.5 L 57.5 195 L 58.5 194 L 68.5 194 L 77 191 L 76 193.5 L 75 207 L 27 208 L 25 197.5 L 56 152 L 31.5 153 L 24.5 156 L 24 143.5 L 25 140 L 49.5 140 L 50.5 139 Z " /><path fill="rgb(220,221,220)" stroke="rgb(220,221,220)" stroke-width="1" opacity="0.08235294117647059" d="M 183.5 39 L 196 39.5 L 183.5 40 L 183.5 39 Z " /><path fill="rgb(220,221,220)" stroke="rgb(220,221,220)" stroke-width="1" opacity="0.08235294117647059" d="M 238.5 54 L 239 57.5 L 238 57.5 L 238.5 54 Z " /><path fill="rgb(220,221,220)" stroke="rgb(220,221,220)" stroke-width="1" opacity="0.08235294117647059" d="M 159.5 59 L 160 62.5 L 159 62.5 L 159.5 59 Z " /><path fill="rgb(220,221,220)" stroke="rgb(220,221,220)" stroke-width="1" opacity="0.08235294117647059" d="M 237.5 63 L 236.5 65 L 237.5 63 Z " /><path fill="rgb(220,221,220)" stroke="rgb(220,221,220)" stroke-width="1" opacity="0.08235294117647059" d="M 182.5 71 L 187 71.5 L 182.5 72 L 182.5 71 Z " /><path fill="rgb(220,221,220)" stroke="rgb(220,221,220)" stroke-width="1" opacity="0.08235294117647059" d="M 192.5 71 L 191.5 73 L 192.5 71 Z " /><path fill="rgb(220,221,220)" stroke="rgb(220,221,220)" stroke-width="1" opacity="0.08235294117647059" d="M 230.5 73 L 229.5 75 L 230.5 73 Z " /><path fill="rgb(220,221,220)" stroke="rgb(220,221,220)" stroke-width="1" opacity="0.08235294117647059" d="M 89.5 83 L 96 83.5 L 89.5 84 L 89.5 83 Z " /><path fill="rgb(220,221,220)" stroke="rgb(220,221,220)" stroke-width="1" opacity="0.08235294117647059" d="M 118.5 83 L 121 83.5 L 118.5 84 L 118.5 83 Z " /><path fill="rgb(220,221,220)" stroke="rgb(220,221,220)" stroke-width="1" opacity="0.08235294117647059" d="M 212.5 108 L 215 108.5 L 212.5 109 L 212.5 108 Z " /><path fill="rgb(220,221,220)" stroke="rgb(220,221,220)" stroke-width="1" opacity="0.08235294117647059" d="M 59.5 129 L 65 129.5 L 59.5 130 L 59.5 129 Z " /><path fill="rgb(220,221,220)" stroke="rgb(220,221,220)" stroke-width="1" opacity="0.08235294117647059" d="M 29.5 130 L 38 130.5 L 29.5 131 L 29.5 130 Z " /><path fill="rgb(220,221,220)" stroke="rgb(220,221,220)" stroke-width="1" opacity="0.08235294117647059" d="M 97.5 137 L 96.5 139 L 97.5 137 Z " /><path fill="rgb(220,221,220)" stroke="rgb(220,221,220)" stroke-width="1" opacity="0.08235294117647059" d="M 157.5 142 L 160 145.5 L 159 145.5 L 157.5 142 Z " /><path fill="rgb(220,221,220)" stroke="rgb(220,221,220)" stroke-width="1" opacity="0.08235294117647059" d="M 178.5 142 L 182 142.5 L 178.5 143 L 178.5 142 Z " /><path fill="rgb(220,221,220)" stroke="rgb(220,221,220)" stroke-width="1" opacity="0.08235294117647059" d="M 159.5 149 L 160 153.5 L 159 153.5 L 159.5 149 Z " /><path fill="rgb(220,221,220)" stroke="rgb(220,221,220)" stroke-width="1" opacity="0.08235294117647059" d="M 82.5 152 L 81.5 154 L 82.5 152 Z " /><path fill="rgb(220,221,220)" stroke="rgb(220,221,220)" stroke-width="1" opacity="0.08235294117647059" d="M 72.5 167 L 71.5 169 L 72.5 167 Z " /><path fill="rgb(220,221,220)" stroke="rgb(220,221,220)" stroke-width="1" opacity="0.08235294117647059" d="M 111.5 175 L 127 175.5 L 111.5 176 L 111.5 175 Z " /><path fill="rgb(220,221,220)" stroke="rgb(220,221,220)" stroke-width="1" opacity="0.08235294117647059" d="M 141.5 175 L 151 175.5 L 141.5 176 L 141.5 175 Z " /><path fill="rgb(220,221,220)" stroke="rgb(220,221,220)" stroke-width="1" opacity="0.08235294117647059" d="M 83.5 183 L 84.5 185 L 83.5 183 Z " /><path fill="rgb(220,221,220)" stroke="rgb(220,221,220)" stroke-width="1" opacity="0.08235294117647059" d="M 85.5 194 L 86 197.5 L 85 197.5 L 85.5 194 Z " /><path fill="rgb(220,221,220)" stroke="rgb(220,221,220)" stroke-width="1" opacity="0.08235294117647059" d="M 69.5 216 L 72 216.5 L 69.5 217 L 69.5 216 Z " /><path fill="rgb(220,221,220)" stroke="rgb(220,221,220)" stroke-width="1" opacity="0.08235294117647059" d="M 35.5 217 L 45 217.5 L 35.5 218 L 35.5 217 Z " /></svg>